<?xml version="1.0" encoding="utf-8"?>
<!-- Generator: Adobe Illustrator 23.0.5, SVG Export Plug-In . SVG Version: 6.00 Build 0)  -->
<svg version="1.1" id="Layer_1" xmlns="http://www.w3.org/2000/svg" xmlns:xlink="http://www.w3.org/1999/xlink" x="0px" y="0px"
	 viewBox="0 0 64 64" style="enable-background:new 0 0 64 64;" xml:space="preserve">
<style type="text/css">
	.st0{opacity:0.35;fill:#FFFFFF;}
	.st1{opacity:0.4;fill:#FFFFFF;}
</style>
<path class="st0" d="M48.4,47.2c-1.3,0-2.5-0.2-3.7-0.5c-3.3-0.8-6.3-2.5-9-5.2c-1.4-1.4-2.6-3-3.7-4.7c-1.3,1.9-2.7,3.8-4.4,5.5
	c-1.8,1.9-4.1,3.3-6.7,4.1c-2.4,0.7-5.1,0.8-7.7,0.4c-2.6-0.5-5.1-1.5-7.1-3c-2.2-1.6-3.9-3.8-4.9-6.2c-1-2.3-1.3-4.8-0.9-7.4
	c0.4-2.4,1.3-4.7,2.8-6.8s3.3-3.8,5.5-4.9c2.2-1.2,4.7-1.8,7.1-1.6h0.2l0,0c1.4,0,2.7,0.1,3.9,0.4c3.3,0.8,6.4,2.6,9.1,5.4
	c1.2,1.3,2.3,2.7,3.3,4c1.9-2.8,4.2-5.5,7.4-7.5c2.2-1.5,4.7-2.3,7.5-2.4c2.5-0.1,5.2,0.4,7.6,1.4c5.1,2.2,8.6,6.4,9.3,11.3
	c0.4,2.5,0.1,5.1-0.9,7.6c-0.9,2.3-2.5,4.4-4.4,6.1C55.5,45.8,51.9,47.2,48.4,47.2z M35.1,31.7c1.5,3,4.9,8.6,10.8,9.9H46h0.1
	c2.9,0.9,6.3,0,9-2.4s4.1-5.8,3.6-8.9c-0.5-3.2-2.8-5.9-6.2-7.4c-3.5-1.5-7.4-1.3-10.1,0.6l-0.1,0.1C39.2,25.6,37.1,28.5,35.1,31.7z
	 M14.8,22.1c-2.8,0-5.7,1.6-7.6,4.3c-2,2.9-2.5,6.3-1.3,9.1v0.1c1.2,3.1,4.3,5.4,8.1,6c3.8,0.7,7.4-0.4,9.6-2.9l0.1-0.1l0.1-0.1
	c2-2,3.6-4.4,5.2-7c-2.6-4.2-5.9-8.1-10.5-9.2c-0.8-0.2-1.6-0.3-2.6-0.3h-0.2h-0.3C15.2,22.1,15,22.1,14.8,22.1z"/>
<rect x="10.6" y="30.4" class="st1" width="10.6" height="2.2"/>
<polygon class="st1" points="49,35.9 46.2,35.9 46.2,32.9 43.2,32.9 43.2,30.1 46.2,30.1 46.2,27.1 49,27.1 49,30.1 52.1,30.1 
	52.1,32.9 49,32.9 "/>
</svg>
