<?xml version="1.0" encoding="utf-8"?>
<!-- Generator: Adobe Illustrator 23.0.5, SVG Export Plug-In . SVG Version: 6.00 Build 0)  -->
<svg version="1.1" id="Layer_1" xmlns="http://www.w3.org/2000/svg" xmlns:xlink="http://www.w3.org/1999/xlink" x="0px" y="0px"
	 viewBox="0 0 64 64" style="enable-background:new 0 0 64 64;" xml:space="preserve">
<style type="text/css">
	.st0{opacity:0.45;}
	.st1{fill:#0000CC;}
	.st2{opacity:0.35;}
	.st3{fill:#FF7901;}
	.st4{fill:#FF0101;}
	.st5{fill-rule:evenodd;clip-rule:evenodd;fill:#F3E517;}
</style>
<g class="st0">
	<path class="st1" d="M56.5,25.1v-2c0-5.1-2.5-9.8-6.4-13.2c-0.3-0.3-0.6-0.6-1-0.8C44.7,5.6,38.6,3.5,32,3.5S19.3,5.6,14.9,9.1
		c-0.9,0.7-1.7,1.4-2.4,2.2c-0.1,0.1-0.2,0.3-0.3,0.4c-2.8,3.2-4.6,7.1-4.6,11.4v2C3.1,27.3,0,33.2,0,40.1c0,4.2,1.2,8.1,3.1,10.9
		c2.1,3.1,5.1,5.1,8.4,5.1v-33c0-4.1,2.1-8,5.8-10.8S26.2,7.5,32,7.5s11,1.8,14.7,4.7c0.2,0.2,0.4,0.3,0.6,0.5
		c3.3,2.8,5.2,6.4,5.2,10.3v30.4V56C59,56,64,48.8,64,40C64,33.2,60.9,27.3,56.5,25.1z"/>
	<path class="st1" d="M49.5,24.9c-0.4,0.2-0.8,0.4-1,0.7v28.7v0.3c0.5,1,1.5,1.5,2.5,1.5v-1.3V24.6c-0.2,0-0.3,0-0.5,0
		C50.1,24.7,49.8,24.8,49.5,24.9z"/>
	<path class="st1" d="M13,53.4v2.7c1,0,2-0.5,2.5-1.5v-2.5V25.6c-0.5-0.5-1.5-1-2.5-1V53.4z"/>
</g>
<g class="st2">
	<polygon class="st3" points="48.5,40.4 48.3,40.9 48.5,41.1 	"/>
	<polygon class="st3" points="15.5,40.8 15.7,40.9 15.5,40 	"/>
	<polygon class="st3" points="28.2,39.5 26,24.1 24.9,37.1 25.5,36.1 26.5,42.1 27.5,38.1 	"/>
	<path class="st3" d="M31,41.6c0-0.3,0.8-3.1,1.3-5.2L32,21.9l-2.2,16.9C30.2,40,31,42,31,41.6z"/>
	<polygon class="st3" points="22.5,28.1 22,40.1 21.9,40.4 22.5,41.1 23.5,39.5 	"/>
	<polygon class="st3" points="15.8,47.9 16,48.1 17.5,53.1 17.9,48.2 17.5,47.6 	"/>
	<polygon class="st3" points="18.5,41.1 17,38.6 17,41.7 18.5,42.6 20,38.1 20,38.2 19.5,31.6 	"/>
	<polygon class="st3" points="38.6,37 39.5,41.1 41.3,37.8 40,24.6 	"/>
	<polygon class="st3" points="18.4,48.9 19.5,54.6 19.5,47.9 18.5,49.1 	"/>
	<polygon class="st3" points="45.2,39.4 45,39.1 44.5,32.1 42.7,38.8 43.5,41.1 	"/>
	<polygon class="st3" points="47,34.6 46.3,38.9 47.3,39.9 	"/>
	<polygon class="st3" points="36.8,37 35.5,28.1 33.9,37.1 35,40.6 	"/>
	<polygon class="st3" points="38.9,48.8 40.5,56.6 41,47.6 40.5,45.1 	"/>
	<polygon class="st3" points="41.9,45.7 42.2,45.2 42,45.1 	"/>
	<polygon class="st3" points="42.5,45.4 43,56.1 45.2,46.5 44,46.1 	"/>
	<polygon class="st3" points="46,46.8 47,50.1 47.4,46.8 47,47.1 	"/>
	<polygon class="st3" points="34.8,48.3 35.5,55.6 37.3,47.8 35.5,45.1 	"/>
	<polygon class="st3" points="26.8,46.4 29.3,56.1 29.4,50.3 28.5,45.6 	"/>
	<polygon class="st3" points="23,46.4 24.5,54.6 25.5,47.1 23.5,44.1 	"/>
	<polygon class="st3" points="20.2,46.9 20.5,47.6 22,54.6 22,48.5 20.5,46.6 	"/>
	<polygon class="st3" points="30.9,50.6 31.5,57.6 33.7,48.4 32.5,46.6 	"/>
	<path class="st4" d="M48.5,41.1l-0.2-0.2l-0.8,2.2l-0.2-3.2l-1-1L46,41.1l-0.8-1.7l-1.7,1.7l-0.8-2.3L42,41.6l-0.5-2l-0.2-1.8
		l-1.8,3.3L38.6,37l-0.1,0.6l-1,4L36.8,37L35,40.6l-1.1-3.5l-0.4,2.5l-1,3l-0.2-6.2c-0.6,2.1-1.3,4.9-1.3,5.2c0,0.4-0.8-1.6-1.2-2.7
		L29,45.1l-0.8-5.6l-0.7-1.4l-1,4l-1-6l-0.6,1l-0.4,5l-1-2v-0.6l-1,1.6l-0.6-0.7l-1.4,3.2L20,38.2v-0.1l-1.5,4.5L17,41.7v3.9
		l-1.3-4.7l-0.2-0.1v6.9l0.3,0.3l1.7-0.3l0.4,0.6l0.1-1.1l0.4,1.8l0.1,0.2l1-1.2v-2.8l0.7,1.8l0.3-0.3l1.5,1.9v-3.4l1,1v0.3l0.5-2.3
		l2,3l0.5-4l0.8,3.3l1.7-0.8l0.9,4.7l0.1-2.2l1-3l0.4,5.5l1.6-4l1.2,1.8l0.8-3.3l0.3,3.1l0.7-3.1l1.8,2.7l0.7-3.2l0.9,4.2l1.6-3.7
		l0.5,2.5l0.9-1.9l0.1-0.6l0.2,0.1l0.3-0.6v0.8l1.5,0.7l1.2,0.4l0.3-1.4l0.5,1.7l1,0.3l0.4-0.3l0.1-1.2l0.4,0.8l0.6-0.4V41.1z"/>
	<polygon class="st3" points="48.5,46 47.9,46.4 48.5,47.6 	"/>
	<path class="st5" d="M47.5,45.6l-0.1,1.2L47,50.1l-1-3.3l-0.5-1.7l-0.3,1.4L43,56.1l-0.5-10.7v-0.8l-0.3,0.6l-0.3,0.5L41,47.6
		l-0.5,9l-1.6-7.8L38,44.6l-0.7,3.2l-1.8,7.8l-0.7-7.4l-0.3-3.1l-0.8,3.3l-2.2,9.2l-0.6-7l-0.4-5.5l-1,3l-0.1,2.2L29.3,56l-2.5-9.6
		L26,43.1l-0.5,4l-1,7.5L23,46.4v-0.3l-1-1v3.4v6.1l-1.5-7l-0.3-0.7l-0.7-1.8v2.8v6.8L18.4,49L18,47.1l-0.1,1.1l-0.4,4.9l-1.5-5
		l-0.2-0.2l-0.3-0.3v4.5v1.4c2.2,2.3,4.2,4.9,7.7,4.8c3,1,2.6-3.5,5.3,0.3c2.5,3.4,4,1.4,5.6-0.3c2.4,3.6,3.1-4.3,5.1-0.8
		c3.1,1.2,5.9,1.8,6.4-2.3c0.3-1.5,1.6-2.3,2.9-3.1v-4.5l-0.6-1.2L47.5,45.6z"/>
	<path class="st5" d="M44.1,30.2c-3,1.4-1.8-4.9-3-6.8c-0.4-4.9-1.4-2.7-2.6,0.7c-0.6,4.8-3.3,2.5-4.6-0.6c-1.2-1-2.6-6.4-3.3-2.2
		c-1.1,2.9-2.3,7.6-3.6,2.2c-1-3.9-3.1,2.4-4.7,3.5c-3.1,2.4-4.9,5.7-6.3,9.3c-0.2-0.2-0.4-0.3-0.5-0.4V40l0.2,0.9l1.3,4.7v-3.9
		v-3.1l1.5,2.5l1-9.5l0.5,6.6l0.5,5.4l1.4-3.2l0.1-0.3l0.5-12l1,11.4v0.6l1,2l0.4-5l1.1-13l2.2,15.4l0.8,5.6l0.8-6.2l2.2-17
		l0.3,14.5l0.2,6.2l1-3l0.4-2.5l1.6-9l1.3,8.9l0.7,4.6l1-4l0.1-0.6L40,24.6l1.3,13.2l0.2,1.8l0.5,2l0.7-2.8l1.8-6.7l0.5,7l0.2,0.3
		l0.8,1.7l0.3-2.2l0.7-4.3l0.3,5.3l0.2,3.2l0.8-2.2l0.2-0.5v-6.3C47.1,32.4,45.8,30.4,44.1,30.2z"/>
</g>
</svg>
