<?xml version="1.0" encoding="utf-8"?>
<!-- Generator: Adobe Illustrator 23.0.5, SVG Export Plug-In . SVG Version: 6.00 Build 0)  -->
<svg version="1.1" id="Layer_1" xmlns="http://www.w3.org/2000/svg" xmlns:xlink="http://www.w3.org/1999/xlink" x="0px" y="0px"
	 viewBox="0 0 64 64" style="enable-background:new 0 0 64 64;" xml:space="preserve">
<style type="text/css">
	.st0{opacity:0.2;}
	.st1{fill:#FFFFFF;}
	.st2{opacity:0.6;}
	.st3{fill:#283037;}
	.st4{fill:#4DA825;}
	.st5{opacity:0.3;fill:#FFFFFF;}
</style>
<g class="st0">
	<path class="st1" d="M55.4,14.3l-20.2-12c-1-0.6-2.1-0.9-3.2-0.9c-1.1,0-2.2,0.3-3.2,0.9l-20.2,12c-2,1.2-3.2,3.4-3.2,5.7v24
		c0,2.4,1.2,4.5,3.2,5.7l20.2,12c1,0.6,2.1,0.9,3.2,0.9c0.4,0,0.7,0,1.1-0.1c-1.1-0.3-1.8-1.4-1.8-3.2V35.8c0-2.9,1.8-4.4,4.1-5.8
		l19.1-11.8c1.8-1,3.3-0.6,3.9,0.8C58.2,17,57.1,15.3,55.4,14.3z"/>
</g>
<g class="st2">
	<path class="st3" d="M59.4,16.9c-0.3-0.6-0.6-1.2-1-1.8c-0.2-0.3-0.4-0.5-0.7-0.8c-0.5-0.5-1-0.9-1.6-1.3l-20.2-12
		c-0.6-0.4-1.2-0.6-1.9-0.8S32.7,0,32,0s-1.3,0.1-2,0.3c-0.7,0.2-1.3,0.4-1.9,0.8l-20.2,12C6.7,13.8,5.7,14.8,5,16
		c-0.7,1.2-1,2.6-1,4v24c0,0.7,0.1,1.4,0.3,2.1c0.5,2,1.8,3.8,3.6,4.8l20.2,12c1.2,0.7,2.6,1.1,3.9,1.1c0.3,0,0.7,0,1-0.1
		c0.7-0.1,1.3-0.3,2-0.5c0.3-0.1,0.6-0.3,0.9-0.5l20.2-12c2.4-1.4,3.9-4.1,3.9-6.9V20C60,18.9,59.8,17.9,59.4,16.9z M40.5,50.5
		l0,1.7c0,0.2-0.1,0.4-0.3,0.5l-1,0.6c-0.2,0.1-0.3,0-0.3-0.2l0-1.7c-0.9,0.4-1.8,0.5-2.3,0.2c-0.1,0-0.2-0.2-0.1-0.4l0.4-1.6
		c0-0.1,0.1-0.2,0.2-0.3c0,0,0.1-0.1,0.1-0.1c0.1,0,0.1,0,0.2,0c0.6,0.2,1.4,0.1,2.1-0.3c1-0.5,1.6-1.5,1.6-2.4
		c0-0.9-0.5-1.2-1.6-1.2c-1.5,0-2.8-0.3-2.9-2.4c0-1.8,0.9-3.6,2.4-4.8l0-1.7c0-0.2,0.1-0.4,0.3-0.5l1-0.6c0.2-0.1,0.3,0,0.3,0.2
		l0,1.7c0.7-0.3,1.4-0.4,1.9-0.2c0.1,0,0.2,0.2,0.1,0.4l-0.4,1.5c0,0.1-0.1,0.2-0.2,0.3c0,0-0.1,0.1-0.1,0.1c-0.1,0-0.1,0-0.2,0
		c-0.3-0.1-0.9-0.2-1.9,0.3c-1,0.5-1.4,1.4-1.4,2.1c0,0.8,0.4,1,1.8,1.1c1.9,0,2.7,0.8,2.7,2.7C42.9,47.3,42,49.3,40.5,50.5z
		 M51,47.6c0,0.2,0,0.3-0.2,0.4l-5.1,3.1c-0.1,0.1-0.2,0-0.2-0.1v-1.3c0-0.2,0.1-0.2,0.2-0.3l5-3c0.1-0.1,0.2,0,0.2,0.1V47.6z
		 M54.6,18.1L35.4,29.9c-2.4,1.4-4.1,3-4.1,5.8v23.6c0,1.7,0.7,2.8,1.8,3.2c-0.4,0.1-0.7,0.1-1.1,0.1c-1.1,0-2.2-0.3-3.2-0.9
		l-20.2-12c-2-1.2-3.2-3.4-3.2-5.7V20c0-2.4,1.2-4.5,3.2-5.7l20.2-12c1-0.6,2.1-0.9,3.2-0.9c1.1,0,2.2,0.3,3.2,0.9l20.2,12
		c1.7,1,2.8,2.7,3.1,4.6C57.8,17.5,56.3,17.1,54.6,18.1z"/>
</g>
<g class="st2">
	<path class="st4" d="M50.8,46.3l-5,3c-0.1,0.1-0.2,0.2-0.2,0.3V51c0,0.2,0.1,0.2,0.2,0.1l5.1-3.1c0.1-0.1,0.2-0.2,0.2-0.4v-1.2
		C51,46.3,50.9,46.2,50.8,46.3z"/>
</g>
<path class="st5" d="M40.2,42.8c-1.4,0-1.8-0.3-1.8-1.1c0-0.7,0.4-1.6,1.4-2.1c1-0.5,1.6-0.4,1.9-0.3c0,0,0.1,0,0.2,0
	c0,0,0.1,0,0.1-0.1c0.1-0.1,0.1-0.2,0.2-0.3l0.4-1.5c0.1-0.2,0-0.4-0.1-0.4c-0.6-0.1-1.2-0.1-1.9,0.2l0-1.7c0-0.2-0.1-0.3-0.3-0.2
	l-1,0.6c-0.2,0.1-0.3,0.3-0.3,0.5l0,1.7c-1.5,1.2-2.4,3-2.4,4.8c0,2.2,1.4,2.4,2.9,2.4c1.2,0,1.6,0.4,1.6,1.2c0,1-0.6,1.9-1.6,2.4
	c-0.7,0.4-1.5,0.5-2.1,0.3c0,0-0.1,0-0.2,0c0,0-0.1,0-0.1,0.1c-0.1,0.1-0.2,0.2-0.2,0.3l-0.4,1.6c0,0.2,0,0.3,0.1,0.4
	c0.6,0.2,1.5,0.1,2.3-0.2l0,1.7c0,0.2,0.1,0.3,0.3,0.2l1-0.6c0.2-0.1,0.3-0.3,0.3-0.5l0-1.7c1.5-1.2,2.5-3.2,2.5-5
	C42.9,43.6,42.1,42.8,40.2,42.8z"/>
</svg>
