<?xml version="1.0" encoding="utf-8"?>
<!-- Generator: Adobe Illustrator 23.0.5, SVG Export Plug-In . SVG Version: 6.00 Build 0)  -->
<svg version="1.1" id="Layer_1" xmlns="http://www.w3.org/2000/svg" xmlns:xlink="http://www.w3.org/1999/xlink" x="0px" y="0px"
	 viewBox="0 0 64 64" style="enable-background:new 0 0 64 64;" xml:space="preserve">
<style type="text/css">
	.st0{opacity:0.4;fill:#FFFFFF;enable-background:new    ;}
	.st1{opacity:0.4;fill:#265787;enable-background:new    ;}
	.st2{opacity:0.4;fill:#E88328;enable-background:new    ;}
</style>
<path class="st0" d="M54.66,39.865c0.561-1.546,0.779-3.183,0.637-4.831c-0.135-1.625-0.617-3.16-1.388-4.548
	c-0.756-1.366-1.795-2.603-3.07-3.646c-2.517-2.044-5.711-3.142-9.063-3.138c-3.341,0-6.535,1.117-9.052,3.16
	c-1.275,1.05-2.316,2.291-3.07,3.657c-0.771,1.388-1.252,2.935-1.388,4.548c-0.144,1.648,0.073,3.284,0.634,4.831
	c0.576,1.569,1.501,3.036,2.765,4.323c2.585,2.63,6.208,4.104,10.124,4.097c3.905,0,7.528-1.501,10.113-4.131l-0.007,0.011
	C53.159,42.912,54.087,41.445,54.66,39.865z M48.143,40.779c-1.58,1.535-3.815,2.506-6.332,2.506c-2.517,0-4.763-0.964-6.332-2.506
	c-1.546-1.512-2.427-3.544-2.302-5.734l-0.011-0.011c0.12-2.133,1.162-4.018,2.743-5.35c1.546-1.309,3.623-2.111,5.903-2.111
	c2.269,0,4.345,0.8,5.892,2.111c1.58,1.332,2.618,3.217,2.743,5.35C50.566,37.224,49.684,39.266,48.143,40.779z"/>
<path class="st1" d="M47.703,29.684c-1.546-1.31-3.623-2.111-5.892-2.111c-2.28,0-4.357,0.801-5.903,2.111
	c-1.58,1.332-2.623,3.217-2.743,5.35l0.011,0.011c-0.124,2.19,0.756,4.221,2.302,5.734c1.569,1.542,3.815,2.506,6.332,2.506
	c2.517,0,4.752-0.971,6.332-2.506c1.541-1.512,2.422-3.555,2.302-5.745C50.322,32.901,49.283,31.016,47.703,29.684z"/>
<path class="st2" d="M63.812,35c-0.377-2.652-1.298-5.147-2.709-7.404c-1.287-2.088-2.957-3.905-4.943-5.44l0.005-0.003
	L36.188,6.803c-0.018-0.014-0.033-0.028-0.052-0.041c-1.309-1.007-3.521-1.003-4.955,0.006c-1.456,1.02-1.625,2.709-0.327,3.77
	l-0.006,0.006l8.341,6.783l-25.395,0.027H13.76c-2.099,0.002-4.12,1.377-4.515,3.126c-0.411,1.772,1.016,3.251,3.205,3.251
	l-0.003,0.008l12.867-0.025L2.29,41.321c-0.029,0.021-0.061,0.044-0.088,0.065c-2.167,1.659-2.867,4.424-1.501,6.162
	c1.388,1.772,4.334,1.783,6.524,0.01l12.528-10.271c0,0-0.183,1.388-0.168,2.212l0.038,0.049c0.015,0.835,0.281,2.46,0.681,3.725
	c0.84,2.686,2.269,5.169,4.244,7.348c2.032,2.246,4.537,4.052,7.427,5.339c3.036,1.343,6.332,2.032,9.752,2.032
	c3.42-0.005,6.715-0.704,9.752-2.065c2.889-1.298,5.395-3.104,7.427-5.361c1.986-2.201,3.409-4.684,4.244-7.37
	c0.423-1.354,0.691-2.731,0.798-4.108C64.049,37.731,64.005,36.366,63.812,35z M41.789,48.318
	c-3.916,0.007-7.539-1.467-10.124-4.097c-1.264-1.287-2.19-2.754-2.765-4.323c-0.561-1.546-0.779-3.183-0.634-4.831
	c0.137-1.614,0.617-3.16,1.388-4.548c0.754-1.366,1.795-2.607,3.07-3.657c2.517-2.043,5.711-3.16,9.052-3.16
	c3.352-0.005,6.546,1.094,9.063,3.138c1.275,1.043,2.314,2.28,3.07,3.646c0.771,1.388,1.253,2.923,1.388,4.548
	c0.142,1.648-0.076,3.284-0.637,4.831c-0.573,1.58-1.501,3.047-2.765,4.334l0.007-0.011C49.317,46.817,45.694,48.318,41.789,48.318z
	"/>
</svg>
