<?xml version="1.0" encoding="utf-8"?>
<!-- Generator: Adobe Illustrator 23.0.5, SVG Export Plug-In . SVG Version: 6.00 Build 0)  -->
<svg version="1.1" id="Layer_1" xmlns="http://www.w3.org/2000/svg" xmlns:xlink="http://www.w3.org/1999/xlink" x="0px" y="0px"
	 viewBox="0 0 64 64" style="enable-background:new 0 0 64 64;" xml:space="preserve">
<style type="text/css">
	.st0{opacity:0.5;fill:#7735BC;enable-background:new    ;}
</style>
<path class="st0" d="M7.1,13.2c-0.1-3.5,2.6-6.7,6.2-6.7h37.4c3.7,0,6.4,3.2,6.2,6.7c-0.1,3.3,0,7.6,1.1,11.2c1.1,3.5,2.9,5.8,5.9,6
	v3.3c-3,0.3-4.8,2.5-5.9,6c-1.1,3.5-1.2,7.8-1.1,11.2c0.1,3.5-2.6,6.7-6.2,6.7H13.3c-3.7,0-6.4-3.2-6.2-6.7c0.1-3.3,0-7.6-1.1-11.2
	c-1.1-3.5-2.9-5.8-5.9-6v-3.3c3-0.3,4.8-2.5,5.9-6C7,20.8,7.2,16.5,7.1,13.2z"/>
</svg>
