<?xml version="1.0" encoding="utf-8"?>
<!-- Generator: Adobe Illustrator 25.1.0, SVG Export Plug-In . SVG Version: 6.00 Build 0)  -->
<svg version="1.1" id="Layer_1" xmlns="http://www.w3.org/2000/svg" xmlns:xlink="http://www.w3.org/1999/xlink" x="0px" y="0px"
	 viewBox="0 0 57.9 64" style="enable-background:new 0 0 57.9 64;" xml:space="preserve">
<style type="text/css">
	.st0{opacity:0.4;fill:#20567F;}
	.st1{opacity:0.4;fill:#1F6C9B;}
	.st2{opacity:0.4;fill:#659AD2;}
</style>
<path class="st0" d="M0.7,48.3c0.3,0.3,0.6,0.6,1,0.8l25.6,14.4c1,0.6,2.3,0.6,3.3,0l25.6-14.4c0.4-0.2,0.7-0.5,1-0.8L29,32
	L0.7,48.3z"/>
<path class="st1" d="M58,17.6c0-0.7-0.2-1.4-0.7-1.9L29,32l28.3,16.3c0.4-0.6,0.7-1.3,0.7-2L58,17.6z"/>
<path class="st2" d="M57.2,15.7c-0.3-0.4-0.6-0.7-1-0.9L30.6,0.4c-1-0.6-2.3-0.6-3.3,0L1.7,14.8c-1,0.6-1.7,1.6-1.7,2.8v28.8
	c0,0.7,0.2,1.4,0.7,2L29,32L57.2,15.7z"/>
</svg>
