<?xml version="1.0" encoding="utf-8"?>
<!-- Generator: Adobe Illustrator 23.0.5, SVG Export Plug-In . SVG Version: 6.00 Build 0)  -->
<svg version="1.1" id="Layer_1" xmlns="http://www.w3.org/2000/svg" xmlns:xlink="http://www.w3.org/1999/xlink" x="0px" y="0px"
	 viewBox="0 0 64 64" style="enable-background:new 0 0 64 64;" xml:space="preserve">
<style type="text/css">
	.st0{opacity:0.6;}
	.st1{fill:none;stroke:#388C46;stroke-width:0.75;stroke-linecap:round;stroke-linejoin:round;}
	.st2{opacity:0.6;fill:#FFFFFF;}
	.st3{fill:#3698CE;}
	.st4{opacity:0.71;fill:#FFFFFF;}
	.st5{fill:#FFFFFF;}
</style>
<g class="st0">
	<path class="st1" d="M0.3625,11.3344"/>
	<polygon class="st2" points="32.781,44.4474 31.7818,43.4141 30.9553,42.6016 30.2275,41.9276 29.5613,41.3513 28.9446,40.8566 
		28.3648,40.4288 27.822,40.0634 27.3039,39.7477 26.7982,39.4718 26.317,39.2398 25.8483,39.0427 25.3795,38.8745 24.9231,38.7383 
		24.4667,38.6293 24.0103,38.5469 23.5538,38.4905 23.0851,38.4589 22.6039,38.4529 22.1105,38.473 21.5924,38.5206 
		21.0373,38.5991 20.4205,38.7152 19.7174,38.8779 17.83,39.4 16.9665,39.6356 16.325,39.7888 15.7822,39.8948 15.3011,39.9645 
		15.0905,39.9835 15.0905,46.6395 34.8202,46.6395 34.2613,46.0356 	"/>
	<path class="st2" d="M34.8202,46.6395l1.4272,1.5132l0.9622,0.9696l0.8018,0.7594l0.7031,0.6201l0.6291,0.5124l0.5798,0.4325
		l0.5428,0.3673l0.5181,0.3144l0.4811,0.2585l0.4688,0.2195l0.4441,0.1775l0.4318,0.1434l0.4194,0.1112l0.4071,0.081l0.4071,0.0541
		l0.3947,0.0267l0.3947,0.0013l0.3947-0.0242l0.3947-0.0495l0.4071-0.0774l0.4071-0.1037l0.4194-0.134l0.4318-0.166l0.4441-0.1997
		l0.4688-0.2415l0.4934-0.2869l0.5181-0.3354l0.5551-0.3958l0.5921-0.4603l0.6538-0.5492l0.7278-0.6552l0.8388-0.8014l1.0609-1.0639
		l0.9884-1.0177L34.8202,46.6395"/>
	<path class="st3" d="M44.8781,54.6999l-0.4873-0.001c-0.0342,0-0.0674-0.002-0.1006-0.0039l-0.8975-0.0967l-1.0137-0.2354
		l-1.0449-0.3818l-1.1006-0.5547l-1.1914-0.7656l-1.3408-1.0518l-1.5879-1.46l-1.0078-1.0186l-4.5337-4.8057l-1.4688-1.3896
		l-1.1763-0.9688l-1.4678-0.9736l-1.2441-0.5869l-1.1387-0.3262l-1.1343-0.126l-1.2524,0.0664l-1.0362,0.1788l-0.6548,0.1543
		l-3.873,1.0039l-1.0781,0.1367l-0.4946,0.0205l-0.4741-0.0088c-0.0347-0.001-0.0693-0.0039-0.1035-0.0068l-0.3701-0.0351
		c-0.0352-0.0029-0.0703-0.0078-0.105-0.0137l-0.3574-0.0596c-0.0376-0.0059-0.0747-0.0137-0.1113-0.0225l-0.3457-0.085
		c-0.0347-0.0088-0.0688-0.0186-0.1025-0.0293l-0.333-0.1074c-0.0381-0.0127-0.0757-0.0264-0.1128-0.042l-0.333-0.1377
		c-0.0337-0.0137-0.0664-0.0283-0.0991-0.0449l-0.333-0.167c-0.0352-0.0176-0.0698-0.0371-0.1035-0.0576l-0.3457-0.209
		c-0.0322-0.0195-0.064-0.04-0.0947-0.0615l-0.3452-0.2461c-0.0308-0.0215-0.0601-0.0449-0.0889-0.0684l-0.3579-0.2979
		c-0.0283-0.0244-0.0562-0.0488-0.0825-0.0742l-0.3701-0.3574c-0.0244-0.0234-0.0483-0.0479-0.0708-0.0732l-0.7612-0.8955
		l-0.7827-1.1523l-0.7559-1.3652l-0.7373-1.6094l-0.7236-1.877l-0.7393-2.2617L4.28,27.527L3.527,24.3981l-0.7496-3.601
		L2.006,16.5275l-0.8242-5.2637c-0.1125-0.8208,0.4617-1.5775,1.2825-1.69c0.8156-0.1118,1.569,0.4546,1.6881,1.2691l0.8115,5.1856
		l1.125,6.0195l1.0947,4.7261l1.0493,3.6152l1.0093,2.7388l0.9722,2.0308l0.9297,1.4473l0.5566,0.6504l0.8228,0.6943l0.7046,0.3584
		l0.7134,0.1729l0.5957,0.0342l1.0718-0.1133l1.0664-0.2412l3.353-0.8965l1.3003-0.2226l1.1572-0.0869l1.1123,0.0332l1.0752,0.1523
		l1.0757,0.2764l1.0781,0.4082l1.1138,0.5596l1.1797,0.7422l1.273,0.9658l1.4512,1.2842l1.8379,1.8408l4.5322,4.7891l1.4336,1.3193
		l1.1396,0.8945l1.3545,0.8271l1.1094,0.4453l1.2012,0.2051l0.3535,0.0029l0.9131-0.1182l0.998-0.3242l0.7646-0.3701l0.8809-0.543
		l1.041-0.7764l1.2979-1.1299l1.8281-1.793l3.6201-3.668l1.631-1.4608l1.3291-1.0166l1.1826-0.7432l1.2774-0.6162
		c0.767-0.3129,1.6425,0.0552,1.9554,0.8222c0.3121,0.7649-0.0531,1.6381-0.8168,1.9532l-0.958,0.4609l-0.9316,0.5879l-1.126,0.8633
		l-1.459,1.3057l-5.4961,5.5068l-1.4541,1.2656l-1.2422,0.9238l-1.1289,0.6934l-1.0537,0.5078l-1.0137,0.3555l-0.9883,0.2197
		L44.8781,54.6999z"/>
	<path class="st4" d="M31.6545,57.9264l-0.5156-1.9316l2.8984-0.7734l0.5156,1.9316L31.6545,57.9264z M35.5197,56.8952
		l-0.5156-1.9316l2.8984-0.7735l0.5156,1.9316L35.5197,56.8952z M39.384,55.8639l-0.5156-1.9316l2.8984-0.7734l0.5156,1.9316
		L39.384,55.8639z M43.2492,54.8327l-0.5156-1.9316l2.8984-0.7734l0.5156,1.9316L43.2492,54.8327z M47.1135,53.8014l-0.5156-1.9316
		l2.8984-0.7734l0.5156,1.9316L47.1135,53.8014z M50.9787,52.7702l-0.5156-1.9316l2.8984-0.7734l0.5156,1.9316L50.9787,52.7702z
		 M54.843,51.7389l-0.5156-1.9316l2.8984-0.7734l0.5156,1.9316L54.843,51.7389z M58.7082,50.7077l-0.5156-1.9316l2.7715-0.7393
		l0.5156,1.9316L58.7082,50.7077z"/>
	<path class="st4" d="M13.2624,48.3796L12.405,46.445l1.8281-0.8106l0.8574,1.9346L13.2624,48.3796z M11.9997,45.531l-1.2153-2.7422
		l1.8281-0.8106l1.2153,2.7422L11.9997,45.531z M10.3791,41.8737l-1.2153-2.7422l1.8281-0.8105l1.2153,2.7422L10.3791,41.8737z
		 M8.7585,38.2175l-1.2158-2.7432l1.8281-0.8106l1.2158,2.7432L8.7585,38.2175z M7.1374,34.5602l-1.2153-2.7426l1.8281-0.8106
		l1.2153,2.7427L7.1374,34.5602z M5.5168,30.9035l-1.2153-2.7427l1.8281-0.8106l1.2153,2.7427L5.5168,30.9035z M3.8962,27.2463
		l-1.2158-2.7427l1.8281-0.8106l1.2158,2.7427L3.8962,27.2463z M2.2751,23.5895l-1.2153-2.7427l1.8281-0.8106l1.2153,2.7427
		L2.2751,23.5895z"/>
	<path class="st5" d="M46.3137,54.987c-1.1059,0.0051-2.0065-0.8873-2.0116-1.9932s0.8873-2.0065,1.9932-2.0116
		c0.0029,0,0.0057,0,0.0086,0h0.0098c1.1059,0.0007,2.0019,0.8978,2.0011,2.0037C48.3141,54.0907,47.4186,54.9863,46.3137,54.987z"
		/>
	<path class="st5" d="M8.0803,36.2126c-1.1059,0.005-2.0065-0.8874-2.0116-1.9933s0.8874-2.0065,1.9933-2.0116
		c0.0027,0,0.0053,0,0.008,0c0.0034-0.0003,0.0068-0.0003,0.0103,0c1.1059,0.0007,2.0019,0.8978,2.0011,2.0037
		C10.0807,35.3164,9.1852,36.2119,8.0803,36.2126z"/>
</g>
</svg>
