<?xml version="1.0" encoding="utf-8"?>
<!-- Generator: Adobe Illustrator 25.1.0, SVG Export Plug-In . SVG Version: 6.00 Build 0)  -->
<svg version="1.1" id="Layer_1" xmlns="http://www.w3.org/2000/svg" xmlns:xlink="http://www.w3.org/1999/xlink" x="0px" y="0px"
	 viewBox="0 0 64 64" style="enable-background:new 0 0 64 64;" xml:space="preserve">
<style type="text/css">
	.st0{opacity:0.4;}
	.st1{fill:#000001;}
</style>
<g class="st0">
	<path class="st1" d="M30.2,25.9c0,2.4-2,4.4-4.4,4.4H4.4c-2.4,0-4.4-2-4.4-4.4V4.4C0,2,2,0,4.4,0h21.4c2.4,0,4.4,2,4.4,4.4
		C30.2,4.4,30.2,25.9,30.2,25.9z"/>
	<path class="st1" d="M64,25.9c0,2.4-2,4.4-4.4,4.4H38.2c-2.4,0-4.4-2-4.4-4.4V4.4c0-2.4,2-4.4,4.4-4.4h21.4C62,0,64,2,64,4.4V25.9z
		"/>
	<path class="st1" d="M30.2,59.6c0,2.4-2,4.4-4.4,4.4H4.4C2,64,0,62,0,59.6V38.1c0-2.4,2-4.4,4.4-4.4h21.4c2.4,0,4.4,2,4.4,4.4
		C30.2,38.1,30.2,59.6,30.2,59.6z"/>
	<path class="st1" d="M64,59.6c0,2.4-2,4.4-4.4,4.4H38.2c-2.4,0-4.4-2-4.4-4.4V38.1c0-2.4,2-4.4,4.4-4.4h21.4c2.4,0,4.4,2,4.4,4.4
		V59.6z"/>
</g>
</svg>
