<?xml version="1.0" encoding="utf-8"?>
<!-- Generator: Adobe Illustrator 23.0.5, SVG Export Plug-In . SVG Version: 6.00 Build 0)  -->
<svg version="1.1" id="Layer_1" xmlns="http://www.w3.org/2000/svg" xmlns:xlink="http://www.w3.org/1999/xlink" x="0px" y="0px"
	 viewBox="0 0 425.2 425.2" style="enable-background:new 0 0 425.2 425.2;" xml:space="preserve">
<style type="text/css">
	.st0{opacity:5.000000e-02;fill:#FFFFFF;}
</style>
<path class="st0" d="M425.2,1.1L425.2,1.1v420.5l-0.2,4.7H9.4L0,426.1l0-212.4l318.9-0.1v-52.6l0.2-0.5l79.5,0v-13.1l1.7-0.1l18.3,0
	l0.1-3.3l4.9-0.1l0.1-0.7l1.1-0.1l0.1-0.1l0.3-0.1l-0.2,0l-0.7-0.1l-0.1-0.4l-2.4-0.1l-0.1-1.5l-9.9-0.1v-6.4l-3.1-0.1h-36.7
	l-0.1-2.4v-24.1l-1.6,0H212.8l-0.2-2.3V1.2l7.2-0.1H425.2"/>
</svg>
