<?xml version="1.0" encoding="utf-8"?>
<!-- Generator: Adobe Illustrator 23.0.5, SVG Export Plug-In . SVG Version: 6.00 Build 0)  -->
<svg version="1.1" id="Layer_1" xmlns="http://www.w3.org/2000/svg" xmlns:xlink="http://www.w3.org/1999/xlink" x="0px" y="0px"
	 viewBox="0 0 64 64" style="enable-background:new 0 0 64 64;" xml:space="preserve">
<style type="text/css">
	.st0{opacity:0.3;}
	.st1{fill:#FFFFFF;}
</style>
<g class="st0">
	<path class="st1" d="M43.8,47.6c6.6-10.2,11.7-27,14.2-36.9c0.2-1-0.2-1.9-1-2.5c0,0,0,0,0,0c-1.2-0.7-2.9-0.1-3.2,1.3
		c-2.1,7.4-7.9,26.4-14,35.7C40.8,46.4,42.2,47.2,43.8,47.6z"/>
	<path class="st1" d="M0,46.7c0,0.6,0.3,1.2,0.7,1.7c2.9,2.8,5.8,5.2,9.3,5.2c7.2,0,11.6-10.8,16.7-10.8c4.6,0,9.3,10.8,16.7,10.8
		c7.1,0,12.3-10.8,16.6-10.8l0,0c0.4,0,0.8,0.1,1.1,0.1c1.5,0.4,2.9-0.6,2.9-2.1v0c0-1-0.7-1.9-1.6-2.2c-0.8-0.2-1.6-0.3-2.5-0.3
		c-7.4,0-11.4,10.5-16.6,10.5c-5.4,0-8.9-10.5-16.6-10.5c-7.6,0-12,10.6-16.7,10.6l0,0c-2,0-4-1.8-6-3.8C2.5,43.6,0,44.6,0,46.7
		L0,46.7z"/>
	<path class="st1" d="M19.5,39.6C16,33.5,11.6,19.2,9.1,10.5C8.7,8.9,6.8,8.2,5.5,9.3c0,0-0.1,0-0.1,0.1c-0.7,0.6-1,1.6-0.7,2.5
		C7.3,20.7,12.9,38.2,16,43C17.3,41.8,18.3,40.8,19.5,39.6z"/>
	<path class="st1" d="M31.3,52.2c-4.1,0-7.4-5-8.2-6.1l-3.2,3.2c2,2.6,5.6,7.6,11.4,7.6l0,0c5,0,7.4-3.3,7.4-3.3
		C37.5,53,35,50.9,35,50.9C34,51.7,32.7,52.2,31.3,52.2z"/>
</g>
</svg>
