<?xml version="1.0" encoding="utf-8"?>
<!-- Generator: Adobe Illustrator 25.1.0, SVG Export Plug-In . SVG Version: 6.00 Build 0)  -->
<svg version="1.1" id="Layer_1" xmlns="http://www.w3.org/2000/svg" xmlns:xlink="http://www.w3.org/1999/xlink" x="0px" y="0px"
	 viewBox="0 0 64 64" style="enable-background:new 0 0 64 64;" xml:space="preserve">
<style type="text/css">
	.st0{opacity:0.3;fill-rule:evenodd;clip-rule:evenodd;fill:#FFFFFF;}
	.st1{opacity:0.3;fill:#FFFFFF;}
</style>
<path class="st0" d="M6.6,52.8c2.3,0,4.1-1.8,4.1-4.1s-1.8-4.1-4.1-4.1c-2.3,0-4.1,1.8-4.1,4.1S4.3,52.8,6.6,52.8L6.6,52.8z
	 M6.6,51.1c-1.3,0-2.4-1.1-2.4-2.4c0-1.3,1.1-2.4,2.4-2.4c1.3,0,2.4,1.1,2.4,2.4C9,50,7.9,51.1,6.6,51.1z M32,8.2
	c2.3,0,4.1-1.8,4.1-4.1S34.3,0,32,0s-4.1,1.8-4.1,4.1S29.8,8.2,32,8.2z M32,6.5c-1.3,0-2.4-1.1-2.4-2.4c0-1.3,1.1-2.4,2.4-2.4
	c1.3,0,2.4,1.1,2.4,2.4C34.4,5.4,33.3,6.5,32,6.5z M32.7,36.5c-1.6,0.4-3.2-0.7-3.5-2.3c-0.4-1.6,0.7-3.2,2.3-3.5c0,0,0,0,0,0
	c1.6-0.4,3.2,0.7,3.5,2.3C35.3,34.6,34.3,36.2,32.7,36.5C32.7,36.5,32.7,36.5,32.7,36.5z"/>
<g>
	<path class="st1" d="M57.4,44.6c-2.3,0-4.1,1.8-4.1,4.1c0,2.3,1.8,4.1,4.1,4.1c2.3,0,4.1-1.8,4.1-4.1h0
		C61.5,46.4,59.7,44.6,57.4,44.6z M57.4,51.1c-1.3,0-2.4-1.1-2.4-2.4c0-1.3,1.1-2.4,2.4-2.4c1.3,0,2.4,1.1,2.4,2.4
		C59.8,50,58.7,51.1,57.4,51.1z"/>
	<path class="st1" d="M41.9,55.6c-0.4-0.2-0.9-0.1-1.2,0.3c-2.5,4.1-5.5,6.4-8.7,6.4c-4.4,0-8.6-4.4-11.2-11.8
		c-0.2-0.4-0.7-0.7-1.1-0.5c-0.4,0.2-0.7,0.7-0.5,1.1C22.1,59.1,26.8,64,32,64c3.8,0,7.4-2.6,10.2-7.2
		C42.4,56.4,42.3,55.8,41.9,55.6z"/>
	<path class="st1" d="M36.1,4.3c0,0.6-0.2,1.2-0.5,1.7c5.9,3.4,10.3,14.6,10.3,27.6c0,5.5-0.8,10.8-2.2,15.4
		c-0.1,0.5,0.1,0.9,0.6,1.1c0.5,0.1,0.9-0.1,1.1-0.6l0,0c1.5-4.7,2.3-10.2,2.3-15.9C47.6,19.8,42.9,7.8,36.1,4.3z"/>
</g>
<path class="st1" d="M46.8,15c4.9,0.1,8.4,1.6,10,4.3c2.2,3.8,0.5,9.6-4.6,15.6c-0.3,0.4-0.3,0.9,0.1,1.2c0.4,0.3,0.9,0.3,1.2-0.1
	l0,0c5.5-6.5,7.4-13,4.8-17.5c-1.9-3.4-6-5.1-11.5-5.2c-0.5,0-0.9,0.4-0.9,0.8C46,14.6,46.4,15,46.8,15z"/>
<path class="st1" d="M8.2,31.5c0.4-0.2,0.6-0.8,0.3-1.2c-2.5-4.4-3-8.2-1.4-11c2.2-3.8,8.1-5.2,15.8-3.8c0.5,0.1,0.9-0.2,1-0.7
	c0.1-0.5-0.2-0.9-0.7-1v0c-8.4-1.5-15,0.1-17.6,4.6c-2,3.4-1.4,7.9,1.4,12.8C7.3,31.6,7.8,31.7,8.2,31.5z"/>
<path class="st1" d="M55.8,50.4c0-0.1-0.1-0.1-0.2-0.2C55.7,50.3,55.8,50.4,55.8,50.4z"/>
<path class="st1" d="M53.8,50.7c-6,3.2-17.7,1.4-28.8-5.1c-4.9-2.8-9.1-6.2-12.4-9.8c-0.3-0.3-0.9-0.4-1.2-0.1
	c-0.3,0.3-0.4,0.9-0.1,1.2l0,0c3.4,3.7,7.8,7.2,12.8,10.1C36,53.9,48.5,55.8,55,52C54.5,51.6,54.1,51.2,53.8,50.7z"/>
<path class="st1" d="M40.5,14.7c-0.1-0.5-0.6-0.8-1-0.7l0,0c-5,1.1-10.2,3.1-15.3,6.1C12,27.1,4,37.4,4.6,45.1
	c0.5-0.3,1.1-0.5,1.7-0.5c-0.3-6.8,7.3-16.4,18.8-23c4.9-2.8,10-4.8,14.8-5.9C40.3,15.6,40.6,15.1,40.5,14.7z"/>
</svg>
