<?xml version="1.0" encoding="utf-8"?>
<!-- Generator: Adobe Illustrator 25.1.0, SVG Export Plug-In . SVG Version: 6.00 Build 0)  -->
<svg version="1.1" id="Layer_1" xmlns="http://www.w3.org/2000/svg" xmlns:xlink="http://www.w3.org/1999/xlink" x="0px" y="0px"
	 viewBox="0 0 64 64" style="enable-background:new 0 0 64 64;" xml:space="preserve">
<style type="text/css">
	.st0{opacity:0.5;fill-rule:evenodd;clip-rule:evenodd;fill:#E24242;enable-background:new    ;}
</style>
<path class="st0" d="M64,31.8v-0.2l-0.1-0.2l-0.2-0.2L63.5,31l-0.3-0.2l-0.4-0.2l-0.5-0.2L61,30.2l-1.7-0.4l-0.5-0.1l-0.4-0.1
	l-0.3-0.1L58,29.2l-0.2-0.1l-0.1-0.2l-0.1-0.2l-0.1-0.3l-0.1-0.6l-0.2-1l-0.3-1.6V25v-0.2l0.1-0.2l0.1-0.2l0.2-0.2l0.3-0.3l0.7-0.6
	l1.9-1.4l0.4-0.4l0.4-0.3l0.3-0.3l0.2-0.3l0.1-0.3v-0.2v-0.2l-0.1-0.4l-0.1-0.2l-0.1-0.2L61.1,19l-0.3-0.1L60.5,19h-0.4h-0.5
	L59,19.1l-1.2,0.2l-1.2,0.2l-0.5,0.1h-0.4h-0.4H55l-0.2-0.1l-0.2-0.1l-0.2-0.1L54.3,19L54,18.6l-0.7-1.1l-0.8-1.2l-0.1-0.2v-0.2
	v-0.2v-0.2l0.1-0.3l0.1-0.3l0.2-0.4l0.5-0.9l1-1.6l0.3-0.5l0.2-0.5l0.2-0.4l0.1-0.4V9.9V9.6L55,9.4l-0.1-0.2l-0.3-0.3l-0.2-0.1
	L54.1,9h-0.2h-0.3l-0.4,0.1l-0.4,0.2l-0.5,0.2l-1,0.6L49.8,11l-0.4,0.2L49,11.5l-0.3,0.1l-0.3,0.1h-0.2H48h-0.2l-0.3-0.2L47,11.1
	l-0.9-0.6l-1.2-0.8l-0.1-0.1l-0.1-0.2l-0.1-0.2L44.5,9V8.7V8.3V7.9l0.2-1.1L44.9,5L45,4.4V3.9V3.5l-0.1-0.3l-0.1-0.3l-0.1-0.2
	l-0.2-0.1l-0.4-0.2L44,2.3h-0.2h-0.2l-0.3,0.1L43,2.6l-0.3,0.3l-0.3,0.4l-0.7,0.9l-1.4,1.9L40,6.4l-0.3,0.3l-0.2,0.2L39.3,7
	l-0.2,0.1h-0.2h-0.3L38.1,7L37,6.8l-1.2-0.2l-0.5-0.1l-0.2-0.1l-0.2-0.1l-0.2-0.1L34.8,6l-0.1-0.2l-0.1-0.3l-0.1-0.4l-0.3-1
	l-0.4-1.8l-0.2-0.6l-0.2-0.5l-0.2-0.4L33,0.5l-0.2-0.2l-0.2-0.2L32.4,0h-0.2h-0.4h-0.2l-0.2,0.1l-0.2,0.2L31,0.5l-0.2,0.3l-0.2,0.4
	l-0.2,0.5L30.2,3l-0.4,1.7l-0.1,0.5l-0.1,0.4l-0.1,0.3L29.2,6l-0.1,0.2l-0.2,0.1l-0.2,0.1l-0.3,0.1l-0.6,0.1l-1,0.2l-1.6,0.3H25
	h-0.2L24.7,7l-0.2-0.1l-0.2-0.2L24,6.4l-0.6-0.7l-1.4-2l-0.4-0.4l-0.3-0.4L21,2.6l-0.3-0.2l-0.3-0.1h-0.2H20l-0.4,0.1l-0.2,0.1
	l-0.2,0.1l-0.1,0.2L19,3.1v0.4v0.4v0.5L19.1,5l0.2,1.2l0.2,1.2l0.1,0.5v0.4v0.4V9l-0.1,0.2l-0.1,0.2l-0.1,0.2L19,9.7L18.6,10
	l-1.1,0.7l-1.2,0.8l-0.2,0.1h-0.2h-0.2h-0.2l-0.3-0.1H15l-0.4-0.2l-0.9-0.5l-1.6-1l-0.5-0.3l-0.5-0.2l-0.4-0.2L10.4,9h-0.3H9.9
	L9.7,9.1L9.5,9.2L9.2,9.5L9.1,9.7L9,9.9v0.3v0.3l0.1,0.4l0.2,0.4l0.2,0.5l0.6,1l0.9,1.5l0.2,0.4l0.2,0.4l0.1,0.3l0.1,0.3v0.2v0.2
	v0.2l-0.2,0.3L11.1,17l-0.6,0.9l-0.8,1.2l-0.1,0.1l-0.2,0.1l-0.2,0.1L9,19.5H8.7H8.3H7.9l-1.1-0.2L5,19.1L4.4,19H3.9H3.5l-0.3,0.1
	l-0.3,0.1l-0.2,0.1l-0.1,0.2l-0.2,0.4L2.3,20v0.2v0.2l0.1,0.3L2.6,21l0.3,0.3l0.4,0.3l0.9,0.7l1.9,1.4L6.4,24l0.3,0.3l0.2,0.2
	L7,24.7l0.1,0.2v0.2v0.3L7,25.9L6.8,27l-0.2,1.2l-0.1,0.5l-0.1,0.2l-0.1,0.2l-0.1,0.2L6,29.2l-0.2,0.1l-0.3,0.1l-0.4,0.1l-1,0.3
	l-1.8,0.4l-0.6,0.2l-0.5,0.2l-0.4,0.2L0.5,31l-0.2,0.2l-0.2,0.2L0,31.6v0.2v0.4v0.2l0.1,0.2l0.2,0.2L0.5,33l0.3,0.2l0.4,0.2l0.5,0.2
	L3,33.8l1.7,0.4l0.5,0.1l0.4,0.1l0.3,0.1L6,34.8l0.2,0.1l0.1,0.2l0.1,0.2l0.1,0.3l0.1,0.6l0.2,1l0.3,1.6V39v0.2L7,39.3l-0.1,0.2
	l-0.2,0.2L6.4,40l-0.7,0.6l-2,1.4l-0.4,0.4l-0.4,0.3L2.6,43l-0.2,0.3l-0.1,0.3v0.2V44l0.1,0.4l0.1,0.2l0.1,0.2l0.2,0.1L3.1,45h0.4
	h0.4h0.5L5,44.9l1.2-0.2l1.2-0.2l0.5-0.1h0.4h0.4H9l0.2,0.1l0.2,0.1l0.2,0.1L9.7,45l0.3,0.4l0.7,1.1l0.8,1.2l0.1,0.2v0.2v0.2v0.2
	l-0.1,0.3V49l-0.2,0.4l-0.5,0.9l-1,1.6l-0.3,0.5l-0.2,0.5l-0.2,0.4L9,53.6v0.3v0.2l0.1,0.2l0.1,0.2l0.3,0.3l0.2,0.1L9.9,55h0.3h0.3
	l0.4-0.1l0.4-0.2l0.5-0.2l1-0.6l1.5-0.9l0.4-0.2l0.4-0.2l0.3-0.1l0.3-0.1h0.2h0.2h0.2l0.3,0.2l0.5,0.4l0.9,0.6l1.2,0.8l0.1,0.1
	l0.1,0.2l0.1,0.2l0.1,0.2v0.3v0.4v0.4l-0.2,1.1L19.1,59L19,59.6v0.5v0.4l0.1,0.3l0.1,0.3l0.1,0.2l0.2,0.1l0.3,0.1l0.3,0.1h0.2h0.2
	l0.3-0.1l0.3-0.2l0.3-0.3l0.3-0.4l0.7-0.9l1.4-1.9l0.3-0.3l0.3-0.3l0.2-0.2l0.2-0.1l0.2-0.1h0.2h0.3l0.5,0.1l1.1,0.2l1.2,0.2
	l0.5,0.1l0.2,0.1l0.2,0.1l0.2,0.1l0.1,0.2l0.1,0.2l0.1,0.3l0.1,0.4l0.3,1l0.4,1.8l0.2,0.6l0.2,0.5l0.2,0.4l0.2,0.3l0.2,0.2l0.2,0.2
	l0.2,0.1h0.2h0.4h0.2l0.2-0.1l0.2-0.2l0.2-0.2l0.2-0.3l0.2-0.4l0.2-0.5l0.3-1.2l0.4-1.7l0.1-0.5l0.1-0.4l0.1-0.3l0.1-0.2l0.1-0.2
	l0.2-0.1l0.2-0.1l0.3-0.1l0.6-0.1l1-0.2l1.6-0.3h0.2h0.2l0.2,0.1l0.2,0.1l0.2,0.2l0.3,0.3l0.6,0.7l1.4,1.9l0.4,0.4l0.3,0.4l0.3,0.3
	l0.3,0.2l0.3,0.1h0.2h0.2l0.3-0.1l0.3-0.1l0.2-0.1l0.1-0.2l0.1-0.3l0.1-0.3V60v-0.5L44.9,59l-0.2-1.2l-0.2-1.2l-0.1-0.5v-0.4v-0.4
	V55l0.1-0.2l0.1-0.2l0.1-0.2l0.2-0.2l0.4-0.3l1.1-0.7l1.2-0.8l0.2-0.1H48h0.2h0.2l0.3,0.1l0.3,0.1l0.4,0.2l0.9,0.5l1.6,1l0.5,0.3
	l0.5,0.2l0.4,0.2l0.4,0.1H54h0.2l0.2-0.1l0.2-0.1l0.3-0.3l0.1-0.2l0.1-0.2v-0.2v-0.3L55,53.2l-0.2-0.4l-0.2-0.5l-0.6-1l-0.9-1.5
	l-0.2-0.4L52.5,49l-0.1-0.3l-0.1-0.3v-0.2V48v-0.2l0.2-0.3l0.4-0.5l0.6-0.9l0.8-1.2l0.1-0.1l0.2-0.1l0.2-0.1l0.2-0.1h0.3h0.4h0.4
	l1.1,0.2L59,45l0.6,0.1h0.5h0.4l0.3-0.1l0.3-0.1l0.2-0.1l0.1-0.2l0.1-0.3l0.1-0.3v-0.2v-0.2l-0.1-0.3L61.4,43l-0.3-0.3l-0.4-0.3
	l-0.9-0.7l-1.9-1.4L57.6,40l-0.3-0.3l-0.2-0.2L57,39.3l-0.1-0.2v-0.2v-0.3l0.1-0.5l0.2-1.1l0.2-1.2l0.1-0.5l0.1-0.2l0.1-0.2l0.1-0.2
	l0.2-0.1l0.2-0.1l0.3-0.1l0.4-0.1l1-0.3l1.8-0.4l0.6-0.2l0.5-0.2l0.4-0.2l0.3-0.2l0.2-0.2l0.2-0.2l0.1-0.2V32L64,31.8L64,31.8z
	 M14.4,17.5l0.1-0.4l0.1-0.4l0.2-0.4L15,16l0.2-0.3l0.3-0.3l0.4-0.3l0.4-0.3l0.4-0.2l0.4-0.1l0.4-0.1h0.4h0.4l0.4,0.1l0.4,0.1
	l0.4,0.2l0.4,0.3l0.4,0.3l0.3,0.3l0.2,0.3l0.2,0.4l0.1,0.3l0.1,0.4l0.1,0.3v0.4v0.4l-0.1,0.3V19l-0.1,0.3l-0.2,0.4L20.7,20l-0.3,0.3
	L20,20.7L19.6,21l-0.4,0.2l-0.4,0.1l-0.4,0.1H18h-0.4l-0.4-0.1l-0.4-0.1L16.2,21l-0.4-0.3l-0.4-0.3l-0.3-0.3l-0.2-0.3l-0.2-0.3
	l-0.2-0.4l-0.1-0.4l-0.1-0.4v-0.4L14.4,17.5z M21.4,46.5l-0.1,0.3l-0.1,0.4l-0.1,0.3L20.9,48l-0.2,0.3l-0.3,0.3L20,48.9l-0.4,0.3
	l-0.4,0.2l-0.4,0.1l-0.4,0.1H18h-0.4l-0.4-0.1l-0.4-0.1l-0.4-0.2L15.8,49l-0.4-0.3l-0.3-0.3L14.9,48l-0.2-0.3l-0.2-0.4V47l-0.1-0.4
	v-0.4v-0.4l0.1-0.4l0.1-0.4l0.2-0.4l0.2-0.3l0.2-0.3l0.3-0.3l0.4-0.3l0.4-0.3l0.4-0.2l0.4-0.1l0.4-0.1h0.4h0.4l0.4,0.1l0.4,0.1
	l0.4,0.2l0.4,0.3l0.4,0.3l0.3,0.3l0.2,0.3l0.2,0.4l0.1,0.3l0.1,0.4l0.1,0.3v0.4L21.4,46.5z M42.3,42l-0.7,0.6L41,43.2l-0.6,0.5
	l-0.7,0.5L39,44.6L38.3,45l-0.7,0.3l-0.8,0.3l-0.7,0.2L35.4,46l-0.7,0.2H34l-0.7,0.1h-0.7h-0.7h-0.7l-0.7-0.1l-0.7-0.1H29l-0.7-0.2
	l-0.8-0.2l-0.8-0.3L26,45.1l-0.7-0.4l-0.7-0.4l-0.7-0.4l-0.7-0.5l-0.7-0.6l-0.7-0.6l-0.6-0.7l-0.5-0.6l-0.5-0.7l-0.4-0.7l-0.4-0.7
	L19,38.1l-0.3-0.7l-0.3-0.8l-0.2-0.7L18,35.2l-0.1-0.7l-0.1-0.7l-0.1-0.7v-0.7v-0.7V31l0.1-0.7l0.1-0.7l0.1-0.7l0.2-0.7l0.2-0.8
	l0.3-0.8l0.3-0.7l0.4-0.7l0.4-0.7l0.5-0.7l0.5-0.7l0.6-0.7l0.6-0.7l0.7-0.6l0.6-0.5l0.7-0.5l0.7-0.4l0.7-0.4l0.7-0.4l0.7-0.3
	l0.8-0.3l0.7-0.2l0.7-0.2l0.7-0.1l0.7-0.1l0.7-0.1h0.7h0.7h0.7l0.7,0.1l0.7,0.1l0.7,0.2l0.7,0.2l0.8,0.3l0.8,0.3l0.7,0.3l0.7,0.4
	l0.7,0.4l0.7,0.5l0.6,0.5l0.7,0.6l0.6,0.6l0.6,0.7l0.5,0.6l0.5,0.7l0.4,0.7l0.4,0.7l0.3,0.7l0.3,0.8l0.3,0.8l0.2,0.7l0.2,0.7
	l0.1,0.7l0.1,0.7l0.1,0.7V32v0.7l-0.1,0.7l-0.1,0.7L46,34.8l-0.2,0.7l-0.2,0.8l-0.3,0.8L45,37.9l-0.4,0.7l-0.4,0.7L43.9,40l-0.5,0.7
	l-0.6,0.7L42.3,42z M49.6,46.3v0.4L49.5,47l-0.1,0.3l-0.1,0.3L49.1,48l-0.2,0.3l-0.3,0.3l-0.4,0.3l-0.4,0.3l-0.4,0.2L47,49.5
	l-0.4,0.1h-0.4h-0.4l-0.4-0.1L45,49.4l-0.4-0.2L44.1,49l-0.4-0.3l-0.3-0.3L43.2,48L43,47.7l-0.2-0.4L42.7,47l-0.1-0.4v-0.4v-0.4
	l0.1-0.4l0.1-0.4l0.2-0.4l0.2-0.3l0.2-0.3l0.3-0.3l0.4-0.3l0.4-0.3l0.4-0.2l0.4-0.1l0.4-0.1h0.4h0.4l0.4,0.1l0.4,0.1l0.4,0.2
	l0.4,0.3l0.4,0.3l0.3,0.3l0.2,0.3l0.2,0.4l0.1,0.3l0.1,0.3l0.1,0.3V46v0.1L49.6,46.3z M49.6,18v0.4l-0.1,0.3L49.4,19l-0.1,0.3
	l-0.2,0.4L48.9,20l-0.3,0.3l-0.4,0.3l-0.4,0.3l-0.4,0.2L47,21.3l-0.4,0.1h-0.4h-0.4l-0.4-0.1L45,21.2L44.5,21l-0.4-0.3l-0.4-0.3
	l-0.3-0.3l-0.2-0.3L43,19.5l-0.2-0.4l-0.1-0.4l-0.1-0.4v-0.4v-0.4l0.1-0.4l0.1-0.4l0.2-0.4l0.2-0.3l0.2-0.3l0.3-0.3l0.4-0.3l0.4-0.3
	l0.4-0.2l0.4-0.1l0.4-0.1h0.4h0.4l0.4,0.1l0.4,0.1l0.4,0.2l0.4,0.3l0.4,0.3l0.3,0.3L49,16l0.2,0.4l0.1,0.3l0.1,0.3l0.1,0.3v0.4v0.1
	L49.6,18z"/>
</svg>
