<?xml version="1.0" encoding="utf-8"?>
<!-- Generator: Adobe Illustrator 23.0.5, SVG Export Plug-In . SVG Version: 6.00 Build 0)  -->
<svg version="1.1" id="Layer_1" xmlns="http://www.w3.org/2000/svg" xmlns:xlink="http://www.w3.org/1999/xlink" x="0px" y="0px"
	 viewBox="0 0 64 64" style="enable-background:new 0 0 64 64;" xml:space="preserve">
<style type="text/css">
	.st0{opacity:0.7;}
	.st1{fill:url(#SVGID_1_);}
	.st2{fill-rule:evenodd;clip-rule:evenodd;fill:#FFFFFF;}
	.st3{fill-rule:evenodd;clip-rule:evenodd;fill:url(#SVGID_2_);}
	.st4{fill:#8C8C8C;enable-background:new    ;}
	.st5{fill-rule:evenodd;clip-rule:evenodd;fill:#2E3436;}
	.st6{fill-rule:evenodd;clip-rule:evenodd;fill:url(#SVGID_3_);}
	.st7{fill-rule:evenodd;clip-rule:evenodd;fill:url(#SVGID_4_);}
	.st8{fill-rule:evenodd;clip-rule:evenodd;}
	.st9{fill:#FFFFFF;}
	.st10{fill:url(#SVGID_5_);}
	.st11{fill:url(#SVGID_6_);}
	.st12{fill:url(#SVGID_7_);}
	.st13{fill:url(#SVGID_8_);}
	.st14{fill:url(#SVGID_9_);}
	.st15{fill-rule:evenodd;clip-rule:evenodd;fill:url(#SVGID_10_);}
	.st16{fill-rule:evenodd;clip-rule:evenodd;fill:url(#SVGID_11_);}
</style>
<g class="st0">
	<linearGradient id="SVGID_1_" gradientUnits="userSpaceOnUse" x1="44.3169" y1="38.3521" x2="40.4785" y2="46.6734">
		<stop  offset="0" style="stop-color:#6E3D09"/>
		<stop  offset="0.2424" style="stop-color:#EA8113"/>
		<stop  offset="0.6212" style="stop-color:#5C3307"/>
		<stop  offset="1" style="stop-color:#E07C12"/>
	</linearGradient>
	<path class="st1" d="M50.4462,43.7608c-0.1558-0.5287,0.1465-1.0835,0.6752-1.2393c0.0302-0.0089,0.0599-0.002,0.0902-0.0079
		l0.013-0.0258c-4.847-3.5461-13.7819-6.1263-13.7819-6.1263c-0.1218-0.0567-0.2252-0.0793-0.3337-0.1112
		c-0.5295,0.2627-0.8826,0.642-1.1133,1.0303c0.0888,0.2234,0.2404,0.4516,0.4819,0.6553c0,0,7.6412,5.4779,13.4441,7.1465
		l0.5958-1.1865C50.4955,43.8494,50.4612,43.8118,50.4462,43.7608z"/>
	<path id="path6446" class="st2" d="M6.6699,27.0239c0,1.6477-1.1131,2.9835-2.4862,2.9835c-1.3731,0-2.4862-1.3357-2.4863-2.9834
		c0,0,0-0.0001,0-0.0001c0-1.6477,1.1131-2.9835,2.4862-2.9835c1.3731,0,2.4862,1.3357,2.4863,2.9834
		C6.6699,27.0238,6.6699,27.0238,6.6699,27.0239z"/>
	<path id="path4361" class="st2" d="M19.8398,23.9898c0,1.0527-0.8533,1.9061-1.906,1.9061s-1.9061-0.8533-1.9061-1.906
		c0,0,0-0.0001,0-0.0001c0-1.0527,0.8533-1.9061,1.906-1.9061S19.8398,22.937,19.8398,23.9898
		C19.8398,23.9897,19.8398,23.9897,19.8398,23.9898z"/>
	<path id="path6466" class="st2" d="M32.0292,24.5377c0,1.2358-1.0018,2.2376-2.2375,2.2376c-1.2358,0-2.2376-1.0018-2.2376-2.2375
		c0,0,0-0.0001,0-0.0001c0-1.2358,1.0018-2.2376,2.2375-2.2376c1.2358,0,2.2376,1.0018,2.2376,2.2375
		C32.0292,24.5376,32.0292,24.5376,32.0292,24.5377z"/>
	<radialGradient id="SVGID_2_" cx="2.6455" cy="24.8197" r="11.112" gradientUnits="userSpaceOnUse">
		<stop  offset="0" style="stop-color:#5B676B"/>
		<stop  offset="1" style="stop-color:#141718"/>
	</radialGradient>
	<path class="st3" d="M11.9828,26.5679c-0.0008-0.001-0.0015-0.002-0.0021-0.003c-2.7721-3.8414-7.2306-5.3591-9.9583-3.3901
		c-2.7276,1.969-2.6915,6.6793,0.0806,10.5206c0.0008,0.001,0.0015,0.002,0.0021,0.0029c2.7721,3.8414,7.2306,5.3592,9.9583,3.3902
		C14.7909,35.1195,14.7549,30.4093,11.9828,26.5679z M6.6699,27.0239c0,1.6477-1.1131,2.9835-2.4862,2.9835
		c-1.373,0.0001-2.4862-1.3356-2.4862-2.9834v-0.0001c-0.0001-1.6477,1.113-2.9835,2.4861-2.9836
		c1.3731,0,2.4863,1.3357,2.4863,2.9834C6.6699,27.0238,6.6699,27.0238,6.6699,27.0239z"/>
	<path id="path6466_1_" class="st2" d="M32.0292,24.5377c0,1.2358-1.0018,2.2376-2.2375,2.2376
		c-1.2358,0-2.2376-1.0018-2.2376-2.2375c0,0,0-0.0001,0-0.0001c0-1.2358,1.0018-2.2376,2.2375-2.2376
		c1.2358,0,2.2376,1.0018,2.2376,2.2375C32.0292,24.5376,32.0292,24.5376,32.0292,24.5377z"/>
	<path id="path6971" class="st4" d="M57.5701,44.6262c0.7835-0.2308,1.6058,0.2172,1.8366,1.0007
		c0.2308,0.7835-0.2172,1.6058-1.0007,1.8366c-0.7835,0.2308-1.6058-0.2172-1.8366-1.0007
		C56.3386,45.6793,56.7866,44.857,57.5701,44.6262z"/>
	<path class="st5" d="M19.1358,22.5217c0.4263,0.3495,0.704,0.8737,0.704,1.468v0.0001c0,1.0527-0.8533,1.9061-1.906,1.9062
		c-0.7167,0-1.3334-0.4002-1.659-0.9848c-0.0149,0.1157-0.0353,0.2297-0.0353,0.3495c0,1.5206,1.2327,2.7533,2.7533,2.7533
		c1.5206,0,2.7533-1.2327,2.7533-2.7533C21.746,23.789,20.5884,22.5977,19.1358,22.5217z"/>
	<radialGradient id="SVGID_3_" cx="25.7341" cy="19.6628" r="16.7686" gradientUnits="userSpaceOnUse">
		<stop  offset="0" style="stop-color:#FFFFFF"/>
		<stop  offset="1" style="stop-color:#B9B9B0"/>
	</radialGradient>
	<path class="st6" d="M29.465,18.3221c-3.7074,0-6.7127,3.0055-6.7127,6.7128c0,3.7073,3.0054,6.7127,6.7127,6.7127
		c3.7074,0,6.7128-3.0055,6.7128-6.7127C36.1779,21.3276,33.1724,18.3221,29.465,18.3221z M31.0347,29.2615
		c-1.785,0-3.2321-1.4471-3.2321-3.2321c0-0.1406,0.0239-0.2746,0.0414-0.4105c-0.1791-0.3218-0.29-0.6868-0.29-1.0812v-0.0001
		c0-1.2358,1.0018-2.2376,2.2375-2.2377c0.5381,0,1.0253,0.1978,1.4112,0.5143c1.7052,0.0892,3.064,1.4877,3.064,3.2152
		C34.2668,27.8144,32.8198,29.2615,31.0347,29.2615z"/>
	<path class="st5" d="M31.2028,22.8143c0.5005,0.4104,0.8264,1.0256,0.8264,1.7233c0,0,0,0,0,0.0001
		c0.0001,1.2358-1.0017,2.2376-2.2375,2.2376c-0.8414,0.0001-1.5656-0.4699-1.9476-1.1564
		c-0.0174,0.1359-0.0414,0.2699-0.0414,0.4105c0,1.785,1.4471,3.2321,3.2321,3.2321c1.7851,0,3.2321-1.4471,3.2321-3.2321
		C34.2668,24.302,32.908,22.9035,31.2028,22.8143z"/>
	<radialGradient id="SVGID_4_" cx="25.0231" cy="26.6907" r="38.6711" gradientUnits="userSpaceOnUse">
		<stop  offset="0" style="stop-color:#857C63"/>
		<stop  offset="1" style="stop-color:#221F19"/>
	</radialGradient>
	<path class="st7" d="M40.7196,37.4363c0.1747-0.8461,0.1745-1.5497-0.5363-2.4671c-1.1655-1.5044-4.4751-2.4241-4.4751-2.4241
		s1.2741,1.0566,2.02,2.02c-2.8248,2.1812-7.6512,3.9388-17.1289,2.0432c7.1339,2.5189,12.6615,3.074,15.8317,1.2776
		c0.0179,0.0162,0.0278,0.0342,0.0467,0.0501c0,0,2.7805,1.9894,6.2561,3.9356c-9.504,6.9542-24.263,1.8312-32.196-4.0837
		c0.5464-0.139,1.0624-0.3649,1.5256-0.6993c2.6489-1.9122,2.6685-6.4038,0.1299-10.1801c0.072-0.1107,0.1143-0.2171,0.1756-0.3265
		c0.8549,2.0815,2.897,3.5498,5.2868,3.5498c2.3936,0,4.4377-1.4735,5.29-3.5605c0.6969,2.9638,3.3429,5.1765,6.5194,5.1765
		c3.7074,0,6.7128-3.0055,6.7128-6.7127c0-2.3814-1.2482-4.4606-3.1178-5.6523C47.3286,17.1078,50.6289,8.9998,51.0661,7.6879
		c1.7978,16.3188-0.8202,26.1532-5.5741,31.6368C43.7862,38.5666,42.1044,37.9268,40.7196,37.4363z M17.6556,18.6951
		c2.6222,0,4.8084,1.7753,5.483,4.182c0.3992-1.1688,1.1039-2.1818,2.0297-2.96C16.7086,19.356,13.056,11.858,13.056,11.858
		l-0.221,9.5035C13.8491,19.7633,15.6227,18.6951,17.6556,18.6951z M38.2019,36.3312c-0.0562,0.0703-0.0985,0.1406-0.1688,0.211
		c0.0985,0.0281,0.1969,0.0562,0.3234,0.0985C38.2722,36.5281,38.2301,36.4296,38.2019,36.3312z"/>
	<path class="st8" d="M35.9957,37.2806c0.2307-0.3883,0.5838-0.7676,1.1133-1.0303c0.1085,0.0318,0.2119,0.0544,0.3337,0.1112
		c0,0,0.2256,0.0661,0.5915,0.1792c0.0695-0.07,0.1118-0.1398,0.1676-0.2096c0.0282,0.0985,0.0703,0.1969,0.1547,0.3095
		c0.0003,0.0003,0.0006,0.0007,0.0009,0.001c0.5765,0.1821,1.3958,0.4511,2.3607,0.7924c0.0003-0.0018,0.0009-0.004,0.0013-0.0058
		c0.1828-0.8439,0.1688-1.5471-0.5344-2.4612c-1.1111-1.4346-4.1771-2.3347-4.4584-2.405c0.1407,0.1125,1.294,1.097,1.9972,1.9971
		c-2.8269,2.194-7.6509,3.9379-17.1302,2.0534c7.1305,2.5174,12.6577,3.066,15.8362,1.2798
		c0.0015-0.0009,0.0028-0.0021,0.0044-0.003C36.2222,37.6972,36.0781,37.4878,35.9957,37.2806z"/>
	<path id="path6983" class="st9" d="M51.1214,42.5216c0.5287-0.1557,1.0835,0.1466,1.2393,0.6753s-0.1466,1.0835-0.6753,1.2393
		c-0.5287,0.1557-1.0835-0.1466-1.2393-0.6753S50.5927,42.6773,51.1214,42.5216z"/>
	<g>
		<linearGradient id="SVGID_5_" gradientUnits="userSpaceOnUse" x1="51.1398" y1="41.8051" x2="52.9487" y2="40.1311">
			<stop  offset="0" style="stop-color:#BDBDBD"/>
			<stop  offset="0.3333" style="stop-color:#E2E2E2"/>
			<stop  offset="0.6667" style="stop-color:#A3A3A3"/>
			<stop  offset="1" style="stop-color:#DDDDDD"/>
		</linearGradient>
		<path class="st10" d="M50.8039,41.8293c-0.0802,0.0502-0.1655,0.1226-0.2512,0.1983c0.1353,0.0903,0.268,0.1811,0.3983,0.2728
			L50.8039,41.8293z"/>
		<linearGradient id="SVGID_6_" gradientUnits="userSpaceOnUse" x1="51.5036" y1="42.2875" x2="52.647" y2="41.2295">
			<stop  offset="0" style="stop-color:#BDBDBD"/>
			<stop  offset="0.3333" style="stop-color:#E2E2E2"/>
			<stop  offset="0.6667" style="stop-color:#A3A3A3"/>
			<stop  offset="1" style="stop-color:#DDDDDD"/>
		</linearGradient>
		<path class="st11" d="M51.2116,42.5136c0.0853-0.0168,0.1705-0.0276,0.2542-0.0222l-0.0439-0.0281l-0.2662-0.0227
			c0.0221,0.016,0.047,0.0312,0.0688,0.0472L51.2116,42.5136z"/>
		<linearGradient id="SVGID_7_" gradientUnits="userSpaceOnUse" x1="49.7821" y1="44.5578" x2="52.4692" y2="42.0712">
			<stop  offset="0" style="stop-color:#BDBDBD"/>
			<stop  offset="0.3333" style="stop-color:#E2E2E2"/>
			<stop  offset="0.6667" style="stop-color:#A3A3A3"/>
			<stop  offset="1" style="stop-color:#DDDDDD"/>
		</linearGradient>
		<path class="st12" d="M49.1784,45.1783l0.4783-0.1809c-0.1717-0.0522-0.3449-0.1083-0.5193-0.1666
			C49.1398,44.9523,49.147,45.0717,49.1784,45.1783z"/>
		<linearGradient id="SVGID_8_" gradientUnits="userSpaceOnUse" x1="56.7558" y1="41.4957" x2="79.9872" y2="19.9973">
			<stop  offset="0" style="stop-color:#BDBDBD"/>
			<stop  offset="0.3333" style="stop-color:#E2E2E2"/>
			<stop  offset="0.6667" style="stop-color:#A3A3A3"/>
			<stop  offset="1" style="stop-color:#DDDDDD"/>
		</linearGradient>
		<path class="st13" d="M55.4195,45.0244l-3.1642-2.0271c0.0372,0.0654,0.0832,0.1243,0.1053,0.1996
			c0.1557,0.5287-0.1466,1.0835-0.6753,1.2393c-0.4777,0.1407-0.9612-0.1039-1.1679-0.5402l-0.5958,1.1865
			c-0.0143-0.0041-0.0294-0.0099-0.0439-0.0141l0.2016,0.1949l4.4817,1.636C54.6379,46.1846,54.9263,45.5229,55.4195,45.0244z"/>
	</g>
	<radialGradient id="SVGID_9_" cx="61.266" cy="51.8165" r="6.4648" gradientUnits="userSpaceOnUse">
		<stop  offset="0" style="stop-color:#696969"/>
		<stop  offset="1" style="stop-color:#000000"/>
	</radialGradient>
	<path class="st14" d="M57.306,44.1622c-3.5528,0.3261-3.8015,5.4167-0.1302,6.8214C60.7123,52.3368,64,54.0311,64,54.0311
		C62.313,48.3045,61.7147,43.7576,57.306,44.1622z M58.406,47.4636c-0.7836,0.2308-1.6058-0.2173-1.8366-1.0007
		c-0.2308-0.7836,0.2173-1.6058,1.0007-1.8366c0.7836-0.2308,1.6058,0.2173,1.8366,1.0007
		C59.6376,46.4105,59.1895,47.2327,58.406,47.4636z"/>
	<radialGradient id="SVGID_10_" cx="13.7991" cy="20.6004" r="12.985" gradientUnits="userSpaceOnUse">
		<stop  offset="0" style="stop-color:#FFFFFF"/>
		<stop  offset="1" style="stop-color:#B9B9B0"/>
	</radialGradient>
	<path class="st15" d="M22.7523,25.035c0-0.7595,0.1538-1.4771,0.3863-2.1579c-0.6745-2.4067-2.8608-4.182-5.483-4.182
		c-3.1582,0-5.7184,2.5601-5.7184,5.7183c0,3.1581,2.5602,5.7183,5.7184,5.7183c2.3936,0,4.4377-1.4735,5.29-3.5605
		C22.8291,26.0759,22.7523,25.5658,22.7523,25.035z M18.9928,28.0138c-1.5206,0-2.7533-1.2327-2.7533-2.7533
		c0-0.1197,0.0204-0.2337,0.0353-0.3495c-0.1526-0.2742-0.2471-0.5852-0.2471-0.9212v-0.0001c0-1.0527,0.8533-1.9061,1.9061-1.9061
		c0.4584,0,0.8733,0.1684,1.2021,0.438c1.4526,0.076,2.6102,1.2673,2.6102,2.7388C21.746,26.7811,20.5133,28.0138,18.9928,28.0138z"
		/>
	<radialGradient id="SVGID_11_" cx="2.6455" cy="24.8197" r="11.112" gradientUnits="userSpaceOnUse">
		<stop  offset="0" style="stop-color:#5B676B"/>
		<stop  offset="1" style="stop-color:#141718"/>
	</radialGradient>
	<path class="st16" d="M11.9828,26.5679c-0.0008-0.001-0.0015-0.002-0.0021-0.003c-2.7721-3.8414-7.2306-5.3591-9.9583-3.3901
		c-2.7276,1.969-2.6915,6.6793,0.0806,10.5206c0.0008,0.001,0.0015,0.002,0.0021,0.0029c2.7721,3.8414,7.2306,5.3592,9.9583,3.3902
		C14.7909,35.1195,14.7549,30.4093,11.9828,26.5679z M6.6699,27.0239c0,1.6477-1.1131,2.9835-2.4862,2.9835
		c-1.373,0.0001-2.4862-1.3356-2.4862-2.9834v-0.0001c-0.0001-1.6477,1.113-2.9835,2.4861-2.9836
		c1.3731,0,2.4863,1.3357,2.4863,2.9834C6.6699,27.0238,6.6699,27.0238,6.6699,27.0239z"/>
</g>
</svg>
