<?xml version="1.0" encoding="utf-8"?>
<!-- Generator: Adobe Illustrator 25.1.0, SVG Export Plug-In . SVG Version: 6.00 Build 0)  -->
<svg version="1.1" id="Layer_1" xmlns="http://www.w3.org/2000/svg" xmlns:xlink="http://www.w3.org/1999/xlink" x="0px" y="0px"
	 viewBox="0 0 64 64" style="enable-background:new 0 0 64 64;" xml:space="preserve">
<style type="text/css">
	.st0{opacity:0.4;fill:#3D97C4;}
	.st1{opacity:0.4;fill:#D34848;}
</style>
<path class="st0" d="M24.1,49.5c0,0-2.5,1.5,1.7,1.9c5,0.6,7.7,0.5,13.3-0.5c1.1,0.7,2.3,1.3,3.5,1.7C30.1,57.9,14.3,52.3,24.1,49.5
	L24.1,49.5z M22.5,42.5c0,0-2.7,2,1.5,2.5c5.5,0.5,9.7,0.6,17.1-0.9c0.7,0.7,1.6,1.3,2.6,1.6C28.6,50.2,11.7,46.2,22.5,42.5
	L22.5,42.5z M52,54.7c0,0,1.8,1.5-2,2.7c-7.2,2.1-30,2.8-36.4,0c-2.2-1,2-2.4,3.4-2.6c1.4-0.3,2.1-0.3,2.1-0.3
	c-2.5-1.7-16.4,3.5-7.1,5C37.5,63.7,58.6,57.7,52,54.7L52,54.7z M25.2,35.3c0,0-11.6,2.8-4.2,3.7c3.2,0.4,9.5,0.3,15.4-0.1
	c4.8-0.4,9.6-1.3,9.6-1.3s-1.7,0.7-2.9,1.5c-11.9,3.1-34.6,1.7-28.1-1.5C20.6,34.9,25.2,35.3,25.2,35.3L25.2,35.3z M46.1,46.9
	c12-6.2,6.4-12.2,2.6-11.4c-1,0.2-1.4,0.4-1.4,0.4s0.3-0.6,1.1-0.9c7.6-2.7,13.6,8-2.5,12.2C45.9,47.2,46,47.1,46.1,46.9L46.1,46.9z
	 M26.4,63.8C38,64.5,55.6,63.4,56,57.9c0,0-0.9,2.1-9.5,3.7c-9.8,1.8-22,1.6-29.2,0.4C17.3,62.1,18.8,63.4,26.4,63.8L26.4,63.8z"/>
<path class="st1" d="M38.8,0c0,0,6.6,6.7-6.3,16.9c-10.4,8.2-2.4,12.9,0,18.3c-6.1-5.5-10.5-10.3-7.5-14.7
	C29.4,13.8,41.5,10.6,38.8,0z M35.4,30.7c3.1,3.5-0.9,6.7-0.9,6.7s7.9-4.1,4.3-9.1c-3.3-4.8-5.9-7.2,8-15.2
	C46.9,13.1,25,18.6,35.4,30.7z"/>
</svg>
