<?xml version="1.0" encoding="utf-8"?>
<!-- Generator: Adobe Illustrator 23.0.5, SVG Export Plug-In . SVG Version: 6.00 Build 0)  -->
<svg version="1.1" id="Layer_1" xmlns="http://www.w3.org/2000/svg" xmlns:xlink="http://www.w3.org/1999/xlink" x="0px" y="0px"
	 viewBox="0 0 64 64" style="enable-background:new 0 0 64 64;" xml:space="preserve">
<style type="text/css">
	.st0{opacity:0.4;}
</style>
<g class="st0">
	<path d="M45.2,61.7l1.5-1.1c0.5,0.9,1.2,1.3,1.9,1.3c1.2,0,1.8-0.6,1.8-2.4v-8.4h2.2v8.5c0,2.3-1.1,4.1-3.7,4.1
		C47.2,63.8,46,63.1,45.2,61.7z"/>
	<path d="M54.9,62l1.3-1.5c0.9,0.8,2.1,1.4,3.2,1.4c1.4,0,2.2-0.6,2.2-1.6s-0.8-1.3-1.9-1.8L58,57.8c-1.2-0.5-2.5-1.5-2.5-3.3
		c0-2,1.7-3.5,4.2-3.5c1.5,0,2.9,0.6,3.8,1.6L62.4,54c-0.8-0.7-1.6-1.1-2.7-1.1c-1.2,0-1.9,0.6-1.9,1.5c0,1,0.9,1.3,2,1.8l1.7,0.7
		c1.5,0.6,2.5,1.6,2.5,3.4c0,2-1.7,3.7-4.5,3.7C57.7,63.8,56.1,63.1,54.9,62z"/>
</g>
</svg>
