<?xml version="1.0" encoding="utf-8"?>
<!-- Generator: Adobe Illustrator 25.1.0, SVG Export Plug-In . SVG Version: 6.00 Build 0)  -->
<svg version="1.1" id="Layer_1" xmlns="http://www.w3.org/2000/svg" xmlns:xlink="http://www.w3.org/1999/xlink" x="0px" y="0px"
	 viewBox="0 0 64 64" style="enable-background:new 0 0 64 64;" xml:space="preserve">
<style type="text/css">
	.st0{opacity:0.35;}
	.st1{fill:#FFFFFF;}
</style>
<g class="st0">
	<path class="st1" d="M32,9C19.4,9,9.1,19.3,9.1,32S19.4,54.9,32,54.9S55,44.6,55,32S44.7,9,32,9z M41.6,29.2L41.6,29.2
		c-3.7,0-6.8-2.9-6.8-6.6s2.9-6.7,6.6-6.8c3.7,0,6.7,2.9,6.8,6.6l0.1,0.1C48.3,26.2,45.3,29.2,41.6,29.2z"/>
	<path class="st1" d="M54.9,15.8c3.7,0,6.7-3,6.7-6.7l0,0c0-3.7-3-6.7-6.7-6.7s-6.7,3-6.7,6.7S51.2,15.8,54.9,15.8z"/>
	<path class="st1" d="M61,18.4L59.7,19c7.2,15.3,0.6,33.6-14.7,40.7C29.7,66.9,11.4,60.3,4.3,45c-3.5-7.4-3.8-15.7-1.1-23.4
		C6,13.9,11.6,7.7,19,4.3c4.3-2,9.2-3,14-2.9c4.2-0.1,8.4,1,12.1,3l0.6-1.2C41.8,1,37.4,0,33,0c-5-0.1-10,0.9-14.6,3
		C10.7,6.6,4.8,13,1.9,21.1S-0.6,37.8,3,45.6C8.5,57.2,20,64,32.1,64c4.5,0,9.1-1,13.5-3C61.6,53.5,68.5,34.4,61,18.4z"/>
</g>
</svg>
