<?xml version="1.0" encoding="utf-8"?>
<!-- Generator: Adobe Illustrator 23.0.5, SVG Export Plug-In . SVG Version: 6.00 Build 0)  -->
<svg version="1.1" id="Layer_1" opacity="0.4" xmlns="http://www.w3.org/2000/svg" xmlns:xlink="http://www.w3.org/1999/xlink"
	 x="0px" y="0px" viewBox="0 0 64 64" style="enable-background:new 0 0 64 64;" xml:space="preserve">
<style type="text/css">
	.st0{fill:#002B64;}
	.st1{fill:#C49A6C;}
</style>
<g>
	<path class="st0" d="M62.6,10.7L62.6,10.7c-1,0.1-0.7,0.4-2.8,0.9C57.6,12.2,55,12,52.7,13c-6.9,2.9-8.3,12.9-14.6,16.4
		c-4.7,2.7-9.5,2.9-13.7,4.2c-2.8,0.9-5.9,2.7-8.4,4.9c-2,1.7-2,3.2-4.1,5.3C9.5,46.1,3,43.9,0,47.4c1,1,1.4,1.2,3.3,1
		c-0.4,0.7-2.7,1.4-2.2,2.5c0.5,1.1,6.1,1.9,11.1-1.1c2.4-1.4,4.2-3.5,7.9-4c4.8-0.6,10.3,0.4,15.7,1.2c-0.8,2.4-2.5,4.1-3.8,6
		c-0.4,0.4,0.8,0.5,2.2,0.2c2.5-0.6,4.3-1.1,6.2-2.2c2.3-1.4,2.7-4.8,5.6-5.6c1.6,2.4,5.9,3,8.6,1.1c-2.4-0.7-3-5.7-2.2-7.9
		c0.8-2.1,1.5-5.4,2.3-8.2c0.8-3,1.1-6.7,2.1-8.2c1.5-2.3,3.1-3.1,4.6-4.3c1.4-1.3,2.7-2.5,2.7-5.5C64,11.2,63.5,10.7,62.6,10.7z
		 M52.6,46.1c-1.5,0.4-4.2-0.2-4.9-1.3c0.4-1.6,2.2-3,3.1-4c0,0,0,0,0,0l0,0c0,0,0,0,0,0C50.9,42.3,51.8,45.3,52.6,46.1z M59.8,18.1
		c-1.4,0.9-2.8,1.8-3.8,3.3c-1,1.5-1.6,6.7-3.1,11.7c-1.3,4.4-3.3,8.7-6.7,10.6c-0.4-0.9,0-2.6-0.7-3.1c-0.5,1.3-1,2.6-1.6,3.7
		c-2,3.8-4.9,6.7-9.9,7.6c2.4-3.2,4.6-6.5,4.7-12c-1.7,0.4-1.6,4.3-3.3,5.3c-1.1,0.1-2.2,0.1-3.3,0.1c-4.6-0.3-9.3-1.7-13.6-0.3
		c-2.9,0.9-5.3,3.1-7.8,4.2c-2.9,1.3-5.1,1.8-8.7,1.3l0.1,0c-0.5-0.6,2.6-1.4,2.5-2.8c-1.4-0.2-2.2,0.2-3.5-0.4
		c0.1-0.2,0.3-0.5,0.6-0.6c2.2-1.6,8.6-0.4,10.4-2.1c1.1-1,1.7-2.1,2.5-3.2c0.7-1,1.4-2,2.5-2.9c0.4-0.3,0.8-0.7,1.3-1
		c1.9-1.3,4.2-2.4,6.4-3.2c3.1-1.1,6.2-1.2,9.5-2.4c2-0.8,4.2-1.7,6.1-3.1c0.4-0.3,0.8-0.7,1.2-1c5.2-5,6.2-13.9,14.2-14.7
		c1-0.1,1.8-0.1,2.5-0.1c0.8,0,1.6-0.1,2.4-0.6c0.2,0.8,0.6,1.2,2.2,1.3C62.7,16,61.4,17.1,59.8,18.1z"/>
	<path class="st1" d="M60.7,12.6c-0.8,0.5-1.5,0.6-2.4,0.6c-0.7,0-1.5,0-2.5,0.1c-8,0.8-9.1,9.7-14.2,14.7c-0.4,0.4-0.8,0.7-1.2,1
		c-1.8,1.3-4,2.3-6.1,3.1c-3.3,1.3-6.4,1.4-9.5,2.4c-2.3,0.8-4.6,2-6.4,3.2c-0.5,0.3-0.9,0.6-1.3,1c-1.1,0.9-1.8,1.9-2.5,2.9
		c-0.7,1.1-1.4,2.1-2.5,3.2c-1.7,1.7-8.1,0.5-10.4,2.1c-0.3,0.2-0.4,0.4-0.6,0.6c1.2,0.6,2.1,0.2,3.5,0.4c0.2,1.3-2.9,2.1-2.5,2.8
		l-0.1,0c3.6,0.5,5.8,0,8.7-1.3c2.5-1.1,4.8-3.3,7.8-4.2c4.3-1.4,9,0,13.6,0.3c1.1,0.1,2.2,0.1,3.3-0.1c1.7-1,1.7-4.9,3.3-5.3
		c0,5.5-2.3,8.8-4.7,12c5-0.9,7.9-3.7,9.9-7.6c0.6-1.2,1.1-2.4,1.6-3.7c0.7,0.5,0.3,2.2,0.7,3.1c3.4-1.9,5.4-6.3,6.7-10.6
		c1.5-5.1,2.1-10.3,3.1-11.7c0.9-1.5,2.4-2.4,3.8-3.3c1.5-1.1,2.9-2.2,3.1-4.2C61.3,13.8,61,13.4,60.7,12.6z M53,16.5
		c0.3-1.3,1.3-1.9,3.1-1.8C56.5,16.7,54.1,17.5,53,16.5z M57.3,17c0.5-1.5,1.9-3.1,2.6-3.8c0.3-0.3,0.4-0.1,0.2,0.1l0,0
		c-0.5,0.5-2.1,2.2-2.6,3.7C57.4,17.3,57.2,17.4,57.3,17z M58.2,17.2c0.3-1.6,1.4-2.8,2-3.6c0.3-0.3,0.4-0.2,0.2,0.1l0,0
		c-0.4,0.6-1.7,1.9-2,3.5C58.4,17.4,58.2,17.6,58.2,17.2z M60.8,14L60.8,14C60.8,14,60.8,14,60.8,14L60.8,14
		c-0.3,0.6-0.9,1.5-0.9,3.1c0,0.3-0.2,0.5-0.2,0c0-0.6,0.1-1.1,0.2-1.5c-0.2,0.5-0.4,1-0.4,1.7c0,0.3-0.3,0.4-0.2,0
		c0.2-1.6,0.8-2.6,1.4-3.4c0,0,0,0,0,0c0.1-0.1,0.2-0.2,0.2-0.1C60.9,13.8,60.9,13.9,60.8,14z"/>
	<path class="st1" d="M50.8,40.7C50.8,40.7,50.8,40.7,50.8,40.7C50.8,40.7,50.8,40.7,50.8,40.7L50.8,40.7z"/>
	<path class="st1" d="M47.7,44.7c0.7,1.1,3.3,1.7,4.9,1.3c-0.8-0.7-1.7-3.8-1.8-5.3C49.9,41.7,48.1,43.2,47.7,44.7z"/>
	<path class="st0" d="M53,16.5c1.1,1,3.5,0.2,3.1-1.8C54.3,14.6,53.3,15.2,53,16.5z"/>
	<path class="st0" d="M60.8,13.8c0,0-0.1,0-0.2,0.1c0,0,0,0,0,0c-0.5,0.9-1.2,1.8-1.4,3.4c0,0.4,0.2,0.3,0.2,0
		c0.1-0.6,0.2-1.2,0.4-1.7c-0.1,0.4-0.2,0.9-0.2,1.5c0,0.4,0.2,0.2,0.2,0c0-1.6,0.6-2.4,0.9-3.1l0,0c0,0,0,0,0,0l0,0
		C60.9,13.9,60.9,13.8,60.8,13.8z"/>
	<path class="st0" d="M60.5,13.7c0.2-0.2,0.1-0.4-0.2-0.1c-0.6,0.8-1.7,2-2,3.6c-0.1,0.4,0.2,0.3,0.2,0C58.7,15.6,60,14.2,60.5,13.7
		L60.5,13.7z"/>
	<path class="st0" d="M60.1,13.3c0.2-0.2,0.1-0.4-0.2-0.1c-0.7,0.7-2.1,2.3-2.6,3.8c-0.1,0.4,0.1,0.3,0.2,0
		C58,15.5,59.6,13.8,60.1,13.3L60.1,13.3z"/>
</g>
</svg>
