<?xml version="1.0" encoding="utf-8"?>
<!-- Generator: Adobe Illustrator 25.1.0, SVG Export Plug-In . SVG Version: 6.00 Build 0)  -->
<svg version="1.1" id="Layer_1" xmlns="http://www.w3.org/2000/svg" xmlns:xlink="http://www.w3.org/1999/xlink" x="0px" y="0px"
	 viewBox="0 0 64 64" style="enable-background:new 0 0 64 64;" xml:space="preserve">
<style type="text/css">
	.st0{opacity:0.4;}
	.st1{fill:url(#SVGID_1_);}
	.st2{fill:url(#SVGID_2_);}
	.st3{fill:url(#SVGID_3_);}
	.st4{fill:url(#SVGID_4_);}
	.st5{fill:url(#SVGID_5_);}
	.st6{fill:url(#SVGID_6_);}
	.st7{fill:url(#SVGID_7_);}
</style>
<g class="st0">
	
		<linearGradient id="SVGID_1_" gradientUnits="userSpaceOnUse" x1="-0.1506" y1="61.8843" x2="0.5637" y2="61.8843" gradientTransform="matrix(-50.7531 103.536 103.536 50.7531 -6385.7466 -3140.7161)">
		<stop  offset="0.3" style="stop-color:#3E863D"/>
		<stop  offset="0.5" style="stop-color:#55934F"/>
		<stop  offset="0.8" style="stop-color:#5AAD45"/>
	</linearGradient>
	<path class="st1" d="M15.1,31.3l-9-16.4l-0.1,0c-0.9,0.5-1.5,1.5-1.5,2.6v29c0,0.7,0.2,1.3,0.6,1.8L15.1,31.3z"/>
	
		<linearGradient id="SVGID_2_" gradientUnits="userSpaceOnUse" x1="-0.1506" y1="62.3017" x2="0.5637" y2="62.3017" gradientTransform="matrix(-50.7531 103.536 103.536 50.7531 -6385.7466 -3140.7161)">
		<stop  offset="0.3" style="stop-color:#3E863D"/>
		<stop  offset="0.5" style="stop-color:#55934F"/>
		<stop  offset="0.8" style="stop-color:#5AAD45"/>
	</linearGradient>
	<path class="st2" d="M59.9,15.4l-8.6,15.7L60.7,47c0-0.2,0.1-0.4,0.1-0.5v-29C60.7,16.7,60.4,16,59.9,15.4z"/>
	
		<linearGradient id="SVGID_3_" gradientUnits="userSpaceOnUse" x1="-0.5987" y1="65.2243" x2="-0.1352" y2="65.2243" gradientTransform="matrix(142.4074 -105.2221 -105.2221 -142.4074 6943.3921 9275.9092)">
		<stop  offset="0.57" style="stop-color:#3E863D"/>
		<stop  offset="0.72" style="stop-color:#619857"/>
		<stop  offset="1" style="stop-color:#76AC64"/>
	</linearGradient>
	<path class="st3" d="M51.4,31.1l8.6-15.7c0,0,0,0,0-0.1c0,0-0.1-0.1-0.1-0.1c-0.1-0.1-0.1-0.1-0.2-0.2c0,0,0,0-0.1,0
		c-0.1-0.1-0.2-0.1-0.3-0.2l-19-11l-6.1-3.5c-0.2-0.1-0.5-0.2-0.8-0.3c0,0,0,0,0,0l-0.1,0.1L51.4,31.1z"/>
	
		<linearGradient id="SVGID_4_" gradientUnits="userSpaceOnUse" x1="-0.5987" y1="65.1401" x2="-0.1352" y2="65.1401" gradientTransform="matrix(142.4074 -105.2221 -105.2221 -142.4074 6943.3921 9275.9092)">
		<stop  offset="0.57" style="stop-color:#3E863D"/>
		<stop  offset="0.72" style="stop-color:#619857"/>
		<stop  offset="1" style="stop-color:#76AC64"/>
	</linearGradient>
	<path class="st4" d="M33,64l-18-32.7l-10,17.1c0,0,0,0,0,0c0.1,0.1,0.2,0.2,0.3,0.4c0,0,0.1,0.1,0.1,0.1C5.7,48.9,5.8,49,6,49.1
		c0,0,0,0,0,0l21.9,12.6l3.2,1.9c0.3,0.2,0.5,0.3,0.8,0.3c0,0,0,0,0,0c0.1,0,0.2,0,0.4,0.1c0,0,0.1,0,0.1,0c0.1,0,0.2,0,0.3,0
		c0.1,0,0.1,0,0.2,0C33,64,33,64,33,64z"/>
	
		<linearGradient id="SVGID_5_" gradientUnits="userSpaceOnUse" x1="-1.1292" y1="64.8214" x2="-0.7089" y2="64.8214" gradientTransform="matrix(129.8891 0 0 -129.8891 152.7418 8467.084)">
		<stop  offset="0.16" style="stop-color:#6BBF47"/>
		<stop  offset="0.38" style="stop-color:#79B461"/>
		<stop  offset="0.47" style="stop-color:#75AC64"/>
		<stop  offset="0.7" style="stop-color:#659E5A"/>
		<stop  offset="0.9" style="stop-color:#3E863D"/>
	</linearGradient>
	<path class="st5" d="M33.4,63.9c0.1,0,0.2-0.1,0.3-0.1c0,0,0,0,0.1,0c0.1,0,0.2-0.1,0.3-0.2l25.1-14.5c0.8-0.5,1.3-1.2,1.5-2.1
		l-9.3-15.9L33.4,63.9z"/>
	
		<linearGradient id="SVGID_6_" gradientUnits="userSpaceOnUse" x1="-1.1292" y1="65.0667" x2="-0.7089" y2="65.0667" gradientTransform="matrix(129.8891 0 0 -129.8891 152.7418 8467.084)">
		<stop  offset="0.16" style="stop-color:#6BBF47"/>
		<stop  offset="0.38" style="stop-color:#79B461"/>
		<stop  offset="0.47" style="stop-color:#75AC64"/>
		<stop  offset="0.7" style="stop-color:#659E5A"/>
		<stop  offset="0.9" style="stop-color:#3E863D"/>
	</linearGradient>
	<path class="st6" d="M33.2,0.2l-0.1-0.1C33,0,32.8,0,32.6,0h0c-0.1,0-0.1,0-0.2,0c0,0-0.1,0-0.1,0c-0.1,0-0.1,0-0.2,0
		c-0.1,0-0.1,0-0.2,0c-0.1,0-0.1,0-0.2,0.1c0,0-0.1,0-0.1,0c-0.1,0-0.1,0.1-0.2,0.1c0,0,0,0,0,0c-0.1,0-0.2,0.1-0.3,0.1L10.9,12
		l-4.8,2.8l9,16.4L33.2,0.2z"/>
	
		<linearGradient id="SVGID_7_" gradientUnits="userSpaceOnUse" x1="-1.1292" y1="64.9401" x2="-0.7089" y2="64.9401" gradientTransform="matrix(129.8891 0 0 -129.8891 152.7418 8467.084)">
		<stop  offset="0.16" style="stop-color:#6BBF47"/>
		<stop  offset="0.38" style="stop-color:#79B461"/>
		<stop  offset="0.47" style="stop-color:#75AC64"/>
		<stop  offset="0.7" style="stop-color:#659E5A"/>
		<stop  offset="0.9" style="stop-color:#3E863D"/>
	</linearGradient>
	<path class="st7" d="M15.1,31.3L33,64c0,0,0,0,0,0c0.1,0,0.2,0,0.3-0.1c0,0,0,0,0.1,0c0,0,0,0,0,0c0,0,0,0,0,0l17.9-32.8L33.2,0.2
		L15.1,31.3z"/>
</g>
</svg>
