<?xml version="1.0" encoding="utf-8"?>
<!-- Generator: Adobe Illustrator 23.0.5, SVG Export Plug-In . SVG Version: 6.00 Build 0)  -->
<svg version="1.1" id="Layer_1" shape-rendering="crispEdges"
	 xmlns="http://www.w3.org/2000/svg" xmlns:xlink="http://www.w3.org/1999/xlink" x="0px" y="0px" viewBox="0 0 16 16"
	 style="enable-background:new 0 0 16 16;" xml:space="preserve">
<style type="text/css">
	.st0{opacity:0.4;}
	.st1{fill:#2B0D0D;}
	.st2{fill:#702323;}
	.st3{fill:#FF4D4D;}
	.st4{fill:#511717;}
	.st5{fill:#471818;}
	.st6{fill:#350B0B;}
</style>
<g class="st0">
	<path class="st1" d="M10.4444,14.7222H5.5556V13.5H3.1111v-1.2222H1.8889v-1.2222H0.6667V7.3889h1.2222v3.6667h1.2222v1.2222
		h2.4444V13.5h4.8889V14.7222z M12.8889,13.5h-2.4444v-1.2222h2.4444V13.5z M14.1111,12.2778h-1.2222v-1.2222h1.2222V12.2778z
		 M15.3333,11.0556h-1.2222V7.3889h-1.2222V6.1667h-1.2222V4.9444h-1.2222V3.7222H9.2222V2.5H6.7778V1.2778h2.4444V2.5h1.2222
		v1.2222h1.2222v1.2222h1.2222v1.2222h1.2222v1.2222h1.2222V11.0556z M3.1111,7.3889H1.8889V6.1667h1.2222V7.3889z M4.3333,6.1667
		H3.1111V4.9444h1.2222V6.1667z M5.5556,4.9444H4.3333V3.7222h1.2222V4.9444z M6.7778,3.7222H5.5556V2.5h1.2222V3.7222z"/>
	<path class="st2" d="M8,12.2778H5.5556V9.8333H4.3333V8.6111H3.1111V6.1667h1.2222V4.9444h2.4444V2.5h2.4444v1.2222H8v1.2222
		h1.2222v2.4444H8v1.2222h1.2222v2.4444H8V12.2778z M5.5556,8.6111h1.2222V7.3889H5.5556V8.6111z M4.3333,11.0556H3.1111V9.8333
		H1.8889V8.6111h1.2222v1.2222h1.2222V11.0556z"/>
	<path class="st3" d="M12.8889,12.2778h-1.2222v-1.2222h1.2222V12.2778z M5.5556,11.0556H4.3333V9.8333h1.2222V11.0556z
		 M9.2222,8.6111H8V7.3889h1.2222V8.6111z M3.1111,8.6111H1.8889V7.3889h1.2222V8.6111z M12.8889,7.3889h-1.2222V6.1667h1.2222
		V7.3889z M6.7778,4.9444H5.5556V3.7222h1.2222V4.9444z"/>
	<path class="st4" d="M4.3333,9.8333H3.1111V8.6111h1.2222V9.8333z M6.7778,8.6111H5.5556V7.3889h1.2222V8.6111z M9.2222,4.9444H8
		V3.7222h1.2222V4.9444z"/>
	<path class="st5" d="M10.4444,13.5H5.5556v-1.2222H3.1111v-1.2222H1.8889V9.8333h1.2222v1.2222h2.4444v1.2222h3.6667V3.7222h1.2222
		v1.2222h1.2222v1.2222h-1.2222v1.2222h3.6667v3.6667h-2.4444v1.2222h-1.2222V13.5z M11.6667,9.8333h1.2222V8.6111h-1.2222V9.8333z"
		/>
	<path class="st6" d="M9.2222,12.2778H8v-1.2222h1.2222V12.2778z M12.8889,9.8333h-1.2222V8.6111h1.2222V9.8333z M11.6667,7.3889
		h-1.2222V6.1667h1.2222V7.3889z"/>
</g>
</svg>
