<?xml version="1.0" encoding="utf-8"?>
<!-- Generator: Adobe Illustrator 23.0.5, SVG Export Plug-In . SVG Version: 6.00 Build 0)  -->
<svg version="1.1" id="Layer_1" xmlns="http://www.w3.org/2000/svg" xmlns:xlink="http://www.w3.org/1999/xlink" x="0px" y="0px"
	 viewBox="0 0 64 64" style="enable-background:new 0 0 64 64;" xml:space="preserve">
<style type="text/css">
	.st0{opacity:0.4;fill:#D6D6D6;}
</style>
<path class="st0" d="M5.1,32c0,3.8,0.5,7.6,1.4,11.2c1,3.6,2.4,7,4.3,10.2c0.2,0.3,0.3,0.6,0.3,0.9c0.1,0.2,0.1,0.5,0,0.7
	c-0.1,0.2-0.2,0.3-0.3,0.5l-0.4,0.4l-2.7,1.6c-1.3-2-2.5-4.2-3.6-6.4c-1-2.1-1.7-4.2-2.4-6.4c-0.6-2.1-1.1-4.2-1.3-6.4
	c-0.6-4.4-0.6-8.9,0-13.3c0.3-2.2,0.7-4.3,1.3-6.4c0.6-2.2,1.4-4.3,2.4-6.4c1-2,2.2-3.9,3.5-5.8L10.3,8l0.4,0.4
	C10.9,8.5,11,8.7,11,8.9c0.1,0.2,0.1,0.5,0,0.7c-0.1,0.3-0.2,0.6-0.3,0.9C7,17,5.1,24.5,5.1,32z M15.9,43.3c0-0.6,0.1-1.3,0.4-1.9
	c0.2-0.6,0.6-1.1,1-1.5c1.4-1.4,3.5-1.8,5.3-1c1.2,0.5,2.1,1.4,2.6,2.6c0.3,0.6,0.4,1.2,0.4,1.9c0,0.7-0.1,1.3-0.4,1.9
	c-0.2,0.6-0.6,1.1-1,1.5c-0.4,0.4-1,0.8-1.5,1c-1.2,0.5-2.6,0.5-3.8,0c-0.6-0.2-1.1-0.6-1.5-1C16.4,45.8,15.9,44.6,15.9,43.3z
	 M50.5,28.2l-1.7,3L43.2,28l-1.1-0.7c-0.3-0.2-0.6-0.5-0.9-0.8c0.3,0.8,0.4,1.6,0.3,2.4v6.4h-3.2v-6.4c0-0.8,0.1-1.7,0.4-2.4
	c-0.5,0.6-1.1,1.2-1.9,1.5l-5.6,3.2l-1.7-3l5.5-3.2c0.7-0.5,1.6-0.8,2.4-0.9c-0.9-0.1-1.7-0.4-2.4-0.9l-5.7-3.2l1.7-3l5.6,3.2
	l1.1,0.8c0.3,0.3,0.6,0.5,0.9,0.9c-0.3-0.8-0.4-1.6-0.3-2.5v-6.4h3.2v6.4c0,0.4,0,0.9,0,1.3c-0.1,0.4-0.2,0.8-0.3,1.2
	c0.5-0.6,1.2-1.2,1.9-1.6l5.6-3.2l1.7,3l-5.5,3.2l-1.2,0.6c-0.4,0.2-0.8,0.3-1.2,0.3c0.4,0.1,0.8,0.2,1.2,0.3
	c0.4,0.2,0.8,0.4,1.2,0.6L50.5,28.2z M58.8,32c0-3.8-0.5-7.6-1.4-11.2c-1-3.7-2.4-7.2-4.2-10.5c-0.2-0.3-0.3-0.6-0.3-0.9
	c-0.1-0.2-0.1-0.5,0-0.7c0.1-0.2,0.2-0.4,0.3-0.5l0.4-0.4l2.8-1.5c1.3,2,2.5,4.2,3.5,6.4c1,2.1,1.7,4.2,2.4,6.4
	c0.6,2.1,1.1,4.2,1.3,6.4c0.3,2.1,0.4,4.3,0.4,6.4c0,2.1-0.1,4.3-0.4,6.4c-0.3,2.2-0.7,4.3-1.3,6.4c-0.6,2.2-1.4,4.3-2.4,6.4
	c-1,2.2-2.2,4.4-3.5,6.4l-2.7-1.6l-0.4-0.4c-0.1-0.1-0.3-0.3-0.3-0.5c-0.1-0.2-0.1-0.5,0-0.7c0.1-0.3,0.2-0.6,0.3-0.9
	c1.8-3.3,3.2-6.7,4.2-10.3C58.3,39.6,58.8,35.8,58.8,32z"/>
</svg>
