<svg id="Layer_1" data-name="Layer 1" xmlns="http://www.w3.org/2000/svg" width="0.88889in" height="0.88889in" viewBox="0 0 64 64"><defs><style>.cls-1{opacity:0.4;}.cls-2{fill:#c69;fill-rule:evenodd;}.cls-3{fill:#fff;}</style></defs><title>sass</title><g class="cls-1"><path class="cls-2" d="M19.69733,46.85655c-2.15572,2.27869-2.75816,5.13847-1.55531,5.83576,1.11387.6462,3.71156-.12076,5.57086-2.14909a8.93939,8.93939,0,0,0,1.478-2.15457q.11133-.23089.20725-.4676t.17608-.47916a8.19272,8.19272,0,0,0,.06648-4.78252q-.14854.08167-.29267.1594l.005.01A21.66362,21.66362,0,0,0,19.69733,46.85655Z"/><path class="cls-2" d="M32.00007,0A32,32,0,1,0,64,32,32.0001,32.0001,0,0,0,32.00007,0ZM42.43332,28.373C36.886,30.5187,32.29906,30.179,30.4148,29.56067A6.07667,6.07667,0,0,1,26.71033,26.648c-.12-.31238-.32759-.83656,0-1.018.20118-.11143.28141-.08465.82013.50905.51172.5639,2.56885,2.07806,6.47565,1.64013,10.25411-1.14939,16.43-9.11708,14.47867-13.404-1.366-3.00064-9.27053-4.35461-19.1446.56558C17.2866,20.947,16.633,25.89871,16.53012,27.77918c-.28277,5.17246,6.38393,7.89412,9.99021,11.74172.08489.09052.16695.18194.24765.27383a15.39713,15.39713,0,0,1,5.00422-.676c5.83327-.1004,9.12779,3.74509,8.9924,7.18291a4.3766,4.3766,0,0,1-3.05386,3.90086c-.33557.05689-.51782.06662-.56557-.19655-.03317-.181.087-.26529.48067-.509a3.70208,3.70208,0,0,0,1.78158-2.51691c.21054-1.46669-.89078-4.97175-6.50416-5.62737a12.889,12.889,0,0,0-4.89729.28065,11.02568,11.02568,0,0,1-1.08,9.801,10.06794,10.06794,0,0,1-10.84836,4.39706c-1.3584-.37786-3.41006-3.18531-1.64012-7.09773,1.67753-3.70858,8.84532-7.33609,9.82464-7.81814v-.01735c-3.32114-2.85948-11.40041-6.71361-12.53937-12.61-.32287-1.671.46053-5.67027,5.37289-10.265,4.13153-3.86451,9.87763-6.82408,15.1854-8.70978C41.2,6.1448,50.62354,8.01317,52.07259,13.69643,53.49762,19.28449,48.646,25.96976,42.43332,28.373Z"/><path class="cls-3" d="M32.2811,9.31337c-5.30777,1.8857-11.05387,4.84527-15.1854,8.70978-4.91236,4.59473-5.69576,8.594-5.37289,10.265,1.139,5.8964,9.21823,9.75053,12.53937,12.61v.01735c-.97932.48205-8.14711,4.10956-9.82464,7.81814-1.76994,3.91242.28172,6.71987,1.64012,7.09773A10.06794,10.06794,0,0,0,26.926,51.43432a11.02568,11.02568,0,0,0,1.08-9.801,12.889,12.889,0,0,1,4.89729-.28065c5.61338.65562,6.7147,4.16068,6.50416,5.62737A3.70208,3.70208,0,0,1,37.62584,49.497c-.39366.24368-.51384.328-.48067.509.04775.26317.23.25344.56557.19655a4.3766,4.3766,0,0,0,3.05386-3.90086c.13539-3.43782-3.15913-7.28331-8.9924-7.18291a15.39713,15.39713,0,0,0-5.00422.676c-.0807-.09189-.16276-.18331-.24765-.27383-3.60628-3.8476-10.273-6.56926-9.99021-11.74172.10284-1.88047.75648-6.83214,12.81006-12.83843,9.87407-4.92019,17.77861-3.56622,19.1446-.56558,1.95136,4.28693-4.22456,12.25462-14.47867,13.404-3.9068.43793-5.96393-1.07623-6.47565-1.64013-.53872-.5937-.619-.62048-.82013-.50905-.32759.18148-.12.70566,0,1.018a6.07667,6.07667,0,0,0,3.70447,2.91263c1.88426.61835,6.47115.958,12.01852-1.18763,6.21272-2.40328,11.0643-9.08855,9.63927-14.67661C50.62354,8.01317,41.2,6.1448,32.2811,9.31337Zm-6.64045,33.346a8.19272,8.19272,0,0,1-.06648,4.78252q-.0801.24231-.17608.47916-.09594.23662-.20725.4676a8.93939,8.93939,0,0,1-1.478,2.15457c-1.8593,2.02833-4.457,2.79529-5.57086,2.14909-1.20285-.69729-.60041-3.55707,1.55531-5.83576A21.66362,21.66362,0,0,1,25.353,42.82882l-.005-.01Q25.492,42.74121,25.64065,42.65937Z"/></g></svg>