<?xml version="1.0" encoding="utf-8"?>
<!-- Generator: Adobe Illustrator 23.0.5, SVG Export Plug-In . SVG Version: 6.00 Build 0)  -->
<svg version="1.1" id="Layer_1" xmlns="http://www.w3.org/2000/svg" xmlns:xlink="http://www.w3.org/1999/xlink" x="0px" y="0px"
	 viewBox="0 0 64 64" style="enable-background:new 0 0 64 64;" xml:space="preserve">
<style type="text/css">
	.st0{opacity:0.2;}
	.st1{fill:#FFE1C0;}
</style>
<g class="st0">
	<path class="st1" d="M3.6,47.6c-1-0.2-4.5,1.3-3.3,3.3c1.4,2,4.2-0.1,4.5-1.1L3.6,47.6z"/>
	<path class="st1" d="M18.8,56.7L17,55c-1.1,0.1-3.8,2.7-2.1,4.2C16.9,60.6,18.8,57.7,18.8,56.7z"/>
	<path class="st1" d="M63.7,7.1c0.5-0.6,0.4-1.4-0.4-2.1l0,0c-0.8-0.7-1.5-0.7-2.1-0.2L43.6,23.9L54.3,18L63.7,7.1z"/>
	<path class="st1" d="M63.6,15.3c-0.5-0.9-1.2-1.2-1.9-0.8L19.5,37.8c0,0-3.6,1.8-15.1,9.3l1.3,2.3C15.8,45.2,22,41.5,22,41.5
		l41.4-24C64,17,64.1,16.3,63.6,15.3L63.6,15.3z"/>
	<path class="st1" d="M28.7,40c0,0-3.3,3.2-11.2,14.2l2,1.8c10.1-9.1,12.9-12.7,12.9-12.7l12.2-14.1l-12.7,7.4L28.7,40z"/>
</g>
</svg>
