<?xml version="1.0" encoding="utf-8"?>
<!-- Generator: Adobe Illustrator 23.0.5, SVG Export Plug-In . SVG Version: 6.00 Build 0)  -->
<svg version="1.1" id="Layer_1" opacity="0.3" xmlns="http://www.w3.org/2000/svg" xmlns:xlink="http://www.w3.org/1999/xlink"
	 x="0px" y="0px" viewBox="0 0 64 64" style="enable-background:new 0 0 64 64;" xml:space="preserve">
<style type="text/css">
	.st0{fill:#FFFFFF;}
	.st1{fill:#FF3E00;}
</style>
<path class="st0" d="M27.6,56.3c-4.8,1.2-9.9-0.7-12.7-4.7c-1.7-2.4-2.4-5.4-1.9-8.3c0.1-0.5,0.2-0.9,0.3-1.4l0.3-0.9l0.8,0.5
	c1.8,1.3,3.7,2.3,5.9,2.9l0.5,0.2l-0.1,0.5c-0.1,0.8,0.2,1.6,0.6,2.2c0.9,1.2,2.4,1.8,3.8,1.5c0.3-0.1,0.7-0.2,0.9-0.4L40.9,39
	c0.8-0.5,1.2-1.2,1.4-2.1c0.2-0.9-0.1-1.8-0.5-2.5c-0.9-1.2-2.4-1.8-3.8-1.4c-0.3,0.1-0.7,0.2-0.9,0.4l-5.7,3.6c-0.9,0.6-2,1-3,1.3
	c-4.8,1.2-9.9-0.7-12.7-4.7c-1.7-2.4-2.4-5.4-1.8-8.3c0.5-2.8,2.2-5.4,4.7-6.9L33.3,9c0.9-0.6,2-1,3-1.4c4.8-1.2,9.9,0.7,12.7,4.7
	c1.7,2.4,2.4,5.4,1.9,8.3c-0.1,0.5-0.2,0.9-0.4,1.4l-0.3,0.9l-0.8-0.5c-1.8-1.3-3.7-2.3-5.9-2.9l-0.5-0.2l0.1-0.5
	c0.1-0.8-0.2-1.6-0.6-2.2c-0.9-1.2-2.4-1.8-3.8-1.4c-0.3,0.1-0.7,0.2-0.9,0.4L23,25c-0.8,0.5-1.2,1.2-1.4,2.1
	c-0.2,0.9,0.1,1.8,0.5,2.5c0.9,1.2,2.4,1.8,3.8,1.4c0.3-0.1,0.7-0.2,0.9-0.4l5.7-3.6c0.9-0.6,2-1,3-1.4c4.8-1.2,9.9,0.7,12.7,4.7
	c1.7,2.4,2.4,5.4,1.9,8.3c-0.5,2.8-2.2,5.4-4.7,6.9L30.6,55C29.7,55.6,28.7,56,27.6,56.3"/>
<path class="st1" d="M55.2,8.5C49.3,0,37.5-2.5,29.1,2.8l-14.9,9.5c-4.1,2.5-6.9,6.7-7.7,11.4c-0.7,4-0.1,8,1.8,11.5
	c-1.3,2-2.2,4.1-2.5,6.4C4.8,46.6,6,51.6,8.8,55.5c6,8.5,17.7,11,26.1,5.6l14.9-9.5c4.1-2.5,6.9-6.7,7.7-11.4c0.7-4,0.1-8-1.8-11.5
	c1.3-2,2.2-4.1,2.5-6.4C59.2,17.4,58.1,12.4,55.2,8.5z M51,20.7c-0.1,0.5-0.2,0.9-0.4,1.4l-0.3,0.9l-0.8-0.5
	c-1.8-1.3-3.7-2.3-5.9-2.9l-0.5-0.2l0.1-0.5c0.1-0.8-0.2-1.6-0.6-2.2c-0.9-1.2-2.4-1.8-3.8-1.4c-0.3,0.1-0.7,0.2-0.9,0.4L23,25
	c-0.8,0.5-1.2,1.2-1.4,2.1c-0.2,0.9,0.1,1.8,0.5,2.5c0.9,1.2,2.4,1.8,3.8,1.4c0.3-0.1,0.7-0.2,0.9-0.4l5.7-3.6c0.9-0.6,2-1,3-1.4
	c4.8-1.2,9.9,0.7,12.7,4.7c1.7,2.4,2.4,5.4,1.9,8.3c-0.5,2.8-2.2,5.4-4.7,6.9L30.6,55c-0.9,0.6-2,1-3,1.4c-4.8,1.2-9.9-0.7-12.7-4.7
	c-1.7-2.4-2.4-5.4-1.9-8.3c0.1-0.5,0.2-0.9,0.3-1.4l0.3-0.9l0.8,0.5c1.8,1.3,3.7,2.3,5.9,2.9l0.5,0.2l-0.1,0.5
	c-0.1,0.8,0.2,1.6,0.6,2.2c0.9,1.2,2.4,1.8,3.8,1.5c0.3-0.1,0.7-0.2,0.9-0.4L40.9,39c0.8-0.5,1.2-1.2,1.4-2.1
	c0.2-0.9-0.1-1.8-0.5-2.5c-0.9-1.2-2.4-1.8-3.8-1.4c-0.3,0.1-0.7,0.2-0.9,0.4l-5.7,3.6c-0.9,0.6-2,1-3,1.3
	c-4.8,1.2-9.9-0.7-12.7-4.7c-1.7-2.4-2.4-5.4-1.8-8.3c0.5-2.8,2.2-5.4,4.7-6.9L33.3,9c0.9-0.6,2-1,3-1.4c4.8-1.2,9.9,0.7,12.7,4.7
	C50.8,14.8,51.5,17.7,51,20.7z"/>
</svg>
