<?xml version="1.0" encoding="utf-8"?>
<!-- Generator: Adobe Illustrator 23.0.5, SVG Export Plug-In . SVG Version: 6.00 Build 0)  -->
<svg version="1.1" id="Layer_1" xmlns="http://www.w3.org/2000/svg" xmlns:xlink="http://www.w3.org/1999/xlink" x="0px" y="0px"
	 viewBox="0 0 64 64" style="enable-background:new 0 0 64 64;" xml:space="preserve">
<style type="text/css">
	.st0{opacity:0.3;}
	.st1{fill:none;}
	.st2{fill:#FFEC00;}
	.st3{fill:#EACE00;}
	.st4{fill:#CEAB00;}
	.st5{fill:#AD9000;}
	.st6{fill:#F7DF00;}
	.st7{fill:#EDEDED;}
	.st8{fill:#DBC000;}
	.st9{opacity:0.5;}
	.st10{fill:#0A0A0A;}
	.st11{fill:#333333;}
	.st12{fill:#4F4F4F;}
</style>
<g class="st0">
	<path class="st1" d="M35.7,32.4c3,0,5.3-1.2,5.3-2.6v-0.1C41,31.1912,38.6271,32.4,35.7,32.4z"/>
	<path class="st1" d="M30.5817,30.3657c-0.0204-0.0409-0.0564-0.0785-0.0732-0.1201
		C30.5254,30.2872,30.5612,30.3248,30.5817,30.3657z"/>
	<path class="st1" d="M40.3867,50.7407c-0.0043-0.0009-0.0087-0.0021-0.0131-0.0031C40.378,50.7386,40.3823,50.7397,40.3867,50.7407
		z"/>
	<path class="st1" d="M30.8488,30.7812c-0.0081-0.0094-0.0208-0.0175-0.0287-0.0269C30.828,30.7637,30.8406,30.7718,30.8488,30.7812
		z"/>
	<path class="st1" d="M41.4669,50.842c-0.1509,0.008-0.3071,0.0013-0.465-0.0093C41.1605,50.8456,41.3154,50.8484,41.4669,50.842z"
		/>
	<path class="st1" d="M43.0809,50.3351c-0.1888,0.1259-0.3927,0.2308-0.6104,0.3126
		C42.6884,50.5669,42.8911,50.4603,43.0809,50.3351z"/>
	<path class="st1" d="M36.4292,41.5079c0.1418-0.1015,0.292-0.1918,0.4511-0.2686C36.7239,41.3206,36.5672,41.4011,36.4292,41.5079z
		"/>
	<path class="st1" d="M45.8488,35.2812c-0.0081-0.0094-0.0208-0.0175-0.0287-0.0269C45.828,35.2637,45.8406,35.2718,45.8488,35.2812
		z"/>
	<path class="st1" d="M50.7,36.9c3,0,5.3-1.2,5.3-2.7C56,35.6912,53.6271,36.9,50.7,36.9z"/>
	<path class="st1" d="M45.5085,34.7455c0.0168,0.0417,0.0527,0.0792,0.0732,0.1201C45.5613,34.8248,45.5253,34.7872,45.5085,34.7455
		z"/>
	<path class="st1" d="M55.0877,39.0135C55.6625,38.5828,56,38.0625,56,37.5v-0.1C56,38.0208,55.6625,38.5698,55.0877,39.0135z"/>
	<path class="st1" d="M45.4,37.4v0.1c0,1.0898,1.2746,2.0147,3.0797,2.4426C46.6746,39.5125,45.4,38.5726,45.4,37.4z"/>
	<path class="st1" d="M42.3446,50.6874c-0.2031,0.0667-0.4163,0.1148-0.6393,0.1415
		C41.9289,50.8041,42.1407,50.7533,42.3446,50.6874z"/>
	<path class="st1" d="M40,51.7c-1.4676-0.3961-2.7609-1.2655-3.7612-2.3721c0.9692,1.0854,2.2006,1.947,3.5612,2.3721
		c1.6,0.5,3.1,0.3,4.1-0.4c0.0173-0.0202,0.0285-0.0444,0.0453-0.0649C42.8491,51.9275,41.5921,52.1976,40,51.7z"/>
	<path class="st1" d="M40.4255,52.8046c1.4677,0.0894,2.7244-0.4543,3.4745-1.5046C43.0775,52.3468,41.8634,52.8895,40.4255,52.8046
		z"/>
	<path class="st1" d="M35.9,40.7c-1.7,0.4-2.8,1.9-2.8,4C33.1,42.6,34.2,41.2,35.9,40.7z"/>
	<polygon class="st1" points="55.0658,43.3076 54,44.4 54.1059,61.8333 54.0059,44.3985 	"/>
	<path class="st1" d="M39.3,41c-0.0142-0.0142-0.0391-0.0251-0.0568-0.0391c-0.8539-0.1643-1.6336-0.0788-2.2772,0.2289
		C37.6358,40.8924,38.4398,40.813,39.3,41z"/>
	<path class="st1" d="M33.1,44.7c0,3.3,2.6,6.7,5.8,7.8C35.7,51.4,33.1,47.9,33.1,44.7z"/>
	<path class="st1" d="M36.0381,49.0938c0.0446,0.0534,0.0868,0.1086,0.1326,0.161C36.1245,49.2026,36.0829,49.1471,36.0381,49.0938z
		"/>
	<path class="st1" d="M43.1453,50.2941c0.8581-0.5986,1.3917-1.6416,1.4099-2.9389c-0.0195-0.0959-0.043-0.1885-0.0669-0.2824
		C44.4985,47.1895,44.5,47.3065,44.5,47.4C44.5,48.6885,43.9821,49.7041,43.1453,50.2941z"/>
	<path class="st1" d="M44.4,46.7c-0.7-2.5-2.7-4.7-5.1-5.7C41.7,42,43.7,44.3,44.4,46.7z"/>
	<path class="st2" d="M30.5817,30.3657c0.0665,0.1326,0.135,0.2648,0.2383,0.3886c0.0079,0.0095,0.0206,0.0175,0.0287,0.0269
		C31.6724,31.7365,33.546,32.4,35.7,32.4c2.9271,0,5.3-1.2089,5.3-2.7c0-1.4912-2.3729-2.7-5.3-2.7
		c-0.826,0-1.598,0.1046-2.2949,0.2763L33.5,27.3c-0.3,0.1-0.5,0.1-0.7,0.2l0.0779-0.0779C31.3932,27.9005,30.4,28.7388,30.4,29.7
		c0,0.1871,0.0375,0.3695,0.1085,0.5455C30.5253,30.2872,30.5613,30.3248,30.5817,30.3657z"/>
	<path class="st3" d="M30.4,33c0,1.5,2.4,2.7,5.3,2.7c2.9,0,5.3-1.2,5.3-2.7v-3.2c0,1.4-2.3,2.6-5.3,2.6
		c-2.1541,0-4.0276-0.6635-4.8513-1.6188c-0.0082-0.0094-0.0208-0.0175-0.0287-0.0269c-0.1033-0.1238-0.1718-0.256-0.2383-0.3886
		c-0.0205-0.0409-0.0563-0.0784-0.0732-0.1201C30.4376,30.0695,30.4,29.8871,30.4,29.7v0.1V33z"/>
	<path class="st4" d="M39.8,51.7c-1.3607-0.4252-2.592-1.2867-3.5612-2.3721c-0.0223-0.0247-0.0461-0.0481-0.0681-0.0731
		c-0.0458-0.0524-0.088-0.1076-0.1326-0.161C34.8307,47.6603,34.1,45.8765,34.1,44.2c0-1.6,0.7-2.8,1.8-3.5c-1.7,0.5-2.8,1.9-2.8,4
		c0,3.2,2.6,6.7,5.8,7.8c0.5246,0.1749,1.0367,0.2748,1.5255,0.3046c1.4379,0.0849,2.652-0.4578,3.4745-1.5046
		C42.9,52,41.4,52.2,39.8,51.7z"/>
	<path class="st5" d="M39.3,41c-0.8602-0.187-1.6642-0.1076-2.334,0.1898c-0.0306,0.0136-0.0557,0.035-0.0857,0.0494
		c-0.1591,0.0768-0.3093,0.1671-0.4511,0.2686C35.6169,42.0892,35.1,43.0558,35.1,44.3c0,2.6,2.1,5.4,4.7,6.3
		c0.1965,0.0681,0.3835,0.0965,0.5736,0.1376c0.0044,0.001,0.0088,0.0022,0.0131,0.0031c0.21,0.0449,0.4149,0.0784,0.6152,0.0919
		c0.1579,0.0106,0.3141,0.0173,0.465,0.0093c0.0798-0.0043,0.1606-0.0038,0.2383-0.0131c0.2231-0.0267,0.4362-0.0748,0.6393-0.1415
		c0.0419-0.0137,0.0849-0.0244,0.1259-0.0398c0.2177-0.0818,0.4216-0.1867,0.6104-0.3126c0.0212-0.0142,0.0435-0.0263,0.0645-0.041
		c0.8367-0.59,1.3547-1.6056,1.3547-2.894c0-0.0935-0.0015-0.2105-0.0117-0.3273c-0.0316-0.1239-0.049-0.255-0.0883-0.3727
		C43.7,44.3,41.7,42,39.3,41z"/>
	<path class="st6" d="M24.4,34.8l0.3882,17.1777l29.3177,9.8556L54,44.4L24.4,34.8z M44.4,46.7
		c0.0392,0.1177,0.0567,0.2488,0.0883,0.3727c0.0239,0.0939,0.0474,0.1865,0.0669,0.2824
		c-0.0182,1.2973-0.5518,2.3403-1.4099,2.9389c-0.0209,0.0147-0.0432,0.0268-0.0645,0.041
		c-0.1898,0.1252-0.3925,0.2318-0.6104,0.3126c-0.041,0.0154-0.084,0.0261-0.1259,0.0398
		c-0.2039,0.0659-0.4157,0.1166-0.6393,0.1415c-0.0777,0.0093-0.1585,0.0088-0.2383,0.0131
		c-0.1516,0.0065-0.3065,0.0036-0.465-0.0093c-0.2003-0.0135-0.4052-0.0471-0.6152-0.0919
		c-0.0044-0.001-0.0087-0.0021-0.0131-0.0031C40.1835,50.6965,39.9965,50.668,39.8,50.6c-2.6-0.9-4.7-3.7-4.7-6.3
		c0-1.2441,0.517-2.2108,1.3292-2.7921c0.138-0.1068,0.2947-0.1873,0.4511-0.2686c0.03-0.0145,0.0551-0.0358,0.0857-0.0494
		c0.6436-0.3077,1.4232-0.3932,2.2772-0.2289C39.2609,40.9749,39.2858,40.9858,39.3,41C41.7,42,43.7,44.2,44.4,46.7z
		 M40.4255,52.8046C39.9367,52.7748,39.4246,52.6749,38.9,52.5c-3.2-1.1-5.8-4.5-5.8-7.8c0-2.1,1.1-3.6,2.8-4
		c-1.1,0.7-1.8,1.9-1.8,3.5c0,1.6765,0.7307,3.4603,1.9381,4.8938c0.0449,0.0533,0.0864,0.1088,0.1326,0.161
		c0.022,0.025,0.0458,0.0483,0.0681,0.0731C37.2391,50.4345,38.5324,51.3039,40,51.7c1.5921,0.4976,2.8491,0.2275,3.9453-0.465
		c-0.0168,0.0205-0.028,0.0447-0.0453,0.0649C43.1498,52.3503,41.8931,52.8939,40.4255,52.8046z"/>
	<path class="st3" d="M50.7,36.9c-2.1541,0-4.0276-0.6635-4.8513-1.6188c-0.0082-0.0094-0.0208-0.0175-0.0287-0.0269
		c-0.1033-0.1238-0.1718-0.256-0.2383-0.3886c-0.0205-0.0409-0.0563-0.0784-0.0732-0.1201c-0.0654-0.1623-0.0947-0.3311-0.1-0.5029
		C45.4076,34.2619,45.4,34.2806,45.4,34.3v3.1c0,1.1726,1.2746,2.1125,3.0797,2.5426C49.1591,40.1037,49.907,40.2,50.7,40.2
		c1.8125,0,3.4297-0.4688,4.3877-1.1865C55.6625,38.5698,56,38.0208,56,37.4v-3.1v-0.1C56,35.7,53.7,36.9,50.7,36.9z"/>
	<path class="st7" d="M33.5,27.3l-0.0948-0.0237L33.1,27.2l-0.222,0.222L32.8,27.5C33,27.4,33.2,27.4,33.5,27.3z"/>
	<path class="st2" d="M55.0658,43.3076l6.9124-7.1145L56,34.3v3.1v0.1c0,0.5625-0.3375,1.0828-0.9123,1.5135
		C54.1297,39.7313,52.5125,40.2,50.7,40.2c-0.793,0-1.5409-0.0963-2.2203-0.2574C46.6746,39.5147,45.4,38.5898,45.4,37.5v-0.1v-3.1
		c0-0.0194,0.0076-0.0381,0.0085-0.0574c0.0054,0.1718,0.0346,0.3406,0.1,0.5029c0.0168,0.0416,0.0527,0.0792,0.0732,0.1201
		c0.0665,0.1326,0.135,0.2648,0.2383,0.3886c0.0079,0.0095,0.0206,0.0175,0.0287,0.0269C46.6724,36.2365,48.546,36.9,50.7,36.9
		c2.9271,0,5.3-1.2089,5.3-2.7c0-1.4912-2.3729-2.7-5.3-2.7c-0.9562,0-1.8406,0.1392-2.6151,0.3649L41,29.7v0.1V33
		c0,1.5-2.4,2.7-5.3,2.7c-2.9,0-5.3-1.2-5.3-2.7v-3.2v-0.1c0-0.0552,0-0.1,0-0.1l-6,5.2L54,44.4L55.0658,43.3076z"/>
	<polygon class="st8" points="61.9782,36.1931 55.0658,43.3076 54.0059,44.3985 54.1059,61.8333 62.0059,53.7985 62.0059,36.1647 	
		"/>
</g>
<g class="st9">
	<path class="st1" d="M6.1336,28.7573C8.1341,31.4291,9.6,29.4,9.6,29.4S8.1229,31.3969,6.1336,28.7573z"/>
	<path class="st1" d="M3.2077,23.6287C3.6667,23.7466,4,24.3,4,24.3S3.6964,23.7302,3.2077,23.6287z"/>
	<path class="st1" d="M9.6,29.4c0,0,0.4127-0.096,0.8785-0.0991C10.0093,29.2986,9.6,29.4,9.6,29.4z"/>
	<polygon class="st1" points="11.9465,28.3804 15.7,26.8 11.951,28.3785 	"/>
	<path class="st1" d="M8,22.6c-0.0209-0.0313-0.0417-0.0627-0.0626-0.094c0.0284,0.0475,0.0592,0.0864,0.0862,0.1373
		C8.0157,22.6301,8.0079,22.613,8,22.6z"/>
	<path class="st1" d="M7.8976,18.3743C7.6052,18.1463,7.3051,17.9525,7,17.8c-0.0473,0-0.1184-0.0012-0.1893-0.0118
		C6.9077,17.8279,7.0009,17.8505,7.1,17.9C7.3719,18.0247,7.6378,18.1868,7.8976,18.3743z"/>
	<path class="st1" d="M46.5784,15.8219c0.0967-0.1224,0.183-0.2606,0.2676-0.4404C46.7748,15.5457,46.681,15.6909,46.5784,15.8219z"
		/>
	<path class="st1" d="M21.6,11.4c0.1,0.1,0.2,0.1,0.3,0.1C21.8,11.4,21.7,11.4,21.6,11.4z"/>
	<path class="st1" d="M16.8,24.3c0.0496,0.0496,0.3679,0.4427,0.3861,0.936C17.1835,24.7374,16.8508,24.3508,16.8,24.3z"/>
	<path class="st1" d="M24.9,14.1c1.2,1.7,2.2,3.8,2.5,6C27.1,17.9,26.1,15.7,24.9,14.1z"/>
	<path class="st1" d="M27.4,20.3c0.0496,0.3972,0.0804,0.7693,0.0931,1.1188C27.4815,21.061,27.4517,20.688,27.4,20.3z"/>
	<path class="st1" d="M17.7992,24.7515C17.6302,24.5016,17.3307,24.3,16.8,24.3C17.3081,24.3,17.6146,24.4997,17.7992,24.7515z"/>
	<path class="st1" d="M22.5,9.9c-0.8-0.4-1.5-0.4-2.1-0.2C21,9.5,21.7,9.6,22.5,9.9z"/>
	<path class="st1" d="M46.5477,15.8636c-0.0721,0.0875-0.153,0.155-0.2326,0.2251C46.4028,16.0199,46.4786,15.9452,46.5477,15.8636z
		"/>
	<path class="st1" d="M31.6492,14.3823c-0.0377-0.0856-0.0781-0.1684-0.1171-0.2532
		C31.5714,14.2134,31.6113,14.2972,31.6492,14.3823z"/>
	<path class="st1" d="M32.6325,17.2854c-0.0155-0.0639-0.0269-0.1277-0.0432-0.1916
		C32.6052,17.1575,32.6174,17.2216,32.6325,17.2854z"/>
	<path class="st1" d="M42.3943,15.4599l-0.0002-0.0015l-0.7991,0.3059L42.3,15.5C42.3299,15.4867,42.364,15.4732,42.3943,15.4599z"
		/>
	<path class="st1" d="M32.183,15.7397c-0.0098-0.0285-0.0193-0.0569-0.0293-0.0853C32.1637,15.6827,32.1732,15.7112,32.183,15.7397z
		"/>
	<path class="st1" d="M41.2621,14.5377c0.0168-0.0524,0.0394-0.1014,0.0596-0.1519C41.3011,14.4366,41.2792,14.4869,41.2621,14.5377
		z"/>
	<path class="st1" d="M41.0946,15.824c-0.0027-0.2685,0.0147-0.7996,0.1638-1.2736C41.0735,15.1083,41.0831,15.6381,41.0946,15.824z
		"/>
	<path class="st1" d="M42.2,13.3c-0.009,0.0045-0.015,0.0105-0.0237,0.0151c0.0334-0.0117,0.0803-0.033,0.1209-0.05
		C42.2659,13.2761,42.228,13.2907,42.2,13.3z"/>
	<path class="st10" d="M42.1763,13.3151c-0.3824,0.2-0.5807,0.4939-0.7762,0.8849c-0.0307,0.0613-0.0533,0.1237-0.0784,0.1858
		c-0.0202,0.0505-0.0428,0.0994-0.0596,0.1519c-0.0015,0.0043-0.0023,0.0085-0.0037,0.0128
		c-0.149,0.474-0.1664,1.0051-0.1638,1.2736C41.0974,15.8683,41.1,15.9,41.1,15.9c0.0051,0.0306,0.0144,0.0594,0.0211,0.0894
		L41.5,15.8l0.095-0.0356l0.7991-0.3059l0.0002,0.0015c0.4141-0.1815,0.8652-0.3638,1.3401-0.5559
		c0.5511-0.2325,1.1437-0.4778,1.7236-0.7413c-1.2,0-1.6578-0.7995-1.7578-1.4995c-0.0389,0.013-0.0782,0.0308-0.1175,0.045
		c-0.5364,0.2673-0.9839,0.4504-1.2856,0.5568C42.2566,13.282,42.2097,13.3033,42.1763,13.3151z"/>
	<path class="st11" d="M48.4,11c-0.4-3.7-2.7-7-5-8.1c-1.1923-0.642-2.8749-0.3503-3.4566,0.6267L40.7,3.2
		c2.1202,0.7572,4.0082,2.6645,5.279,5.3245c0.4507,0.9073,0.8326,1.9008,1.121,2.9755C47.1,11.5,48.1,11.7,48.4,11z"/>
	<path class="st11" d="M11.7,29.7l4.9-2.1c0,0,1.4-0.5,1.4-1.9c0,0,0.0759-0.5394-0.2008-0.9485
		C17.6146,24.4997,17.3081,24.3,16.8,24.3c0.0508,0.0508,0.3835,0.4374,0.3861,0.936c0.0025,0.4833-0.3049,1.0718-1.4861,1.564
		l-3.7535,1.5804L11.9,28.4l-2.3,1c0,0,0.4094-0.1014,0.8785-0.0991C10.0126,29.304,9.6,29.4,9.6,29.4s-1.4659,2.0291-3.4664-0.6428
		C5.4677,27.8738,4.7445,26.4713,4,24.3c0,0-0.3333-0.5533-0.7923-0.6713C3.6964,23.7302,4,24.3,4,24.3l4.0591-1.6
		C8.6591,23.7,9.2,25,9.8,27c0,0,1.6,0.4,2.1-0.7c-0.3492-3.1424-1.9938-6.3601-4.0024-7.9257
		C7.6378,18.1868,7.3719,18.0247,7.1,17.9c-0.0991-0.0495-0.1923-0.0721-0.2892-0.1119c-0.03-0.0045-0.0511-0.0219-0.0798-0.0309
		C4.9069,17.055,3.4621,18.0517,2.9,20.3C2.8,21.4,4,21.4,4,21.4s1.4-2.3,3.4,0.3c0.092,0.1381,0.1841,0.2762,0.2762,0.4142
		C7.5803,21.9953,7.4838,21.8838,7.4,21.8l-4.7,1.9c0.4,3.6,2.5,7.2,4.8,8.4c1.6522,0.826,3.0214,0.2714,3.7894-1.2375L11.2,30.9
		C11.4,30.5,11.6,30.1,11.7,29.7z M8,22.6c0.0079,0.0131,0.0157,0.0301,0.0236,0.0433c-0.027-0.0509-0.0577-0.0898-0.0862-0.1373
		C7.9583,22.5373,7.9791,22.5687,8,22.6z"/>
	<path class="st10" d="M9.8,27c-0.6-2-1.1409-3.3-1.7408-4.3L4,24.3c0.7445,2.1713,1.4677,3.5738,2.1336,4.4573
		C8.1229,31.3969,9.6,29.4,9.6,29.4l2.3-1l0.0465-0.0196l0.0045-0.002L15.7,26.8c1.1812-0.4922,1.4886-1.0807,1.4861-1.564
		c-0.0182-0.4933-0.3365-0.8865-0.3861-0.936l-4.9,2C11.4,27.4,9.8,27,9.8,27z"/>
	<path class="st11" d="M28.6,24.5c0.5-1,0.6-2.5,0.4-4.3c-0.1-0.1-0.1-0.2-0.1-0.3c-0.4-2.5-1.5-5.1-2.9-7c-1-1.4-2.3-2.5-3.5-3
		c-0.8-0.3-1.5-0.4-2.1-0.2l-0.2,0.1c-0.9965,0.3986-1.6945,1.4927-1.8973,2.9849L21.6,11.4c0.1,0,0.2,0,0.3,0.1
		c1.1,0.4,2.1,1.4,3,2.6c1.2,1.6,2.2,3.8,2.5,6c0,0.1,0,0.2,0,0.2c0.0517,0.388,0.0815,0.761,0.0931,1.1188
		C27.5314,22.4769,27.4007,23.3234,27.1,24c-0.1,0.1-0.1,0.2-0.2,0.3l-3.097,1.3019c0.299,0.1993,0.598,0.3984,0.897,0.498
		c0.9,0.4,1.7,0.4,2.3,0.1l0.3-0.1C27.9,25.7,28.3,25.2,28.6,24.5z"/>
	<path class="st12" d="M27.1,24c0.3007-0.6766,0.4315-1.5231,0.3931-2.5812C27.4804,21.0693,27.4496,20.6972,27.4,20.3
		c0,0,0-0.1,0-0.2c-0.3-2.2-1.3-4.3-2.5-6c-0.9-1.2-1.9-2.2-3-2.6c-0.1,0-0.2,0-0.3-0.1l-3.2972,1.3848L6.6,17.7
		c0.0327,0.0327,0.0838,0.0425,0.1309,0.0573c0.0287,0.009,0.0499,0.0264,0.0798,0.0309C6.8816,17.7988,6.9527,17.8,7,17.8
		c0.3051,0.1525,0.6052,0.3463,0.8976,0.5743C9.9063,19.9399,11.5508,23.1576,11.9,26.3l4.9-2c0.5308,0,0.8303,0.2016,0.9992,0.4515
		C18.0759,25.1606,18,25.7,18,25.7c0,1.4-1.4,1.9-1.4,1.9l-4.9,2.1c-0.1,0.4-0.3,0.8-0.5,1.2l0.0894-0.0376l12.5136-5.2605
		L26.9,24.3C27,24.2,27,24.1,27.1,24z"/>
	<path class="st11" d="M42.3,15.5l-0.705,0.2643L41.5,15.8l-0.379,0.1895c0.124,0.5579,0.5147,0.9952,1.179,0.7106
		c0.2,0,0.6-0.2,1.2-0.5c1.4-0.6,3.5-1.5,3.5-1.5c0,0.2573-0.0658,0.4783-0.154,0.6815c-0.0846,0.1798-0.1708,0.318-0.2676,0.4404
		c-0.0107,0.0137-0.0198,0.0284-0.0308,0.0417c-0.069,0.0816-0.1448,0.1563-0.2326,0.2251
		C46.2756,16.1234,46.2404,16.1698,46.2,16.2l-0.127,0.0535l-1.5522,0.6736c1.7,0.6,2.9792-0.2271,3.5792-2.2271
		c0.1-0.1,0.3-1.6-0.6-1.4c-0.3,0.1-0.7,0.3-1.2,0.5c-0.3,0.1-0.6,0.2-0.9,0.4c-0.5646,0.2567-1.1281,0.4865-1.6656,0.704
		c-0.4749,0.1921-0.926,0.3745-1.3401,0.5559C42.364,15.4732,42.3299,15.4867,42.3,15.5z"/>
	<path class="st12" d="M40.7,3.2l-0.7566,0.3267L27.5,8.9c1.3834,0.9578,2.6441,2.5468,3.6203,4.4037
		C29.874,10.9734,28.1561,9.1024,26.4,8.4C25.5,8,24.7,8,24.1,8.2l-0.3,0.1l-3.4,1.4c0.6-0.2,1.3-0.2,2.1,0.2c1.2,0.5,2.5,1.6,3.5,3
		c1.4,1.9,2.5,4.5,2.9,7c0,0.1,0,0.2,0.1,0.3c0.2,1.8,0.1,3.3-0.4,4.3c-0.3,0.7-0.7,1.2-1.3,1.6l3.6-1.5c1.6-0.6,2.4-2.8,2-5.9
		c-0.0233-0.1743-0.056-0.3486-0.0861-0.523c0.0258,0.1411,0.0644,0.282,0.0861,0.423c0.2,1.2,0.1,2.3,0,3.2l13.173-5.5465
		L46.2,16.2c0.0403-0.0302,0.0756-0.0766,0.1151-0.1113c0.0797-0.0701,0.1605-0.1376,0.2326-0.2251
		c0.011-0.0133,0.02-0.028,0.0308-0.0417c0.1026-0.131,0.1964-0.2762,0.2676-0.4404C46.9342,15.1783,47,14.9573,47,14.7
		c0,0-2.1,0.9-3.5,1.5c-0.6,0.3-1,0.5-1.2,0.5c-0.6642,0.2847-1.055-0.1527-1.179-0.7106c-0.0067-0.03-0.0159-0.0588-0.0211-0.0894
		c0,0-0.0026-0.0317-0.0054-0.076c-0.0115-0.1859-0.0211-0.7156,0.1638-1.2736c0.0015-0.0043,0.0023-0.0085,0.0037-0.0128
		c0.0171-0.0508,0.0391-0.101,0.0596-0.1519c0.0251-0.0621,0.0477-0.1245,0.0784-0.1858c0.1955-0.3911,0.3939-0.685,0.7762-0.8849
		C42.185,13.3105,42.191,13.3044,42.2,13.3c0.028-0.0093,0.0659-0.0239,0.0972-0.0349c0.3017-0.1064,0.7492-0.2896,1.2856-0.5568
		c0.006-0.003,0.0112-0.0052,0.0172-0.0082c1.1-0.4,2.4-1,3.4-1.4c-0.267-0.9954-0.6136-1.9226-1.021-2.7755
		C44.7083,5.8645,42.8203,3.9572,40.7,3.2z M31.5322,14.1291c0.0389,0.0848,0.0794,0.1676,0.1171,0.2532
		C31.6113,14.2972,31.5714,14.2134,31.5322,14.1291z M32.5893,17.0938c0.0163,0.0638,0.0277,0.1277,0.0432,0.1916
		C32.6174,17.2216,32.6052,17.1575,32.5893,17.0938z M32.1537,15.6544c0.01,0.0284,0.0195,0.0568,0.0293,0.0853
		C32.1732,15.7112,32.1637,15.6827,32.1537,15.6544z"/>
</g>
</svg>
