<?xml version="1.0" encoding="utf-8"?>
<!-- Generator: Adobe Illustrator 23.0.5, SVG Export Plug-In . SVG Version: 6.00 Build 0)  -->
<svg version="1.1" id="Layer_1" xmlns="http://www.w3.org/2000/svg" xmlns:xlink="http://www.w3.org/1999/xlink" x="0px" y="0px"
	 viewBox="0 0 64 64" style="enable-background:new 0 0 64 64;" xml:space="preserve">
<style type="text/css">
	.st0{opacity:0.4;}
	.st1{fill:#FFFFFF;}
</style>
<g class="st0">
	<path class="st1" d="M48.7,53.2h-3.6v-1.9h9.4v1.9h-3.6v10.6h-2.2V53.2z"/>
	<path class="st1" d="M55.1,62.2l1.3-1.5c0.9,0.8,2.1,1.4,3.2,1.4c1.4,0,2.2-0.6,2.2-1.6c0-1-0.8-1.3-1.9-1.8l-1.7-0.7
		c-1.2-0.5-2.5-1.5-2.5-3.3c0-2,1.7-3.5,4.2-3.5c1.5,0,2.9,0.6,3.8,1.6l-1.1,1.4c-0.8-0.7-1.6-1.1-2.7-1.1c-1.2,0-1.9,0.6-1.9,1.5
		c0,1,0.9,1.3,2,1.8l1.7,0.7c1.5,0.6,2.5,1.6,2.5,3.4c0,2-1.7,3.7-4.5,3.7C57.9,64,56.2,63.3,55.1,62.2z"/>
</g>
</svg>
