<?xml version="1.0" encoding="utf-8"?>
<!-- Generator: Adobe Illustrator 23.0.5, SVG Export Plug-In . SVG Version: 6.00 Build 0)  -->
<svg version="1.1" id="Layer_1" opacity="0.4" xmlns="http://www.w3.org/2000/svg" xmlns:xlink="http://www.w3.org/1999/xlink"
	 x="0px" y="0px" viewBox="0 0 64 64" style="enable-background:new 0 0 64 64;" xml:space="preserve">
<style type="text/css">
	.st0{fill:#020204;}
	.st1{fill:#FDFDFB;}
	.st2{fill:url(#SVGID_1_);}
	.st3{fill:url(#SVGID_2_);}
	.st4{fill:url(#SVGID_3_);}
	.st5{fill:#D99A03;}
	.st6{fill:#F5BD0C;}
	.st7{fill:url(#SVGID_4_);}
	.st8{fill:url(#SVGID_5_);}
	.st9{fill:#F5C021;}
	.st10{fill:url(#SVGID_6_);}
	.st11{fill:#B7B7B7;}
	.st12{fill:url(#SVGID_7_);}
	.st13{fill:#D59814;}
	.st14{fill:#604405;}
	.st15{fill:#020204;enable-background:new    ;}
	.st16{fill:#F47421;}
	.st17{fill:#FFFFFF;}
</style>
<title>ubuntu</title>
<g>
	<path class="st0" d="M48.1,56.8c0.2-0.9,0.3-1.9,0.4-2.8c0-0.4,0.1-0.7,0.1-1.1c-0.4,0.4-0.8,0.8-1.1,1.2c-1.2,1.2-2.4,2.3-3.9,3.1
		c-2.8,1.5-6.3,1.5-9.2,0.1c-0.2-0.1-0.4-0.2-0.6-0.3c0.3,0.5,0.6,1.1,0.8,1.7c0.2,0.7,0.2,1.6,0,2.3c0.2,0,0.3-0.1,0.5-0.1
		c2.9-0.6,6.1-0.4,8.7,0c0.9,0.1,1.8,0.3,2.7,0.5c0.5,0.1,1,0.3,1.5,0.4c-0.2-0.5-0.2-1-0.2-1.5C47.7,59.1,47.9,57.9,48.1,56.8z"/>
	<path class="st1" d="M48.6,48.8c0-0.3,0-0.6,0-0.9c0-0.3,0.2-0.6,0.4-0.8c0.1,0,0.1-0.1,0.2-0.1l0,0c0.1,0,0.1-0.1,0.2-0.1
		c0,0,0,0,0.1,0c0,0,0.1,0,0.1,0c0,0,0,0,0.1,0c0.1,0,0.1,0,0.2,0c0.3,0,0.5,0,0.8,0.1c0.2,0,0.3,0,0.5,0.1c0-0.3,0.1-0.5,0.1-0.8
		c0.4-3.3,0.4-6.9-1.1-9.9c-0.5-1-1.2-2-2-2.8c-0.2-1.5-0.6-2.9-1.3-4.2c-0.4-1-1-1.9-1.4-2.9c-0.2-0.4-0.3-0.8-0.5-1.2
		c-0.1-0.1-0.1-0.2-0.2-0.3c-0.1,0.1-0.2,0.2-0.4,0.3c-0.2,0.1-0.4,0.1-0.6,0.2c-1,0.4-1.7,1.1-2.5,1.7c-0.5,0.3-0.9,0.5-1.5,0.6
		c-0.6,0.2-1.1,0.3-1.7,0.2c-0.5-0.1-1-0.2-1.4-0.5c-0.6-0.4-0.9-1-1.4-1.6c-0.2-0.3-0.5-0.6-0.8-0.8c0,0.3-0.1,0.5-0.1,0.8
		c0,0.6,0,1.3-0.2,1.9c-0.2,0.6-0.6,1.2-1,1.8c-0.7,0.9-1.4,1.9-1.7,3c-0.2,0.7-0.3,1.4-0.2,2.1c-0.8,1.1-1.4,2.3-2,3.5
		C28.7,40,28.2,42,28,44c-0.1,0.8-0.1,1.6-0.1,2.4c0.1,0.1,0.3,0.3,0.4,0.4c0.1,0.1,0.1,0.1,0.2,0.2l0,0c1.3,1.2,2.7,2.4,4.1,3.4
		c0.7,0.5,1.4,1.1,1.8,1.8c0.2,0.3,0.3,0.6,0.4,1c0,0.4,0,0.7-0.2,1c-0.2,0.2-0.4,0.4-0.7,0.5c-0.3,0.1-0.6,0.2-0.8,0.2
		c-0.3,0-0.6-0.1-0.9-0.2c0.4,0.6,0.9,1.2,1.4,1.8c0.1,0.1,0.2,0.3,0.3,0.4c0.2,0.1,0.4,0.2,0.6,0.3c2.9,1.4,6.4,1.4,9.2-0.1
		c1.5-0.8,2.7-1.9,3.9-3.1c0.4-0.4,0.8-0.8,1.1-1.2C48.7,51.6,48.7,50.2,48.6,48.8z"/>
	<path class="st0" d="M26.8,46.7c0.1,0,0.1,0.1,0.2,0.2C26.9,46.8,26.8,46.8,26.8,46.7z"/>
	
		<linearGradient id="SVGID_1_" gradientUnits="userSpaceOnUse" x1="26.9684" y1="16.9933" x2="35.9212" y2="1.9718" gradientTransform="matrix(1 0 0 -1 0 64)">
		<stop  offset="0" style="stop-color:#B98309"/>
		<stop  offset="1" style="stop-color:#382605"/>
	</linearGradient>
	<path class="st2" d="M26.8,46.7c0.1,0,0.1,0.1,0.2,0.2C26.9,46.8,26.8,46.8,26.8,46.7z"/>
	<path class="st0" d="M26.9,46.9c0.1,0.1,0.1,0.1,0.2,0.2C27,47,27,46.9,26.9,46.9z"/>
	
		<linearGradient id="SVGID_2_" gradientUnits="userSpaceOnUse" x1="27.0178" y1="17.0227" x2="35.9706" y2="2.0013" gradientTransform="matrix(1 0 0 -1 0 64)">
		<stop  offset="0" style="stop-color:#B98309"/>
		<stop  offset="1" style="stop-color:#382605"/>
	</linearGradient>
	<path class="st3" d="M26.9,46.9c0.1,0.1,0.1,0.1,0.2,0.2C27,47,27,46.9,26.9,46.9z"/>
	<path class="st0" d="M26.6,46.6c0,0,0.1,0.1,0.1,0.1C26.7,46.6,26.6,46.6,26.6,46.6z"/>
	
		<linearGradient id="SVGID_3_" gradientUnits="userSpaceOnUse" x1="26.9016" y1="16.9534" x2="35.8544" y2="1.932" gradientTransform="matrix(1 0 0 -1 0 64)">
		<stop  offset="0" style="stop-color:#B98309"/>
		<stop  offset="1" style="stop-color:#382605"/>
	</linearGradient>
	<path class="st4" d="M26.6,46.6c0,0,0.1,0.1,0.1,0.1C26.7,46.6,26.6,46.6,26.6,46.6z"/>
	<path class="st5" d="M18.5,51C18.5,51,18.5,51,18.5,51C18.5,51,18.5,51,18.5,51z"/>
	<path class="st6" d="M34.7,58.6c-0.2-0.6-0.5-1.1-0.8-1.7c-0.1-0.1-0.2-0.3-0.3-0.4c-0.4-0.6-0.9-1.2-1.4-1.8c0,0,0-0.1-0.1-0.1
		c-0.7-1-1.3-2-1.9-3.1c-0.8-1.3-1.6-2.5-2.5-3.7c-0.2-0.3-0.4-0.5-0.6-0.8c0,0,0,0,0,0C27,47,27,46.9,26.9,46.9c0,0,0,0,0,0
		c-0.1-0.1-0.1-0.1-0.2-0.2c0,0,0,0-0.1-0.1c0,0-0.1-0.1-0.1-0.1c-0.1,0-0.1-0.1-0.2-0.1c-0.3-0.2-0.6-0.3-0.9-0.4
		c-0.3-0.1-0.7,0-1,0.1c0,0,0,0-0.1,0c-0.3,0.1-0.5,0.3-0.7,0.5c0,0,0,0-0.1,0.1c-0.2,0.2-0.3,0.5-0.5,0.7c-0.2,0.3-0.3,0.6-0.5,0.8
		c-0.2,0.3-0.4,0.5-0.7,0.6c-0.3,0.2-0.6,0.2-1,0.3c-0.3,0-0.7,0-1,0s-0.7,0-1,0.1c-0.3,0.1-0.6,0.2-0.9,0.4
		c-0.3,0.2-0.4,0.6-0.5,0.9c-0.1,0.4-0.1,0.7,0,1.1c0.1,0.8,0.2,1.6,0.2,2.4c0,0.8,0,1.6-0.3,2.4c-0.2,0.5-0.5,0.9-0.6,1.3
		c-0.1,0.2-0.1,0.5-0.1,0.7c0,0.2,0.1,0.5,0.2,0.7c0.2,0.3,0.4,0.5,0.7,0.6c0.3,0.1,0.6,0.2,0.9,0.3c0.7,0.2,1.4,0.4,2.1,0.6
		c2.2,0.7,4.6,0.9,6.8,1.8c1.1,0.4,2.2,1,3.3,1c0.7,0,1.4-0.2,2-0.5c0.6-0.4,1.1-0.9,1.5-1.6c0.1-0.2,0.2-0.5,0.3-0.7
		C34.9,60.1,34.9,59.3,34.7,58.6z"/>
	<path class="st1" d="M49.4,47C49.4,47,49.4,47,49.4,47C49.4,47,49.4,47,49.4,47z"/>
	
		<linearGradient id="SVGID_4_" gradientUnits="userSpaceOnUse" x1="42.3594" y1="5.614" x2="51.3797" y2="20.2371" gradientTransform="matrix(1 0 0 -1 0 64)">
		<stop  offset="0" style="stop-color:#3E2A06"/>
		<stop  offset="1" style="stop-color:#AD780A"/>
	</linearGradient>
	<path class="st7" d="M49.4,47C49.4,47,49.4,47,49.4,47C49.4,47,49.4,47,49.4,47z"/>
	<path class="st1" d="M49.6,47C49.5,47,49.5,47,49.6,47C49.5,47,49.5,47,49.6,47z"/>
	
		<linearGradient id="SVGID_5_" gradientUnits="userSpaceOnUse" x1="42.4693" y1="5.5462" x2="51.4895" y2="20.1693" gradientTransform="matrix(1 0 0 -1 0 64)">
		<stop  offset="0" style="stop-color:#3E2A06"/>
		<stop  offset="1" style="stop-color:#AD780A"/>
	</linearGradient>
	<path class="st8" d="M49.6,47C49.5,47,49.5,47,49.6,47C49.5,47,49.5,47,49.6,47z"/>
	<path class="st9" d="M63.8,54.7c-0.1-0.2-0.3-0.4-0.5-0.5c0,0,0,0-0.1,0c0,0,0,0,0,0c-0.2-0.1-0.3-0.2-0.5-0.4
		c-0.2-0.1-0.3-0.2-0.5-0.3c0,0,0,0-0.1-0.1c-0.2-0.1-0.3-0.2-0.4-0.4c-0.1,0-0.1-0.1-0.2-0.1c-0.3-0.2-0.6-0.5-0.8-0.7c0,0,0,0,0,0
		c-0.1-0.1-0.2-0.2-0.2-0.3c-0.3-0.4-0.6-0.8-0.7-1.3c0,0,0,0,0,0c-0.1-0.3-0.1-0.6-0.1-0.9c0-0.3-0.1-0.7-0.2-1
		c-0.1-0.2-0.2-0.4-0.3-0.6c0,0,0,0,0,0c0,0,0,0,0,0c-0.2-0.2-0.5-0.3-0.7-0.4c0,0,0,0,0,0c-0.1,0-0.1,0-0.2-0.1c0,0,0,0.1,0,0.1
		c-0.1,0.4-0.3,0.7-0.5,1c-0.6,0.9-1.6,1.7-2.7,2c-0.7,0.2-1.4,0.2-2,0c-0.4-0.1-0.8-0.3-1-0.6c-0.3-0.4-0.5-0.9-0.5-1.4
		c0-0.5,0-1,0.2-1.5c0,0,0,0,0-0.1c-0.2,0-0.4-0.1-0.6-0.1c-0.2,0-0.3,0-0.5-0.1c-0.3,0-0.5-0.1-0.8-0.1c-0.1,0-0.1,0-0.2,0
		c0,0,0,0-0.1,0c0,0-0.1,0-0.1,0c0,0,0,0-0.1,0c-0.1,0-0.1,0-0.2,0.1c-0.1,0-0.1,0.1-0.2,0.1c-0.2,0.2-0.3,0.5-0.4,0.8
		c0,0.3,0,0.6,0,0.9c0.1,1.3,0.1,2.7,0,4.1c0,0.4-0.1,0.7-0.1,1.1c-0.1,0.9-0.3,1.9-0.4,2.8c-0.2,1.1-0.4,2.3-0.4,3.4
		c0,0.5,0.1,1,0.2,1.5c0,0.1,0.1,0.2,0.2,0.3c0.3,0.5,0.9,0.9,1.5,1.2c0.6,0.3,1.4,0.5,2.1,0.5c0.2,0,0.4,0,0.6,0
		c0.7-0.1,1.5-0.4,2.1-0.9c0.6-0.4,1.1-1,1.7-1.5c0.6-0.6,1.3-1.2,2-1.6c1.1-0.7,2.3-1.2,3.5-1.8c0.7-0.3,1.4-0.7,1.9-1.3
		c0.2-0.3,0.4-0.6,0.5-0.9c0-0.1,0.1-0.2,0.1-0.3C63.9,55.1,63.9,54.9,63.8,54.7z"/>
	
		<radialGradient id="SVGID_6_" cx="-4.921" cy="66.0906" r="0.2177" gradientTransform="matrix(10.2394 -0.1072 -0.1642 -15.6791 96.9986 1054.875)" gradientUnits="userSpaceOnUse">
		<stop  offset="0" style="stop-color:#FEFEFC"/>
		<stop  offset="0.75" style="stop-color:#FEFEFC"/>
		<stop  offset="1" style="stop-color:#D4D4D4"/>
	</radialGradient>
	<path class="st10" d="M35.6,21.4c-0.1,0-0.1,0-0.2-0.1c-0.2-0.1-0.3-0.2-0.4-0.3c-0.2-0.2-0.4-0.4-0.4-0.7
		c-0.1-0.4-0.1-0.8-0.1-1.3c0-0.2,0.1-0.4,0.2-0.6c0.1-0.2,0.2-0.3,0.4-0.4c0.2-0.1,0.3-0.1,0.5,0c0.2,0,0.3,0.1,0.5,0.2
		c0.3,0.2,0.5,0.6,0.6,0.9c0.1,0.5,0.2,1,0,1.5c0.3-0.1,0.5-0.3,0.8-0.4c0.1,0,0.1,0,0.2-0.1c0-0.2,0-0.3,0-0.5c0-0.5-0.1-1-0.2-1.5
		c-0.2-0.5-0.4-1-0.8-1.3c-0.2-0.2-0.4-0.3-0.6-0.4c-0.2-0.1-0.5-0.2-0.7-0.2c-0.3,0-0.7,0.2-0.9,0.4c-0.2,0.2-0.4,0.5-0.5,0.8
		c-0.2,0.6-0.2,1.3-0.1,2c0,0.6,0.1,1.2,0.3,1.8c0.1,0.3,0.3,0.5,0.5,0.8c0.1,0.1,0.1,0.1,0.2,0.2c0.1-0.1,0.3-0.2,0.5-0.4
		C35.3,21.7,35.5,21.6,35.6,21.4z"/>
	<path class="st0" d="M36.6,19.2c-0.1-0.4-0.3-0.7-0.6-0.9c-0.1-0.1-0.3-0.2-0.5-0.2c-0.2,0-0.4,0-0.5,0c-0.2,0.1-0.3,0.2-0.4,0.4
		c-0.1,0.2-0.1,0.4-0.2,0.6c-0.1,0.4-0.1,0.9,0.1,1.3c0.1,0.3,0.3,0.5,0.4,0.7c0.1,0.1,0.3,0.3,0.4,0.3c0.1,0,0.1,0,0.2,0.1
		c0.3-0.3,0.6-0.5,1-0.7C36.8,20.2,36.8,19.7,36.6,19.2z M36.2,20c-0.1,0.1-0.2,0-0.2,0c-0.2-0.2,0-0.5-0.1-0.7
		c0-0.1-0.1-0.2-0.2-0.3c-0.1-0.1-0.2-0.1-0.3-0.3c0-0.1,0-0.2,0-0.2c0.1-0.1,0.3,0,0.4,0c0.2,0.1,0.4,0.4,0.5,0.6
		C36.4,19.4,36.4,19.8,36.2,20z"/>
	<path class="st11" d="M35.8,18.6c-0.1-0.1-0.3-0.1-0.4,0c-0.1,0.1-0.1,0.2,0,0.2c0,0.1,0.2,0.2,0.3,0.3c0.1,0.1,0.2,0.2,0.2,0.3
		c0.1,0.2-0.1,0.5,0.1,0.7c0.1,0,0.2,0.1,0.2,0c0.2-0.2,0.2-0.6,0.1-0.9C36.2,18.9,36,18.7,35.8,18.6z"/>
	
		<radialGradient id="SVGID_7_" cx="-5.453" cy="66.2069" r="0.2177" gradientTransform="matrix(13.6333 -0.4284 -0.4925 -15.6723 149.5813 1054.4348)" gradientUnits="userSpaceOnUse">
		<stop  offset="0" style="stop-color:#FEFEFC"/>
		<stop  offset="0.75" style="stop-color:#FEFEFC"/>
		<stop  offset="1" style="stop-color:#D4D4D4"/>
	</radialGradient>
	<path class="st12" d="M41.6,21.1c-0.2-0.2-0.3-0.4-0.4-0.6c-0.1-0.3-0.1-0.6-0.1-0.9c0-0.4,0.1-0.8,0.3-1.1
		c0.1-0.2,0.3-0.3,0.4-0.4c0.2-0.1,0.4-0.2,0.6-0.2c0.2,0,0.4,0,0.5,0.1c0.4,0.1,0.7,0.5,0.9,0.8c0.2,0.4,0.3,0.8,0.2,1.2
		c0,0.2-0.1,0.5-0.2,0.7c-0.1,0.2-0.3,0.4-0.5,0.5c-0.2,0.2-0.6,0.3-0.9,0.2c0,0,0,0,0,0c0.4,0.2,0.9,0.3,1.4,0.4
		c0.1,0,0.2,0.1,0.4,0.1c0.3-0.2,0.5-0.5,0.6-0.8c0.2-0.5,0.3-1,0.3-1.4c0-0.6,0-1.3-0.2-1.9c-0.2-0.7-0.6-1.3-1.2-1.6
		c-0.3-0.2-0.6-0.3-1-0.4c-0.3,0-0.7,0-1,0.1c-0.2,0.1-0.4,0.2-0.5,0.3c-0.5,0.4-1,0.9-1.2,1.5c-0.3,0.8-0.2,1.6,0.1,2.3
		c0,0.1,0.1,0.2,0.1,0.3c0.2,0.1,0.4,0.2,0.6,0.3C41.1,20.8,41.4,21,41.6,21.1z"/>
	<path class="st0" d="M43.4,21.3c0.2-0.1,0.4-0.3,0.5-0.5c0.1-0.2,0.2-0.4,0.2-0.7c0.1-0.4,0-0.9-0.2-1.2c-0.2-0.4-0.5-0.7-0.9-0.8
		c-0.2-0.1-0.4-0.1-0.5-0.1c-0.2,0-0.4,0.1-0.6,0.2c-0.2,0.1-0.3,0.2-0.4,0.4c-0.2,0.3-0.3,0.7-0.3,1.1c0,0.3,0,0.6,0.1,0.9
		c0.1,0.2,0.2,0.5,0.4,0.6c0.1,0,0.1,0.1,0.2,0.1c0.2,0.1,0.4,0.2,0.7,0.3c0,0,0,0,0,0C42.9,21.5,43.2,21.4,43.4,21.3z M43.2,18.6
		c0.3,0.2,0.7,0.8,0.4,1c-0.1,0.1-0.5-0.4-0.8-0.6c-0.2-0.2-0.5-0.4-0.5-0.6C42.4,18.2,43,18.4,43.2,18.6z"/>
	<path class="st11" d="M42.9,19c0.2,0.2,0.7,0.7,0.8,0.6c0.2-0.2-0.2-0.8-0.4-1c-0.2-0.2-0.8-0.4-0.8-0.2
		C42.4,18.6,42.7,18.8,42.9,19z"/>
	<path class="st0" d="M59,41.7c-0.3-1.8-0.8-3.5-1.5-5.1c-0.5-1.2-1.1-2.4-1.8-3.5c-0.7-1.1-1.7-1.9-2.5-2.9
		c-0.3-0.4-0.6-0.7-0.8-1.1c-0.5-0.8-0.4-0.7-0.7-1.1c-0.7-1.2-1.3-2.2-1.8-3.8c-1-3.1-0.2-6.7-0.9-9.4c-0.3-0.9-0.7-1.8-1.2-2.7
		c-0.6-1-1.4-1.8-2.3-2.5C44,8.5,42.1,8,40.2,8c-1.3,0-2.6,0.3-3.8,0.9c-1.3,0.7-2.3,1.8-2.9,3c-0.6,1.3-0.9,2.6-0.9,4.2
		c-0.1,2.9,0.1,5.9,0.3,8.6c0.1,0.8,0.2,1.3,0.1,2.2c-0.1,0.4-0.2,0.8-0.5,1.2c-0.3,0.5-1.1,1.3-1.6,1.9c-1.3,1.5-2.7,3-3.4,4.6
		c-0.4,0.8-0.5,1.7-0.8,2.6c-0.3,1-0.7,1.9-1.1,2.9c-0.4,0.9-0.9,1.7-1.3,2.5c-0.3,0.6-0.7,1.2-0.8,1.9c-0.1,0.5,0,1.1,0.1,1.6
		c0.1,0.2,0.1,0.5,0.2,0.7c0,0,0,0,0.1-0.1c0.2-0.2,0.4-0.4,0.7-0.5c0,0,0,0,0.1,0c0.3-0.1,0.6-0.1,1-0.1c0.3,0.1,0.6,0.2,0.9,0.4
		c0.1,0,0.1,0.1,0.2,0.1c0,0,0.1,0.1,0.1,0.1c0,0,0,0,0.1,0.1c0.1,0,0.1,0.1,0.2,0.2c0,0,0,0,0,0c0.1,0.1,0.1,0.1,0.2,0.2
		c0,0,0,0,0,0c0.2,0.2,0.4,0.5,0.6,0.8c0.9,1.2,1.7,2.4,2.5,3.7c0.6,1,1.2,2.1,1.9,3.1c0,0,0,0.1,0.1,0.1c0.3,0.1,0.6,0.2,0.9,0.2
		c0.3,0,0.6,0,0.8-0.2c0.3-0.1,0.5-0.3,0.7-0.5c0.2-0.3,0.3-0.7,0.2-1s-0.2-0.7-0.4-1c-0.4-0.7-1.2-1.3-1.8-1.8
		c-1.4-1.1-2.8-2.2-4.1-3.4c-0.1-0.1-0.1-0.1-0.2-0.2c-0.1-0.1-0.3-0.3-0.4-0.4c0-0.8,0-1.6,0.1-2.4c0.2-2,0.8-4,1.6-5.9
		c0.5-1.2,1.2-2.4,2-3.5c-0.1-0.7,0-1.4,0.2-2.1c0.3-1.1,1-2.1,1.7-3c0.4-0.5,0.8-1.1,1-1.8c0.2-0.6,0.1-1.2,0.2-1.9
		c0-0.3,0-0.5,0.1-0.8c-0.1-0.1-0.2-0.2-0.4-0.3c-0.1-0.1-0.2-0.1-0.2-0.2c-0.1-0.1-0.1-0.1-0.2-0.2c0,0,0,0,0,0c0,0,0-0.1-0.1-0.1
		c0,0,0,0,0,0c0,0,0-0.1,0-0.1c0-0.1,0-0.1,0-0.2c0-0.2,0.1-0.4,0.1-0.6c0.1-0.2,0.2-0.4,0.4-0.6c0.2-0.2,0.3-0.4,0.5-0.5
		c-0.1,0-0.1-0.1-0.2-0.2c-0.2-0.2-0.4-0.5-0.5-0.8c-0.2-0.6-0.3-1.2-0.3-1.8c0-0.7-0.1-1.4,0.1-2c0.1-0.3,0.3-0.6,0.5-0.8
		c0.2-0.2,0.6-0.4,0.9-0.4c0.3,0,0.5,0.1,0.7,0.2c0.2,0.1,0.4,0.3,0.6,0.4c0.4,0.4,0.6,0.8,0.8,1.3c0.2,0.5,0.2,1,0.2,1.5
		c0,0.2,0,0.3,0,0.5c0.7-0.2,1.5-0.3,2.2,0c0.1,0,0.3,0.1,0.4,0.1c0-0.1-0.1-0.2-0.1-0.3c-0.3-0.8-0.4-1.6-0.1-2.3
		c0.2-0.6,0.7-1.1,1.2-1.5c0.2-0.1,0.3-0.2,0.5-0.3c0.3-0.1,0.7-0.2,1-0.1c0.3,0,0.7,0.2,1,0.4c0.6,0.4,1,1,1.2,1.6
		c0.2,0.6,0.3,1.2,0.2,1.9c0,0.5-0.1,1-0.3,1.4c-0.1,0.3-0.3,0.6-0.6,0.8c0.1,0,0.2,0.1,0.3,0.1c0.2,0.1,0.3,0.2,0.4,0.3
		c0,0.1,0.1,0.2,0.1,0.2c0,0,0.1,0.1,0.1,0.1c0.1,0.2,0.1,0.4,0.1,0.7c0,0.1-0.1,0.3-0.1,0.4c0,0.1,0,0.2-0.1,0.3
		c0,0.2,0,0.4-0.1,0.6c0,0.1-0.1,0.1-0.1,0.2c0.1,0.1,0.1,0.2,0.2,0.3c0.2,0.4,0.3,0.8,0.5,1.2c0.4,1,1,1.9,1.4,2.9
		c0.6,1.3,1,2.8,1.3,4.2c0.8,0.8,1.5,1.8,2,2.8c1.5,3,1.5,6.6,1.1,9.9c0,0.3-0.1,0.5-0.1,0.8c0.2,0,0.4,0.1,0.6,0.1c0,0,0,0,0,0.1
		c-0.2,0.5-0.2,1-0.2,1.5c0,0.5,0.2,1,0.5,1.4c0.3,0.3,0.6,0.5,1,0.6c0.7,0.2,1.4,0.2,2,0c1.1-0.4,2-1.1,2.7-2
		c0.2-0.3,0.4-0.6,0.5-1c0,0,0-0.1,0-0.1c0.1,0,0.2,0,0.2,0.1c0,0,0,0,0,0c0.3-0.7,0.4-1.4,0.6-2.1C59.3,44.3,59.2,43,59,41.7z"/>
	<path class="st13" d="M35.3,25.9c0.4,0.5,0.8,1.2,1.4,1.6c0.4,0.3,0.9,0.4,1.4,0.5c0.6,0.1,1.2,0,1.7-0.2c0.5-0.2,1-0.4,1.5-0.6
		c0.9-0.5,1.6-1.3,2.5-1.7c0.2-0.1,0.4-0.1,0.6-0.2c0.1-0.1,0.3-0.2,0.4-0.3c0-0.1,0.1-0.1,0.1-0.2c0.1-0.2,0.1-0.4,0.1-0.6
		c0-0.1,0-0.2,0.1-0.3c0-0.1,0.1-0.2,0.1-0.4c0-0.2,0-0.5-0.1-0.7c0,0,0-0.1-0.1-0.1c0,0,0,0,0,0c0,0.1,0,0.2-0.1,0.2
		c0,0.1-0.1,0.1-0.2,0.1c-0.1,0-0.1,0-0.2,0c-0.1,0-0.3,0-0.4,0c0,0-0.1,0-0.1,0c0,0,0,0.1,0,0.1c0,0,0,0-0.1,0.1c0,0,0,0-0.1,0
		c-0.3,0.2-0.5,0.3-0.8,0.4c-0.3,0.2-0.5,0.4-0.8,0.6c-0.6,0.5-1.2,0.9-1.9,1.1c-0.5,0.2-0.9,0.3-1.4,0.4c-0.6,0.1-1.2,0.3-1.8,0.3
		c-0.6,0-1.2-0.2-1.7-0.6c-0.2-0.1-0.3-0.3-0.5-0.5c-0.2-0.2-0.4-0.3-0.6-0.3c0,0-0.1,0-0.1,0c0,0-0.1,0-0.1-0.1c0,0,0-0.1,0-0.1
		c0,0,0,0,0,0c-0.1,0-0.1,0-0.2,0c-0.1,0-0.1,0-0.2-0.1c0,0,0,0,0-0.1c0,0,0,0.1,0.1,0.1c0,0,0,0,0,0c0,0.1,0.1,0.1,0.2,0.2
		c0.1,0.1,0.2,0.1,0.2,0.2c0.1,0.1,0.2,0.2,0.4,0.3C34.9,25.3,35.1,25.6,35.3,25.9z"/>
	<path class="st14" d="M43.7,23.1c-0.1,0-0.2,0.1-0.3,0.2c-0.1,0.1-0.2,0.2-0.2,0.2c-0.2,0.2-0.5,0.4-0.8,0.6
		c-0.6,0.4-1.2,0.9-1.9,1.1c-0.4,0.2-0.9,0.3-1.4,0.4c-0.6,0.1-1.2,0.2-1.8,0.2c-0.6,0-1.2-0.2-1.7-0.5c-0.2-0.1-0.4-0.3-0.7-0.5
		c-0.2-0.1-0.5-0.3-0.7-0.3c0,0,0,0.1,0,0.1c0,0,0.1,0.1,0.1,0.1c0,0,0.1,0,0.1,0c0.2,0.1,0.4,0.2,0.6,0.3c0.2,0.2,0.3,0.3,0.5,0.5
		c0.5,0.4,1.1,0.5,1.7,0.6c0.6,0,1.2-0.1,1.8-0.3c0.5-0.1,0.9-0.2,1.4-0.4c0.7-0.3,1.3-0.6,1.9-1.1c0.3-0.2,0.5-0.5,0.8-0.6
		c0.3-0.2,0.5-0.3,0.8-0.4c0,0,0,0,0.1,0c0,0,0,0,0.1-0.1c0,0,0-0.1,0-0.1C43.9,23,43.8,23,43.7,23.1z"/>
	<path class="st6" d="M45,22.7c0-0.1,0-0.2-0.1-0.2c-0.1-0.1-0.2-0.2-0.4-0.3c-0.1,0-0.2-0.1-0.3-0.1c-0.1,0-0.2-0.1-0.4-0.1
		c-0.5-0.1-0.9-0.3-1.4-0.4c-0.2-0.1-0.5-0.2-0.7-0.3c-0.1,0-0.1-0.1-0.2-0.1c-0.2-0.1-0.5-0.3-0.7-0.4c-0.2-0.1-0.4-0.2-0.6-0.3
		c-0.1-0.1-0.2-0.1-0.4-0.1c-0.7-0.2-1.5-0.2-2.2,0c-0.1,0-0.1,0-0.2,0.1c-0.3,0.1-0.5,0.2-0.8,0.4c-0.4,0.2-0.7,0.4-1,0.7
		c-0.2,0.1-0.3,0.3-0.4,0.4c-0.2,0.1-0.3,0.2-0.5,0.4c-0.2,0.2-0.4,0.3-0.5,0.5c-0.2,0.2-0.3,0.4-0.4,0.6c-0.1,0.2-0.1,0.4-0.1,0.6
		c0,0.1,0,0.1,0,0.2c0,0,0,0.1,0,0.1c0,0,0,0,0,0c0,0,0,0,0,0.1c0,0,0.1,0.1,0.2,0.1c0.1,0,0.1,0,0.2,0c0,0,0,0,0,0
		c0.3,0,0.5,0.2,0.7,0.3c0.2,0.2,0.4,0.3,0.7,0.5c0.5,0.3,1.1,0.5,1.7,0.5c0.6,0,1.2-0.1,1.8-0.2c0.5-0.1,0.9-0.2,1.4-0.4
		c0.7-0.3,1.3-0.7,1.9-1.1c0.3-0.2,0.5-0.4,0.8-0.6c0.1-0.1,0.2-0.2,0.2-0.2c0.1-0.1,0.2-0.1,0.3-0.2c0.1,0,0.2,0,0.4,0
		c0,0,0.1,0,0.1,0c0.1,0,0.3,0.1,0.4,0c0.1,0,0.1,0,0.2,0c0.1,0,0.1-0.1,0.2-0.1C45,22.9,45,22.8,45,22.7C45,22.7,45,22.7,45,22.7z
		 M37.1,21c-0.1,0.1-0.1,0.2-0.2,0.3c-0.1,0-0.1,0-0.2-0.1c-0.1-0.2,0.2-0.4,0.4-0.4C37.2,20.8,37.2,21,37.1,21z M40,21.3
		c-0.1,0-0.2-0.1-0.3-0.2c-0.1-0.1-0.4,0-0.4-0.2c0,0,0-0.1,0.1-0.1c0.2-0.1,0.4-0.1,0.6,0c0.2,0.1,0.4,0.2,0.4,0.3
		C40.3,21.2,40.1,21.3,40,21.3z"/>
	<path class="st15" d="M39.7,21.1c0.1,0.1,0.2,0.2,0.3,0.2c0.1,0,0.3,0,0.3-0.2c0-0.2-0.2-0.3-0.4-0.3c-0.2-0.1-0.4-0.1-0.6,0
		c0,0-0.1,0.1-0.1,0.1C39.3,21,39.5,21,39.7,21.1z"/>
	<path class="st15" d="M36.9,21.3c0.1,0,0.1-0.2,0.2-0.3c0.1,0,0-0.2,0-0.2c-0.2-0.1-0.4,0.2-0.4,0.4C36.8,21.3,36.9,21.3,36.9,21.3
		z"/>
</g>
<path class="st16" d="M25.5,40c0.4-0.9,0.8-1.9,1.1-2.8c0.2-0.7,0.4-1.4,0.6-2.1c-0.9,0-1.8-0.5-2.3-1.3c-0.7-1.3-0.3-3,1-3.7
	c1.3-0.7,3-0.3,3.7,1c0.1,0.1,0.1,0.2,0.1,0.3c0.4-0.4,0.8-0.9,1.1-1.3c0.5-0.6,1.3-1.4,1.6-1.9c0.2-0.4,0.4-0.8,0.5-1.2
	c0.1-0.9,0-1.3-0.1-2.2c-0.2-2.7-0.4-5.7-0.3-8.6c0-1.5,0.3-2.9,0.9-4.2c0.6-1.3,1.7-2.4,2.9-3c0.2-0.1,0.4-0.2,0.5-0.2
	C33.3,3.4,27.2,0,20.3,0c0,0,0,0,0,0C9.1,0,0,9.1,0,20.3s9.1,20.3,20.3,20.3C22.1,40.7,23.9,40.4,25.5,40z M24.9,7L24.9,7
	c0.7-1.3,2.4-1.7,3.7-1c1.3,0.7,1.7,2.4,1,3.7c-0.7,1.3-2.4,1.7-3.7,1c0,0,0,0,0,0C24.6,10,24.1,8.3,24.9,7z M23.5,9
	c0.3,2.1,2.3,3.5,4.4,3.2c0.3,0,0.5-0.1,0.7-0.2c2.1,2,3.3,4.8,3.5,7.6l-3.9,0.1c-0.4-4.4-4.2-7.6-8.6-7.2c-0.9,0.1-1.8,0.3-2.6,0.7
	l-1.9-3.4C17.7,8.5,20.7,8.2,23.5,9z M6.5,23C6.5,23,6.5,23,6.5,23c-1.5,0-2.7-1.2-2.7-2.7c0-1.5,1.2-2.7,2.7-2.7s2.7,1.2,2.7,2.7
	c0,0,0,0,0,0C9.2,21.8,8,23,6.5,23z M8.9,23.3c1.6-1.3,1.9-3.7,0.5-5.4c-0.2-0.2-0.3-0.4-0.5-0.5c0.7-2.8,2.5-5.2,4.9-6.9l2,3.3
	c-3.6,2.5-4.4,7.5-1.9,11c0.5,0.8,1.2,1.4,1.9,1.9l-2,3.3C11.4,28.5,9.6,26.1,8.9,23.3z M15.1,30.9l1.9-3.4c4,1.8,8.7,0.1,10.5-3.9
	c0.4-0.8,0.6-1.7,0.7-2.6l3.9,0.1c-0.2,2.9-1.4,5.6-3.5,7.6c-2-0.7-4.2,0.2-4.9,2.2c-0.1,0.2-0.2,0.5-0.2,0.7
	C20.7,32.5,17.7,32.2,15.1,30.9z"/>
<g>
	<path class="st17" d="M20.3,12.4c4.1,0,7.5,3.1,7.9,7.2l3.9-0.1c-0.2-2.9-1.4-5.6-3.5-7.6c-2,0.7-4.2-0.2-4.9-2.2
		c-0.1-0.2-0.2-0.5-0.2-0.7c-2.8-0.8-5.8-0.5-8.4,0.8l1.9,3.4C18,12.7,19.2,12.4,20.3,12.4z"/>
	<path class="st17" d="M25.9,10.7C25.9,10.7,25.9,10.7,25.9,10.7c1.3,0.8,3,0.3,3.7-1c0.7-1.3,0.3-3-1-3.7s-3-0.3-3.7,1c0,0,0,0,0,0
		C24.1,8.3,24.6,10,25.9,10.7z"/>
	<path class="st17" d="M29.7,31.2c0-0.1-0.1-0.2-0.1-0.3c0,0,0,0,0,0c-0.7-1.3-2.4-1.7-3.7-1c0,0,0,0,0,0c-1.3,0.7-1.7,2.4-1,3.7
		c0.5,0.9,1.4,1.3,2.3,1.3c0.1-0.2,0.1-0.3,0.2-0.5C28,33.4,28.8,32.3,29.7,31.2z"/>
	<path class="st17" d="M9.2,20.3c0-1.5-1.2-2.7-2.7-2.7c0,0,0,0,0,0v0c-1.5,0-2.7,1.2-2.7,2.7S5,23,6.5,23S9.2,21.8,9.2,20.3
		C9.2,20.3,9.2,20.3,9.2,20.3z"/>
	<path class="st17" d="M23.5,31.7c0.3-2.1,2.3-3.5,4.4-3.2c0.3,0,0.5,0.1,0.7,0.2c2.1-2,3.3-4.8,3.5-7.6L28.2,21
		c-0.4,4.1-3.8,7.2-7.9,7.2c-1.2,0-2.3-0.3-3.3-0.7l-1.9,3.4C17.7,32.2,20.7,32.5,23.5,31.7z"/>
	<path class="st17" d="M12.4,20.3c0-2.6,1.3-5,3.4-6.5l-2-3.3c-2.4,1.6-4.1,4-4.9,6.9c1.6,1.3,1.9,3.7,0.5,5.4
		c-0.2,0.2-0.3,0.4-0.5,0.5c0.7,2.8,2.5,5.2,4.9,6.9l2-3.3C13.7,25.3,12.4,22.9,12.4,20.3z"/>
</g>
</svg>
