<?xml version="1.0" encoding="utf-8"?>
<!-- Generator: Adobe Illustrator 23.0.5, SVG Export Plug-In . SVG Version: 6.00 Build 0)  -->
<svg version="1.1" id="Layer_1" xmlns="http://www.w3.org/2000/svg" xmlns:xlink="http://www.w3.org/1999/xlink" x="0px" y="0px"
	 viewBox="0 0 64 64" style="enable-background:new 0 0 64 64;" xml:space="preserve">
<style type="text/css">
	.st0{opacity:0.4;}
	.st1{fill:#FFFFFF;}
</style>
<g transform="translate(-64.6 -23.3)" class="st0">
	<polygon class="st1" points="122.6,67.7 122.6,68.8 121,68.8 121,72.6 119.9,72.6 119.9,68.8 118.3,68.8 118.3,67.7 	"/>
	<polygon class="st1" points="127.4,72.6 127.4,68.9 127.4,68.9 126.4,72.6 125.4,72.6 124.2,68.9 124.2,68.9 124.2,72.6 123,72.6 
		123,67.7 125,67.7 125.8,71 126.6,67.7 128.6,67.7 128.6,72.6 	"/>
</g>
<g transform="matrix(.9958 0 0 1 -57.13 -23.3)" class="st0">
	<path class="st1" d="M113.2,64.3c-4.9,3-12.1,4.6-20.3,4.6c-14.6,0-26.5-6.1-26.5-13.6c0-7.5,11.9-13.6,26.5-13.6
		c8.2,0,15.5,1.7,20.3,4.7c-5.3-5-14.8-8.5-25.7-8.5c-16.7,0-30.2,7.8-30.2,17.4s13.5,17.4,30.2,17.4
		C98.4,72.7,107.9,69.2,113.2,64.3L113.2,64.3z"/>
</g>
</svg>
