<?xml version="1.0" encoding="utf-8"?>
<!-- Generator: Adobe Illustrator 23.0.5, SVG Export Plug-In . SVG Version: 6.00 Build 0)  -->
<svg version="1.1" id="Layer_1" xmlns="http://www.w3.org/2000/svg" xmlns:xlink="http://www.w3.org/1999/xlink" x="0px" y="0px"
	 viewBox="0 0 64 64" style="enable-background:new 0 0 64 64;" xml:space="preserve">
<style type="text/css">
	.st0{opacity:0.5;}
	.st1{fill:#7A420F;}
	.st2{fill:#FFCB97;}
	.st3{fill:#EAAD75;}
	.st4{opacity:0.5;fill:#FFCB97;}
	.st5{opacity:0.5;fill:#EAAD75;}
	.st6{opacity:0.5;fill:#CECECE;}
	.st7{opacity:0.5;fill:#A5A5A5;}
</style>
<g class="st0">
	<path class="st1" d="M5.039,24.671l1.534-0.939"/>
	<path class="st1" d="M8.521,22.54l1.541-0.943"/>
	<path class="st1" d="M61.45,31.743l-1.562,0.956"/>
	<path class="st1" d="M59.252,33.088l-1.532,0.938"/>
	<path class="st1" d="M40.901,26.55l7.029,1.358"/>
	<path class="st1" d="M17.153,21.96l8.721,1.685"/>
	<path class="st1" d="M6.573,23.732l1.948-1.192"/>
	<path class="st1" d="M59.887,32.699l-0.635,0.389"/>
	<path class="st1" d="M28.301,32.177L7.159,28.091"/>
	<path class="st1" d="M48.262,36.034l-17.227-3.329"/>
	<path class="st1" d="M56.187,34.964l-2.29,1.402"/>
	<path class="st2" d="M11.312,20.832l-1.25,0.765c3.085,0.408,5.219,0.375,7.091,0.364L11.312,20.832z"/>
	<path class="st2" d="M40.901,26.55l-15.027-2.904c1.761,0.851,3.223,1.786,6.112,2.279C34.901,26.423,38.107,26.442,40.901,26.55z"
		/>
	<path class="st1" d="M38.438,30.3c1.491,0.288,3.424,0.078,4.318-0.468c0.893-0.547,0.409-1.224-1.082-1.512
		s-3.424-0.078-4.318,0.468C36.462,29.335,36.946,30.011,38.438,30.3z"/>
	<path class="st3" d="M61.45,31.743l1.518-0.929L47.93,27.908c1.8,0.905,3.454,2.118,6.357,2.772
		C57.251,31.349,60.035,31.633,61.45,31.743z"/>
	<path class="st2" d="M16.228,22.973c1.63-0.011,2.706-0.019,4.063,0.244l0.2,0.04c1.759,0.368,2.919,0.955,4.147,1.576
		c1.432,0.724,2.911,1.473,5.422,1.958c0.151,0.029,0.307,0.057,0.466,0.085c2.455,0.42,5.037,0.532,7.374,0.609
		c-0.98,0.211-1.857,0.524-2.508,0.923c-0.664,0.407-0.985,0.836-0.987,1.24c-0.502-0.208-1.004-0.427-1.515-0.649
		c-1.788-0.778-3.637-1.583-5.951-2.127c-0.372-0.087-0.781-0.174-1.227-0.26c-1.995-0.386-4.708-0.76-7.849-1.195
		c-3.262-0.451-7.146-0.989-11.29-1.686l-1.534,0.939c8.975,1.515,16.629,2.263,20.247,3.114c4.096,0.963,6.835,2.932,10.726,3.89
		c3.89,0.957,12.083,0.511,17.173,1.481c1.71,0.326,3.244,0.621,4.535,0.87l1.532-0.938c-0.008-0.002-0.016-0.003-0.024-0.005
		c-1.288-0.249-2.82-0.543-4.52-0.867c-2.799-0.533-6.227-0.673-9.544-0.808c-1.225-0.05-2.421-0.099-3.517-0.166
		c1.205-0.204,2.298-0.557,3.072-1.031c0.903-0.553,1.171-1.147,0.868-1.664c0.49,0.235,0.975,0.504,1.472,0.779
		c1.441,0.799,3.075,1.704,5.6,2.273c0.48,0.108,0.954,0.207,1.42,0.297c2.326,0.45,4.434,0.684,5.808,0.804l1.562-0.956
		c-1.415-0.111-4.199-0.394-7.163-1.063c-2.902-0.655-4.556-1.868-6.357-2.772l-7.029-1.358c-2.793-0.107-6-0.127-8.916-0.625
		c-2.889-0.494-4.351-1.428-6.112-2.279l-8.721-1.685c-1.872,0.012-4.006,0.045-7.091-0.364L8.521,22.54
		C11.885,23.001,14.247,22.987,16.228,22.973z M41.673,28.319c1.491,0.288,1.976,0.965,1.082,1.512
		c-0.894,0.547-2.827,0.757-4.318,0.468s-1.976-0.965-1.082-1.512C38.249,28.241,40.182,28.031,41.673,28.319z"/>
	<path class="st3" d="M25.713,26.612c0.446,0.086,0.855,0.173,1.227,0.26c2.314,0.544,4.163,1.349,5.951,2.127
		c0.511,0.223,1.012,0.441,1.515,0.649c0.002-0.405,0.323-0.834,0.987-1.24c0.651-0.398,1.528-0.711,2.508-0.923
		c-2.337-0.077-4.919-0.19-7.374-0.609c-0.159-0.027-0.314-0.055-0.466-0.085c-2.511-0.485-3.99-1.234-5.422-1.958
		c-1.228-0.622-2.388-1.209-4.147-1.576l-0.2-0.04c-1.357-0.262-2.433-0.255-4.063-0.244c-1.981,0.014-4.342,0.028-7.706-0.434
		l-1.948,1.192c4.144,0.697,8.028,1.235,11.29,1.686C21.005,25.852,23.718,26.227,25.713,26.612z"/>
	<path class="st3" d="M54.079,31.896c-0.466-0.09-0.941-0.189-1.42-0.297c-2.525-0.569-4.159-1.474-5.6-2.273
		c-0.497-0.276-0.982-0.545-1.472-0.779c0.303,0.517,0.035,1.112-0.868,1.664c-0.774,0.474-1.867,0.826-3.072,1.031
		c1.097,0.067,2.292,0.116,3.517,0.166c3.316,0.135,6.745,0.275,9.544,0.808c1.7,0.324,3.232,0.619,4.52,0.867
		c0.008,0.002,0.016,0.003,0.024,0.005l0.635-0.389C58.513,32.58,56.405,32.345,54.079,31.896z"/>
	<path class="st2" d="M53.185,33.156c-5.09-0.97-13.283-0.524-17.173-1.481c-3.89-0.957-6.629-2.927-10.726-3.89
		c-3.618-0.851-11.272-1.599-20.247-3.114L3.505,25.61c4.306,0.728,8.314,1.283,11.675,1.747c3.036,0.419,5.657,0.782,7.468,1.132
		c0.358,0.069,0.687,0.138,0.985,0.208c1.894,0.445,3.501,1.145,5.203,1.886c1.676,0.73,3.409,1.484,5.494,1.997
		c0.235,0.058,0.483,0.111,0.742,0.161c2.249,0.435,5.18,0.554,8.282,0.681c2.988,0.122,6.076,0.248,8.307,0.673
		c1.694,0.322,3.22,0.616,4.502,0.864c0.008,0.002,0.016,0.003,0.024,0.005l1.533-0.938C56.429,33.777,54.895,33.482,53.185,33.156z
		"/>
	<path class="st2" d="M53.775,36.342c-1.472-0.254-3.442-0.308-5.513-0.308l4.695,0.907l0.94-0.575l-0.045-0.01L53.775,36.342z"/>
	<path class="st2" d="M1.301,26.959l5.858,1.132c-1.324-0.525-2.914-1.085-5.043-1.631L1.301,26.959z"/>
	<path class="st3" d="M56.163,34.96c-1.283-0.248-2.809-0.542-4.502-0.864c-2.231-0.425-5.319-0.551-8.307-0.673
		c-3.102-0.126-6.033-0.246-8.282-0.681c-0.259-0.05-0.506-0.104-0.742-0.161c-2.086-0.513-3.818-1.268-5.494-1.997
		c-1.702-0.741-3.309-1.441-5.203-1.886c-0.298-0.07-0.627-0.139-0.985-0.208c-1.811-0.35-4.432-0.712-7.468-1.132
		c-3.361-0.465-7.368-1.019-11.675-1.747l-1.389,0.85c2.13,0.546,3.719,1.106,5.043,1.631l21.142,4.086l2.734,0.528l17.227,3.329
		c2.071,0,4.042,0.055,5.513,0.308l0.076,0.014l0.045,0.01l2.29-1.402C56.178,34.963,56.171,34.961,56.163,34.96z"/>
</g>
<polygon class="st4" points="52.956,41.357 52.956,36.941 48.262,36.034 48.262,40.45 "/>
<polygon class="st4" points="7.159,32.507 7.159,28.091 1.301,26.959 1.301,31.375 "/>
<polygon class="st4" points="48.262,40.45 7.159,32.507 7.159,28.091 48.262,36.034 "/>
<polygon class="st4" points="52.956,41.357 52.956,36.941 53.897,36.366 53.897,40.782 "/>
<polygon class="st5" points="53.897,36.366 53.897,40.782 56.187,39.38 56.187,34.964 "/>
<polygon class="st4" points="56.187,34.964 56.187,39.38 59.252,37.504 59.252,33.088 "/>
<polygon class="st5" points="59.252,33.088 59.252,37.504 59.887,37.115 59.887,32.699 "/>
<polygon class="st4" points="59.887,32.699 59.887,37.115 61.45,36.159 61.45,31.743 "/>
<polygon class="st5" points="61.45,31.743 61.45,36.159 62.967,35.23 62.967,30.814 "/>
<ellipse transform="matrix(0.9023 -0.431 0.431 0.9023 -18.1363 7.5665)" class="st6" cx="7.63" cy="43.807" rx="1.873" ry="2.882"/>
<path class="st7" d="M16.173,39.726l-0.034,0.016l-1.35-0.303l-5.922,2.829C9.034,42.49,9.19,42.729,9.32,43
	c0.134,0.281,0.224,0.563,0.292,0.842l5.927-2.831l0.613-1.241l0.034-0.016l-0.024-0.005L16.173,39.726z"/>
<ellipse transform="matrix(0.1283 -0.9917 0.9917 0.1283 -11.2861 76.1774)" class="st6" cx="37.691" cy="44.509" rx="2.882" ry="1.873"/>
<path class="st7" d="M28.301,43.294l0.038,0.005l0.969,0.988l6.509,0.842c-0.02-0.277-0.021-0.563,0.017-0.861
	c0.04-0.308,0.118-0.595,0.212-0.865l-6.515-0.843l-1.188,0.709l-0.038-0.005l0.017,0.017L28.301,43.294z"/>
</svg>
